<svg width="20" height="20" viewBox="0 0 20 20" fill="none" xmlns="http://www.w3.org/2000/svg">
<path d="M10.7056 11.7899C11.1349 11.3585 11.3753 10.7742 11.3739 10.1656C11.3724 9.55703 11.1293 8.97393 10.6979 8.54459C10.2666 8.11526 9.68231 7.87485 9.07371 7.87629C8.4651 7.87772 7.88199 8.12087 7.45266 8.55224C7.1193 8.88619 6.89881 9.31611 6.82213 9.7817C6.74544 10.2473 6.8164 10.7252 7.02505 11.1484L0 18.1735L1.06903 19.2578L8.09407 12.2327C8.52259 12.434 9.00241 12.4995 9.46918 12.4203C9.93596 12.3412 10.3674 12.1212 10.7056 11.7899ZM8.53696 9.63652C8.60794 9.56495 8.6924 9.50816 8.78545 9.46939C8.8785 9.43063 8.9783 9.41067 9.07911 9.41067C9.17991 9.41067 9.27972 9.43063 9.37277 9.46939C9.46582 9.50816 9.55027 9.56495 9.62126 9.63652C9.76117 9.77926 9.83954 9.97117 9.83954 10.171C9.83954 10.3709 9.76117 10.5628 9.62126 10.7055C9.55027 10.7771 9.46582 10.8339 9.37277 10.8727C9.27972 10.9115 9.17991 10.9314 9.07911 10.9314C8.9783 10.9314 8.8785 10.9115 8.78545 10.8727C8.6924 10.8339 8.60794 10.7771 8.53696 10.7055C8.39705 10.5628 8.31868 10.3709 8.31868 10.171C8.31868 9.97117 8.39705 9.77926 8.53696 9.63652ZM19.2272 1.08431L13.3323 6.9945C13.9251 7.78721 14.2854 8.72931 14.3729 9.71526C14.4603 10.7012 14.2715 11.692 13.8276 12.5767C13.3837 13.4614 12.7022 14.205 11.8594 14.7242C11.0167 15.2434 10.046 15.5176 9.0562 15.5162V13.989C9.81132 13.989 10.5495 13.7651 11.1773 13.3456C11.8052 12.926 12.2946 12.3298 12.5835 11.6321C12.8725 10.9345 12.9481 10.1668 12.8008 9.42619C12.6535 8.68558 12.2899 8.00528 11.7559 7.47133C11.222 6.93738 10.5417 6.57376 9.80105 6.42645C9.06044 6.27913 8.29277 6.35473 7.59513 6.6437C6.89749 6.93267 6.30121 7.42203 5.88168 8.04989C5.46216 8.67775 5.23824 9.41593 5.23824 10.171H3.71106C3.71034 9.17993 3.986 8.20823 4.50706 7.36514C5.02812 6.52204 5.77395 5.84093 6.66075 5.39832C7.54755 4.95571 8.5402 4.76915 9.52719 4.85958C10.5142 4.95 11.4564 5.31382 12.248 5.91019L18.1429 0L19.2272 1.08431Z" fill="#426DA9"/>
</svg>
