<svg width="45" height="45" viewBox="0 0 45 45" fill="none" xmlns="http://www.w3.org/2000/svg">
<path d="M36.5074 30.437H14.1712C13.9718 30.437 13.7781 30.3708 13.6204 30.2488C13.4627 30.1268 13.35 29.9559 13.3 29.7629L7.14399 6.06953H1.98789C1.7492 6.06953 1.52028 5.97471 1.35149 5.80593C1.18271 5.63714 1.08789 5.40823 1.08789 5.16953C1.08789 4.93084 1.18271 4.70192 1.35149 4.53314C1.52028 4.36435 1.7492 4.26953 1.98789 4.26953H7.83789C8.03726 4.26953 8.23099 4.33573 8.38867 4.45773C8.54634 4.57974 8.65905 4.75064 8.70909 4.94363L14.8642 28.637H35.8711L40.7806 14.7104L19.384 15.0218H19.3705C19.1318 15.0235 18.9022 14.9303 18.7322 14.7627C18.5623 14.5951 18.4659 14.3668 18.4642 14.1281C18.4625 13.8894 18.5557 13.6599 18.7233 13.4899C18.8909 13.3199 19.1192 13.2235 19.3579 13.2218L42.046 12.8915H42.0586C42.2026 12.8915 42.3444 12.926 42.4723 12.9922C42.6001 13.0584 42.7103 13.1542 42.7934 13.2718C42.8765 13.3893 42.9303 13.525 42.9501 13.6676C42.9699 13.8102 42.9552 13.9555 42.9073 14.0912L37.3561 29.8358C37.2942 30.0116 37.1794 30.1638 37.0274 30.2714C36.8754 30.3791 36.6937 30.437 36.5074 30.437Z" fill="white"/>
<path d="M17.91 39.9205C16.9877 39.9205 16.0862 39.647 15.3194 39.1347C14.5526 38.6223 13.9549 37.8941 13.602 37.042C13.2491 36.19 13.1567 35.2525 13.3367 34.3479C13.5166 33.4434 13.9607 32.6126 14.6128 31.9605C15.2649 31.3083 16.0958 30.8642 17.0003 30.6843C17.9048 30.5044 18.8423 30.5967 19.6944 30.9497C20.5464 31.3026 21.2747 31.9003 21.787 32.6671C22.2994 33.4339 22.5729 34.3354 22.5729 35.2576C22.5717 36.4939 22.08 37.6793 21.2058 38.5535C20.3316 39.4277 19.1463 39.9193 17.91 39.9205ZM17.91 32.4001C17.3437 32.4001 16.7902 32.5681 16.3193 32.8827C15.8485 33.1973 15.4816 33.6445 15.2649 34.1677C15.0483 34.6908 14.9916 35.2665 15.1021 35.8219C15.2127 36.3773 15.4854 36.8874 15.8859 37.2877C16.2864 37.6881 16.7966 37.9607 17.352 38.071C17.9074 38.1814 18.4831 38.1246 19.0062 37.9077C19.5293 37.6909 19.9763 37.3238 20.2908 36.8529C20.6053 36.382 20.773 35.8284 20.7729 35.2621C20.7719 34.5032 20.47 33.7757 19.9332 33.2391C19.3965 32.7026 18.6689 32.4008 17.91 32.4001Z" fill="white"/>
<path d="M33.8821 39.9205C32.9598 39.9207 32.0582 39.6474 31.2913 39.1351C30.5243 38.6229 29.9265 37.8947 29.5735 37.0427C29.2204 36.1906 29.1279 35.2531 29.3078 34.3485C29.4876 33.4439 29.9316 32.613 30.5837 31.9608C31.2358 31.3086 32.0666 30.8644 32.9711 30.6844C33.8757 30.5044 34.8133 30.5967 35.6654 30.9496C36.5175 31.3025 37.2458 31.9001 37.7582 32.667C38.2706 33.4338 38.5441 34.3354 38.5441 35.2576C38.5426 36.4937 38.051 37.6788 37.1771 38.5529C36.3031 39.427 35.1181 39.9189 33.8821 39.9205ZM33.8821 32.3956C33.3158 32.3955 32.7621 32.5632 32.2912 32.8777C31.8202 33.1923 31.4532 33.6394 31.2364 34.1625C31.0196 34.6857 30.9628 35.2614 31.0732 35.8168C31.1837 36.3723 31.4564 36.8825 31.8568 37.2829C32.2572 37.6833 32.7674 37.956 33.3229 38.0665C33.8783 38.1769 34.454 38.1201 34.9772 37.9033C35.5003 37.6865 35.9474 37.3194 36.262 36.8485C36.5765 36.3776 36.7442 35.8239 36.7441 35.2576C36.7419 34.4997 36.4396 33.7734 35.9032 33.2378C35.3668 32.7023 34.64 32.4011 33.8821 32.4001V32.3956Z" fill="white"/>
</svg>
