<svg width="80" height="80" viewBox="0 0 80 80" fill="none" xmlns="http://www.w3.org/2000/svg">
<path d="M75.7667 5.46667H60.9667C60.2856 5.46667 59.7333 6.01889 59.7333 6.7V10.4H46.1667C45.4856 10.4 44.9333 10.9522 44.9333 11.6333V15.3333H35.0667V4.23333C35.0667 3.55222 34.5144 3 33.8333 3H19.0333C18.3522 3 17.8 3.55222 17.8 4.23333V15.3333H4.23333C3.55222 15.3333 3 15.8856 3 16.5667V75.7667C3 76.4478 3.55222 77 4.23333 77H75.7667C76.4478 77 77 76.4478 77 75.7667V6.7C77 6.01889 76.4478 5.46667 75.7667 5.46667ZM17.8 74.5333H5.46667V17.8H17.8V74.5333ZM32.6 74.5333H20.2667V5.46667H32.6V74.5333ZM44.9333 74.5333H35.0667V17.8H44.9333V74.5333ZM59.7333 74.5333H47.4V12.8667H59.7333V74.5333ZM74.5333 74.5333H62.2V7.93333H74.5333V74.5333Z" fill="black"/>
<path d="M15.3333 65.9H7.93329V68.3667H15.3333V65.9Z" fill="#458ED3"/>
<path d="M15.3333 69.6H7.93329V72.0666H15.3333V69.6Z" fill="#458ED3"/>
<path d="M30.1333 65.9H22.7333V68.3667H30.1333V65.9Z" fill="#458ED3"/>
<path d="M30.1333 69.6H22.7333V72.0666H30.1333V69.6Z" fill="#458ED3"/>
<path d="M43.7 65.9H36.3V68.3667H43.7V65.9Z" fill="#458ED3"/>
<path d="M43.7 69.6H36.3V72.0666H43.7V69.6Z" fill="#458ED3"/>
<path d="M57.2667 65.9H49.8667V68.3667H57.2667V65.9Z" fill="#458ED3"/>
<path d="M57.2667 69.6H49.8667V72.0666H57.2667V69.6Z" fill="#458ED3"/>
<path d="M72.0667 65.9H64.6667V68.3667H72.0667V65.9Z" fill="#458ED3"/>
<path d="M72.0667 69.6H64.6667V72.0666H72.0667V69.6Z" fill="#458ED3"/>
<path d="M72.0666 38.7667H64.6666C63.9855 38.7667 63.4333 39.3189 63.4333 40V62.2C63.4333 62.8811 63.9855 63.4333 64.6666 63.4333H72.0666C72.7477 63.4333 73.3 62.8811 73.3 62.2V40C73.3 39.3189 72.7477 38.7667 72.0666 38.7667ZM70.8333 60.9667H65.9V41.2333H70.8333V60.9667Z" fill="#458ED3"/>
<path d="M15.3333 38.7667H7.93335C7.25224 38.7667 6.70001 39.3189 6.70001 40V62.2C6.70001 62.8811 7.25224 63.4333 7.93335 63.4333H15.3333C16.0145 63.4333 16.5667 62.8811 16.5667 62.2V40C16.5667 39.3189 16.0145 38.7667 15.3333 38.7667ZM14.1 60.9667H9.16668V41.2333H14.1V60.9667Z" fill="#458ED3"/>
<path d="M30.1333 7.93329H22.7333C22.0522 7.93329 21.5 8.48551 21.5 9.16662V16.5666C21.5 17.2477 22.0522 17.8 22.7333 17.8H30.1333C30.8144 17.8 31.3667 17.2477 31.3667 16.5666V9.16662C31.3667 8.48551 30.8144 7.93329 30.1333 7.93329ZM28.9 15.3333H23.9667V10.4H28.9V15.3333Z" fill="#458ED3"/>
<path d="M40 20.2667C37.9565 20.2667 36.3 21.9232 36.3 23.9667C36.3 26.0101 37.9565 27.6667 40 27.6667C42.0435 27.6667 43.7 26.0101 43.7 23.9667C43.7 21.9232 42.0435 20.2667 40 20.2667ZM40 25.2C39.3189 25.2 38.7667 24.6478 38.7667 23.9667C38.7667 23.2856 39.3189 22.7333 40 22.7333C40.6811 22.7333 41.2333 23.2856 41.2333 23.9667C41.2333 24.6478 40.6811 25.2 40 25.2Z" fill="#458ED3"/>
<path d="M53.5666 15.3333C50.842 15.3333 48.6333 17.5421 48.6333 20.2666C48.6333 22.9912 50.842 25.2 53.5666 25.2C56.2912 25.2 58.5 22.9912 58.5 20.2666C58.5 17.5421 56.2912 15.3333 53.5666 15.3333ZM53.5666 22.7333C52.2043 22.7333 51.1 21.629 51.1 20.2666C51.1 18.9043 52.2043 17.8 53.5666 17.8C54.929 17.8 56.0333 18.9043 56.0333 20.2666C56.0333 21.629 54.929 22.7333 53.5666 22.7333Z" fill="#458ED3"/>
</svg>
