<svg width="72" height="80" viewBox="0 0 72 80" fill="none" xmlns="http://www.w3.org/2000/svg">
<g clip-path="url(#clip0)">
<path d="M70.3435 59.9998C70.9026 59.0335 71.25 57.9449 71.25 56.9673V23.0323C71.25 22.0547 70.9031 20.9662 70.3438 20L35.625 39.9999L70.3435 59.9998Z" fill="#00599C"/>
<path d="M38.7102 79.2666L68.1648 62.2992C69.0133 61.8104 69.7845 60.9663 70.3435 59.9999L35.625 40L0.906464 60.0001C1.46552 60.9663 2.23693 61.8106 3.08518 62.2992L32.5398 79.2666C34.2366 80.2442 37.0134 80.2442 38.7102 79.2666Z" fill="#004482"/>
<path d="M70.3438 19.9999C69.7845 19.0334 69.0131 18.1894 68.1648 17.7006L38.7102 0.733208C37.0134 -0.244403 34.2366 -0.244403 32.5398 0.733208L3.08517 17.7006C1.38821 18.678 0 21.0774 0 23.0324V56.9674C0 57.945 0.347169 59.0337 0.906458 59.9999L35.625 40L70.3438 19.9999Z" fill="#659AD2"/>
<path d="M35.625 63.6969C22.5292 63.6969 11.875 53.0665 11.875 40C11.875 26.9336 22.5292 16.3032 35.625 16.3032C44.0753 16.3032 51.9564 20.8405 56.1923 28.1442L45.9139 34.0786C43.7938 30.4228 39.8511 28.1516 35.625 28.1516C29.077 28.1516 23.75 33.4667 23.75 40C23.75 46.5332 29.077 51.8485 35.625 51.8485C39.8516 51.8485 43.7943 49.5773 45.9146 45.9208L56.193 51.855C51.9571 59.1594 44.0758 63.6969 35.625 63.6969Z" fill="white"/>
<path d="M59.375 38.6834H56.736V36.0505H54.0974V38.6834H51.4583V41.3163H54.0974V43.9495H56.736V41.3163H59.375V38.6834Z" fill="white"/>
<path d="M69.2708 38.6834H66.6318V36.0505H63.9932V38.6834H61.3542V41.3163H63.9932V43.9495H66.6318V41.3163H69.2708V38.6834Z" fill="white"/>
</g>
<defs>
<clipPath id="clip0">
<rect width="71.25" height="80" fill="white"/>
</clipPath>
</defs>
</svg>
