<svg width="80" height="80" viewBox="0 0 80 80" fill="none" xmlns="http://www.w3.org/2000/svg">
<path d="M75.2157 23.6507C75.2157 22.3272 74.9336 21.1338 74.3478 20.1356C73.7836 19.1376 72.9374 18.3131 71.8092 17.6621C62.4356 12.2593 53.0405 6.85657 43.6669 1.45375C41.1283 -3.17693e-05 38.6981 0.0433823 36.1812 1.51882C32.4491 3.71037 13.7455 14.4291 8.19083 17.6621C5.8908 18.9857 4.78424 21.0253 4.78424 23.6725V56.3061C4.78424 57.608 5.0663 58.7579 5.60874 59.7561C6.17295 60.7759 7.04086 61.6438 8.19083 62.3164C13.7672 65.5495 32.4491 76.2465 36.1812 78.4597C38.6981 79.9349 41.1499 80 43.6669 78.5248C53.0405 73.1003 62.4356 67.7193 71.8092 62.3164C72.9808 61.6438 73.8271 60.7976 74.3912 59.7561C74.9336 58.7579 75.2157 57.608 75.2157 56.3061V23.6507Z" fill="#9A4993"/>
<path d="M40.0868 39.8591L5.56533 59.7344C6.12953 60.7542 6.99745 61.6221 8.14742 62.2948C13.7238 65.5278 32.4057 76.2248 36.1378 78.438C38.6547 79.9136 41.1066 79.9786 43.6235 78.5031C52.9971 73.0786 62.3923 67.6976 71.7658 62.2948C72.9374 61.6221 73.7837 60.776 74.3478 59.7344L40.0868 39.8591Z" fill="#6A1577"/>
<path d="M29.867 45.7392C31.885 49.2543 35.6604 51.6194 39.9783 51.6194C44.3396 51.6194 48.1367 49.2326 50.1329 45.6741L40.0868 39.8591L29.867 45.7392Z" fill="#6A1577"/>
<path d="M75.2158 23.6508C75.2158 22.3273 74.9336 21.1339 74.3479 20.1357L40.0868 39.8592L74.3912 59.7346C74.9336 58.7364 75.2158 57.5864 75.2158 56.2845V23.6508Z" fill="#813084"/>
<path d="M50.1329 45.674C48.1368 49.2108 44.3396 51.6193 39.9783 51.6193C35.6387 51.6193 31.8633 49.2542 29.8671 45.7391C28.8907 44.025 28.3265 42.0722 28.3265 39.9675C28.3265 33.5232 33.534 28.3157 39.9783 28.3157C44.2745 28.3157 48.0283 30.659 50.0462 34.1307L60.2224 28.2723C56.165 21.2856 48.614 16.5771 39.9566 16.5771C27.0246 16.5771 16.5663 27.0572 16.5663 39.9675C16.5663 44.1986 17.6945 48.191 19.6691 51.6193C23.7048 58.6277 31.2991 63.3578 39.9783 63.3578C48.6792 63.3578 56.2735 58.606 60.3093 51.5542L50.1329 45.674ZM62.9998 34.4345H60.6781V45.6524H62.9998V34.4345ZM68.1422 34.4345H65.8205V45.6524H68.1422V34.4345Z" fill="white"/>
<path d="M70.03 36.3223H58.8121V38.644H70.03V36.3223ZM70.03 41.4429H58.8121V43.7646H70.03V41.4429Z" fill="white"/>
</svg>
