<svg width="26" height="15" viewBox="0 0 26 15" fill="none" xmlns="http://www.w3.org/2000/svg">
<path d="M16.3715 2.22986C17.728 2.23324 19.03 2.76427 20.002 3.71056C20.9739 4.65686 21.5395 5.94417 21.5792 7.30011V8.18588L22.3733 8.61349C22.7013 8.79564 22.9755 9.06088 23.1685 9.38255C23.3615 9.70423 23.4665 10.071 23.4729 10.4461C23.4811 10.726 23.433 11.0046 23.3315 11.2655C23.2301 11.5265 23.0772 11.7644 22.8821 11.9652C22.687 12.166 22.4536 12.3256 22.1957 12.4345C21.9378 12.5435 21.6606 12.5996 21.3807 12.5994H19.8535H3.94023C3.41423 12.5545 2.92423 12.3139 2.56716 11.925C2.21009 11.5362 2.01196 11.0275 2.01196 10.4996C2.01196 9.97164 2.21009 9.46295 2.56716 9.0741C2.92423 8.68526 3.41423 8.44458 3.94023 8.39968H5.46742V7.97207L5.68122 7.39173C5.92371 6.70586 6.37231 6.11173 6.96557 5.69071C7.55883 5.26969 8.26774 5.04236 8.99521 5.03987C9.40234 5.03376 9.80682 5.10637 10.1864 5.25369L11.3318 5.66602L11.9885 4.64281C12.4613 3.91064 13.1104 3.30887 13.8762 2.89263C14.6419 2.47639 15.4999 2.259 16.3715 2.2604V2.22986ZM16.3715 0.733213C15.247 0.727552 14.139 1.00422 13.1491 1.53785C12.1592 2.07149 11.319 2.84502 10.7057 3.78758C10.1585 3.58377 9.57909 3.48031 8.99521 3.48215C7.9518 3.48384 6.93432 3.8074 6.08159 4.40869C5.22885 5.00997 4.58239 5.8597 4.2304 6.84195H3.94023C3.01895 6.90176 2.15496 7.30991 1.52365 7.98354C0.892333 8.65717 0.541016 9.54579 0.541016 10.469C0.541016 11.3922 0.892333 12.2809 1.52365 12.9545C2.15496 13.6281 3.01895 14.0363 3.94023 14.0961H21.3807C22.1911 14.1079 22.9818 13.8462 23.6251 13.3532C24.2685 12.8603 24.7269 12.1649 24.9264 11.3794C25.1259 10.5938 25.0548 9.76395 24.7245 9.02379C24.3943 8.28363 23.8242 7.67638 23.1064 7.30011C23.0784 5.53109 22.3569 3.84379 21.0974 2.60134C19.8378 1.3589 18.1407 0.660641 16.3715 0.65686" fill="#426DA9"/>
<path d="M20.9076 6.76551L20.1287 6.65861C20.0297 6.11118 19.8164 5.59079 19.5026 5.13142L19.9913 4.50527C19.7517 4.20175 19.4746 3.92978 19.1666 3.69587L18.5405 4.16929C18.0838 3.85353 17.5618 3.64475 17.0133 3.55843L16.9216 2.76428H16.3413H15.761L15.6541 3.55843C15.1056 3.64475 14.5836 3.85353 14.1269 4.16929L13.5008 3.69587C13.1941 3.92611 12.9216 4.19862 12.6913 4.50527L13.1648 5.13142C12.849 5.58814 12.6402 6.11012 12.5539 6.65861L11.7598 6.76551C11.7598 6.94877 11.7598 7.1473 11.7598 7.34584C11.7598 7.54437 11.7598 7.72764 11.7598 7.92618L12.5539 8.0178C12.6402 8.56629 12.849 9.08828 13.1648 9.54499L12.6913 10.1711C12.9253 10.4791 13.1972 10.7562 13.5008 10.9958L14.1269 10.5071C14.5863 10.8209 15.1067 11.0343 15.6541 11.1333L15.761 11.9121C15.9541 11.9279 16.1482 11.9279 16.3413 11.9121C16.5345 11.9273 16.7285 11.9273 16.9216 11.9121L17.0133 11.1333C17.5607 11.0343 18.0811 10.8209 18.5405 10.5071L19.1666 10.9958C19.4712 10.7523 19.7478 10.4757 19.9913 10.1711L19.5026 9.54499C19.8164 9.08562 20.0297 8.56523 20.1287 8.0178L20.9076 7.92618C20.9227 7.73303 20.9227 7.53899 20.9076 7.34584C20.9233 7.15271 20.9233 6.95864 20.9076 6.76551ZM16.326 9.63662C15.873 9.63662 15.4301 9.50227 15.0534 9.25056C14.6766 8.99884 14.383 8.64107 14.2096 8.22249C14.0363 7.8039 13.9909 7.3433 14.0793 6.89893C14.1677 6.45457 14.3859 6.04638 14.7062 5.72601C15.0266 5.40564 15.4348 5.18747 15.8791 5.09908C16.3235 5.01069 16.7841 5.05605 17.2027 5.22944C17.6213 5.40282 17.979 5.69644 18.2308 6.07316C18.4825 6.44987 18.6168 6.89277 18.6168 7.34584C18.6168 7.95339 18.3755 8.53606 17.9459 8.96566C17.5163 9.39527 16.9336 9.63662 16.326 9.63662Z" fill="#426DA9"/>
<path d="M12.0187 8.35364H11.4842C11.4275 7.99003 11.2862 7.64479 11.0718 7.3457L11.3925 6.93337C11.2342 6.73177 11.0551 6.54748 10.858 6.38358L10.4304 6.71956C10.1343 6.5069 9.79566 6.361 9.43773 6.29194V5.77271H9.04067H8.65887V6.29194C8.29711 6.36381 7.95401 6.50938 7.65093 6.71956L7.23859 6.38358C7.04037 6.55125 6.85648 6.73515 6.6888 6.93337L7.02478 7.3457C6.8118 7.64723 6.66598 7.99095 6.59717 8.35364H6.07793C6.07038 8.4808 6.07038 8.60829 6.07793 8.73544C6.07038 8.86769 6.07038 9.00025 6.07793 9.1325H6.59717C6.66623 9.49042 6.81212 9.8291 7.02478 10.1252L6.6888 10.5528C6.85271 10.7498 7.03699 10.929 7.23859 11.0873L7.65093 10.7666C7.95136 10.9786 8.29601 11.1196 8.65887 11.1789V11.6982C8.78569 11.7132 8.91385 11.7132 9.04067 11.6982C9.17259 11.7133 9.30581 11.7133 9.43773 11.6982V11.1789C9.79664 11.1222 10.1369 10.9808 10.4304 10.7666L10.858 11.0873C11.0584 10.9328 11.238 10.7532 11.3925 10.5528L11.0718 10.1252C11.2861 9.83167 11.4274 9.49141 11.4842 9.1325H12.0187C12.0263 9.00025 12.0263 8.86769 12.0187 8.73544C12.0263 8.60829 12.0263 8.48079 12.0187 8.35364ZM8.96431 10.2626C8.66226 10.2626 8.36699 10.173 8.11585 10.0052C7.86471 9.83743 7.66896 9.59892 7.55337 9.31986C7.43778 9.04081 7.40754 8.73374 7.46647 8.4375C7.52539 8.14126 7.67085 7.86914 7.88443 7.65556C8.09801 7.44198 8.37012 7.29652 8.66637 7.2376C8.96261 7.17867 9.26968 7.20892 9.54874 7.32451C9.82779 7.44009 10.0663 7.63584 10.2341 7.88698C10.4019 8.13812 10.4915 8.43339 10.4915 8.73544C10.4915 9.14047 10.3306 9.52892 10.0442 9.81532C9.75779 10.1017 9.36934 10.2626 8.96431 10.2626Z" fill="#426DA9"/>
</svg>
