<svg width="80" height="80" viewBox="0 0 80 80" fill="none" xmlns="http://www.w3.org/2000/svg">
<path d="M8.75 77.5H71.25C72.907 77.4981 74.4957 76.8391 75.6674 75.6674C76.8391 74.4957 77.4981 72.907 77.5 71.25V28.75C77.4981 27.093 76.8391 25.5043 75.6674 24.3326C74.4957 23.1609 72.907 22.5019 71.25 22.5H70V16.25C70 16.2356 69.9984 16.2216 69.9978 16.2072C69.9972 16.1928 69.9967 16.18 69.9959 16.1664C69.9889 16.0586 69.9679 15.9522 69.9334 15.8498C69.9292 15.8372 69.9247 15.8247 69.92 15.8122C69.9021 15.7633 69.8813 15.7156 69.8575 15.6694C69.8564 15.6673 69.8556 15.6652 69.8545 15.663C69.8286 15.6152 69.7996 15.5691 69.7677 15.5252C69.7598 15.5141 69.752 15.5033 69.7436 15.4925C69.71 15.448 69.6735 15.4057 69.6342 15.3661L57.1342 2.86609C57.0947 2.82721 57.0526 2.79098 57.0083 2.75766C56.9972 2.74922 56.9861 2.74094 56.9748 2.73297C56.9309 2.70129 56.8851 2.67243 56.8375 2.64656C56.8352 2.64531 56.8325 2.64438 56.83 2.64313C56.7841 2.61934 56.7367 2.59846 56.6881 2.58063C56.6756 2.57594 56.6633 2.57141 56.6506 2.56719C56.548 2.5327 56.4414 2.51169 56.3334 2.50469C56.3202 2.50469 56.3069 2.50328 56.2934 2.50281C56.28 2.50234 56.2645 2.5 56.25 2.5H23.75C22.093 2.50186 20.5043 3.16094 19.3326 4.33264C18.1609 5.50434 17.5019 7.09297 17.5 8.75V15H8.75C7.09297 15.0019 5.50434 15.6609 4.33264 16.8326C3.16094 18.0043 2.50186 19.593 2.5 21.25V71.25C2.50186 72.907 3.16094 74.4957 4.33264 75.6674C5.50434 76.8391 7.09297 77.4981 8.75 77.5ZM71.25 25C72.2442 25.0012 73.1974 25.3966 73.9004 26.0996C74.6034 26.8026 74.9988 27.7558 75 28.75V71.25C74.9988 72.2442 74.6034 73.1974 73.9004 73.9004C73.1974 74.6034 72.2442 74.9988 71.25 75H66.25C65.2558 74.9988 64.3026 74.6034 63.5996 73.9004C62.8966 73.1974 62.5012 72.2442 62.5 71.25V70H63.75C65.407 69.9981 66.9957 69.3391 68.1674 68.1674C69.3391 66.9957 69.9981 65.407 70 63.75V25H71.25ZM65.7323 15H61.25C60.2558 14.9989 59.3026 14.6034 58.5996 13.9004C57.8966 13.1974 57.5011 12.2442 57.5 11.25V6.76766L65.7323 15ZM20 8.75C20.0011 7.75578 20.3966 6.8026 21.0996 6.09958C21.8026 5.39656 22.7558 5.00112 23.75 5H55V11.25C55.0019 12.907 55.6609 14.4957 56.8326 15.6674C58.0043 16.8391 59.593 17.4981 61.25 17.5H67.5V63.75C67.4989 64.7442 67.1034 65.6974 66.4004 66.4004C65.6974 67.1034 64.7442 67.4989 63.75 67.5H62.5V36.25C62.4981 34.593 61.8391 33.0043 60.6674 31.8326C59.4957 30.6609 57.907 30.0019 56.25 30H30V21.25C29.9981 19.593 29.3391 18.0043 28.1674 16.8326C26.9957 15.6609 25.407 15.0019 23.75 15H20V8.75ZM5 21.25C5.00116 20.2558 5.39662 19.3026 6.09963 18.5996C6.80264 17.8966 7.75579 17.5012 8.75 17.5H23.75C24.7442 17.5012 25.6974 17.8966 26.4004 18.5996C27.1034 19.3026 27.4988 20.2558 27.5 21.25V31.25C27.5 31.5815 27.6317 31.8995 27.8661 32.1339C28.1005 32.3683 28.4185 32.5 28.75 32.5H56.25C57.2442 32.5012 58.1974 32.8966 58.9004 33.5996C59.6034 34.3026 59.9988 35.2558 60 36.25V71.25C59.9985 72.603 60.4384 73.9196 61.253 75H8.75C7.75579 74.9988 6.80264 74.6034 6.09963 73.9004C5.39662 73.1974 5.00116 72.2442 5 71.25V21.25Z" fill="black"/>
<path d="M42.5 23.75C42.5 24.0815 42.6317 24.3995 42.8661 24.6339C43.1005 24.8683 43.4185 25 43.75 25H61.25C61.5815 25 61.8995 24.8683 62.1339 24.6339C62.3683 24.3995 62.5 24.0815 62.5 23.75C62.5 23.4185 62.3683 23.1005 62.1339 22.8661C61.8995 22.6317 61.5815 22.5 61.25 22.5H43.75C43.4185 22.5 43.1005 22.6317 42.8661 22.8661C42.6317 23.1005 42.5 23.4185 42.5 23.75Z" fill="#458ED3"/>
<path d="M35 17.5H43.75C44.0815 17.5 44.3995 17.3683 44.6339 17.1339C44.8683 16.8995 45 16.5815 45 16.25C45 15.9185 44.8683 15.6005 44.6339 15.3661C44.3995 15.1317 44.0815 15 43.75 15H35C34.6685 15 34.3505 15.1317 34.1161 15.3661C33.8817 15.6005 33.75 15.9185 33.75 16.25C33.75 16.5815 33.8817 16.8995 34.1161 17.1339C34.3505 17.3683 34.6685 17.5 35 17.5Z" fill="#458ED3"/>
<path d="M38.75 22.5H36.25C35.9185 22.5 35.6005 22.6317 35.3661 22.8661C35.1317 23.1005 35 23.4185 35 23.75C35 24.0815 35.1317 24.3995 35.3661 24.6339C35.6005 24.8683 35.9185 25 36.25 25H38.75C39.0815 25 39.3995 24.8683 39.6339 24.6339C39.8683 24.3995 40 24.0815 40 23.75C40 23.4185 39.8683 23.1005 39.6339 22.8661C39.3995 22.6317 39.0815 22.5 38.75 22.5Z" fill="#458ED3"/>
<path d="M27.9558 67.0827C28.0729 67.2139 28.2165 67.3188 28.377 67.3908C28.5375 67.4627 28.7114 67.4999 28.8873 67.5H28.9011C29.0792 67.4979 29.2549 67.4578 29.4163 67.3824C29.5777 67.3069 29.7212 67.1979 29.837 67.0625L38.4767 56.9669C38.632 56.7853 38.732 56.5631 38.7649 56.3264C38.7978 56.0898 38.7622 55.8487 38.6622 55.6316C38.5623 55.4146 38.4023 55.2308 38.2011 55.1019C38 54.973 37.7661 54.9045 37.5272 54.9044H37.5133L33.7633 54.9456L33.6122 41.1964C33.6086 40.8673 33.4753 40.5529 33.2412 40.3214C33.0072 40.0899 32.6913 39.9601 32.3622 39.9602H32.3481L24.8481 40.0425C24.5166 40.0462 24.2002 40.1814 23.9684 40.4183C23.7366 40.6553 23.6084 40.9746 23.612 41.3061L23.7631 55.0561L20.0131 55.0973C19.773 55.1 19.5387 55.1718 19.3383 55.3041C19.1379 55.4364 18.9799 55.6236 18.8831 55.8433C18.7863 56.0631 18.7548 56.306 18.7924 56.5432C18.8301 56.7804 18.9352 57.0017 19.0953 57.1806L27.9558 67.0827ZM25.0416 57.5409C25.373 57.5373 25.6895 57.4021 25.9213 57.1651C26.1531 56.9282 26.2813 56.6088 26.2776 56.2773L26.1266 42.5281L31.1266 42.4733L31.2776 56.2223C31.2788 56.3867 31.3124 56.5492 31.3767 56.7005C31.4409 56.8518 31.5345 56.9888 31.652 57.1038C31.7694 57.2187 31.9085 57.3092 32.0612 57.3701C32.2139 57.431 32.3771 57.4611 32.5414 57.4586L34.7866 57.4339L28.8667 64.3511L22.7969 57.5656L25.0416 57.5409Z" fill="#458ED3"/>
</svg>
