<svg width="136" height="52" viewBox="0 0 136 52" fill="none" xmlns="http://www.w3.org/2000/svg">
<path d="M10.2592 16.1674C9.99614 16.1674 9.93037 16.0363 10.0619 15.8397L11.4429 14.0698C11.5745 13.8732 11.9033 13.7421 12.1663 13.7421H35.6441C35.9072 13.7421 35.9729 13.9387 35.8414 14.1354L34.7234 15.8397C34.5919 16.0363 34.2631 16.233 34.0658 16.233L10.2592 16.1674ZM0.328822 22.1981C0.0657654 22.1981 1.3411e-06 22.067 0.131529 21.8703L1.51257 20.1005C1.6441 19.9038 1.97292 19.7727 2.23598 19.7727H32.2244C32.4874 19.7727 32.619 19.9694 32.5532 20.166L32.0271 21.7392C31.9613 22.0014 31.6983 22.1325 31.4352 22.1325L0.328822 22.1981ZM16.2437 28.2287C15.9807 28.2287 15.9149 28.032 16.0464 27.8354L16.9671 26.1966C17.0987 26 17.3617 25.8033 17.6248 25.8033H30.7776C31.0406 25.8033 31.1722 26 31.1722 26.2622L31.0406 27.8354C31.0406 28.0976 30.7776 28.2942 30.5803 28.2942L16.2437 28.2287ZM84.5068 14.9875C80.3637 16.0363 77.5358 16.823 73.4584 17.8718C72.472 18.134 72.4062 18.1995 71.5513 17.2163C70.5648 16.1019 69.8414 15.3808 68.4604 14.7253C64.3172 12.6933 60.3056 13.2832 56.5571 15.7086C52.0851 18.5928 49.7834 22.8536 49.8491 28.1631C49.9149 33.4072 53.5319 37.7335 58.7273 38.4545C63.1992 39.0445 66.9478 37.4713 69.9072 34.1282C70.499 33.4072 71.0252 32.6206 71.6828 31.7029H58.9903C57.6093 31.7029 57.2805 30.8507 57.7408 29.7363C58.5958 27.7043 60.1741 24.2957 61.0948 22.5914C61.2921 22.1981 61.7524 21.5426 62.7389 21.5426H86.677C86.5455 23.3124 86.5455 25.0823 86.2824 26.8521C85.559 31.5718 83.7834 35.8981 80.8898 39.7C76.1548 45.9273 69.9729 49.7947 62.147 50.8435C55.7021 51.6957 49.7176 50.4502 44.4565 46.5172C39.59 42.8464 36.8279 37.9957 36.1045 31.9651C35.2495 24.8201 37.354 18.3962 41.6944 12.7588C46.3636 6.66267 52.5455 2.7952 60.1083 1.41865C66.2902 0.304293 72.2089 1.02535 77.5358 4.63061C81.0213 6.92487 83.5203 10.0713 85.1644 13.8732C85.559 14.4631 85.296 14.7909 84.5068 14.9875Z" fill="#D0D0D0"/>
<path d="M106.275 51.2369C100.29 51.1058 94.8317 49.4015 90.2283 45.4684C86.3482 42.1254 83.9149 37.8646 83.1258 32.8172C81.942 25.4101 83.9807 18.855 88.4526 13.0211C93.2534 6.72825 99.0406 3.45074 106.867 2.07418C113.574 0.894278 119.888 1.54978 125.609 5.41724C130.805 8.95696 134.027 13.7421 134.882 20.0349C136 28.8842 133.435 36.0948 127.319 42.2565C122.979 46.6483 117.652 49.4015 111.536 50.6469C109.76 50.9747 107.985 51.0402 106.275 51.2369ZM121.927 24.7546C121.861 23.9024 121.861 23.2469 121.729 22.5914C120.545 16.1019 114.561 12.4311 108.313 13.8732C102.197 15.2498 98.2515 19.1172 96.8047 25.279C95.6209 30.3919 98.1199 35.5704 102.855 37.668C106.472 39.2412 110.089 39.0445 113.574 37.2747C118.77 34.5871 121.598 30.3919 121.927 24.7546Z" fill="#D0D0D0"/>
</svg>
