<svg width="136" height="52" viewBox="0 0 136 52" fill="none" xmlns="http://www.w3.org/2000/svg">
<path d="M10.2592 16.1674C9.99614 16.1674 9.93037 16.0363 10.0619 15.8397L11.4429 14.0698C11.5745 13.8732 11.9033 13.7421 12.1663 13.7421H35.6441C35.9072 13.7421 35.9729 13.9387 35.8414 14.1354L34.7234 15.8397C34.5919 16.0363 34.2631 16.233 34.0658 16.233L10.2592 16.1674ZM0.328822 22.198C0.0657654 22.198 1.3411e-06 22.0669 0.131529 21.8703L1.51257 20.1004C1.6441 19.9038 1.97292 19.7727 2.23598 19.7727H32.2244C32.4874 19.7727 32.619 19.9693 32.5532 20.166L32.0271 21.7392C31.9613 22.0014 31.6983 22.1325 31.4352 22.1325L0.328822 22.198ZM16.2437 28.2287C15.9807 28.2287 15.9149 28.032 16.0464 27.8354L16.9671 26.1966C17.0987 25.9999 17.3617 25.8033 17.6248 25.8033H30.7776C31.0406 25.8033 31.1722 25.9999 31.1722 26.2621L31.0406 27.8354C31.0406 28.0976 30.7776 28.2942 30.5803 28.2942L16.2437 28.2287ZM84.5068 14.9875C80.3637 16.0363 77.5358 16.8229 73.4584 17.8717C72.472 18.1339 72.4062 18.1995 71.5513 17.2162C70.5648 16.1019 69.8414 15.3808 68.4604 14.7253C64.3172 12.6932 60.3056 13.2832 56.5571 15.7086C52.0851 18.5928 49.7834 22.8535 49.8491 28.1631C49.9149 33.4071 53.5319 37.7334 58.7273 38.4545C63.1992 39.0444 66.9478 37.4712 69.9072 34.1282C70.499 33.4071 71.0252 32.6205 71.6828 31.7028H58.9903C57.6093 31.7028 57.2805 30.8507 57.7408 29.7363C58.5958 27.7043 60.1741 24.2956 61.0948 22.5913C61.2921 22.198 61.7524 21.5425 62.7389 21.5425H86.677C86.5455 23.3124 86.5455 25.0822 86.2824 26.8521C85.559 31.5717 83.7834 35.898 80.8898 39.6999C76.1548 45.9272 69.9729 49.7947 62.147 50.8435C55.7021 51.6956 49.7176 50.4502 44.4565 46.5172C39.59 42.8464 36.8279 37.9956 36.1045 31.965C35.2495 24.82 37.354 18.3961 41.6944 12.7588C46.3636 6.66263 52.5455 2.79516 60.1083 1.41861C66.2902 0.304255 72.2089 1.02531 77.5358 4.63057C81.0213 6.92483 83.5203 10.0712 85.1644 13.8732C85.559 14.4631 85.296 14.7909 84.5068 14.9875Z" fill="black"/>
<path d="M106.275 51.237C100.29 51.1059 94.8317 49.4016 90.2283 45.4686C86.3482 42.1255 83.9149 37.8647 83.1258 32.8174C81.942 25.4102 83.9807 18.8552 88.4526 13.0212C93.2534 6.72837 99.0406 3.45086 106.867 2.0743C113.574 0.8944 119.888 1.5499 125.609 5.41737C130.805 8.95708 134.027 13.7422 134.882 20.0351C136 28.8844 133.435 36.0949 127.319 42.2566C122.979 46.6485 117.652 49.4016 111.536 50.647C109.76 50.9748 107.985 51.0403 106.275 51.237ZM121.927 24.7547C121.861 23.9025 121.861 23.247 121.729 22.5915C120.545 16.1021 114.561 12.4312 108.313 13.8733C102.197 15.2499 98.2515 19.1174 96.8047 25.2791C95.6209 30.392 98.1199 35.5705 102.855 37.6681C106.472 39.2413 110.089 39.0446 113.574 37.2748C118.77 34.5872 121.598 30.392 121.927 24.7547Z" fill="black"/>
</svg>
