<svg width="160" height="160" viewBox="0 0 160 160" fill="none" xmlns="http://www.w3.org/2000/svg">
<g clip-path="url(#clip0)">
<path d="M18.4253 58.6084C18.8819 59.065 19.4812 59.2945 20.0806 59.2945C20.68 59.2945 21.2793 59.0662 21.7371 58.6084C22.6514 57.6941 22.6514 56.2109 21.7371 55.2966L16.0511 49.6106L21.7371 43.9257C22.6514 43.0102 22.6514 41.5283 21.7371 40.614C20.8228 39.6996 19.3396 39.6996 18.4253 40.614L11.084 47.9553C10.6445 48.3947 10.398 48.9905 10.398 49.6106C10.398 50.2319 10.6445 50.8276 11.084 51.2671L18.4253 58.6084Z" fill="#458ED3"/>
<path d="M41.6627 49.6104L35.9767 55.2965C35.0624 56.2108 35.0624 57.694 35.9779 58.6083C36.4344 59.0648 37.0338 59.2943 37.6332 59.2943C38.2325 59.2943 38.8319 59.0648 39.2885 58.6083L46.631 51.2657C47.5453 50.3514 47.5453 48.8683 46.631 47.9552L39.2885 40.6126C38.3741 39.6983 36.8922 39.6983 35.9779 40.6126C35.0624 41.5281 35.0624 43.0101 35.9779 43.9244L41.6627 49.6104Z" fill="#458ED3"/>
<path d="M25.3663 59.1319C25.6471 59.2418 25.9376 59.2943 26.222 59.2943C27.1571 59.2943 28.0396 58.7303 28.4022 57.8087L34.17 43.1248C34.6437 41.9211 34.0504 40.5625 32.8468 40.0889C31.6444 39.6164 30.2845 40.2085 29.8121 41.4121L24.043 56.096C23.5706 57.2996 24.1627 58.6595 25.3663 59.1319Z" fill="#458ED3"/>
<path d="M14.065 73.0321H29.8402C31.1329 73.0321 32.1815 71.9835 32.1815 70.6896C32.1815 69.3969 31.1329 68.3483 29.8402 68.3483H14.065C12.7711 68.3483 11.7237 69.3969 11.7237 70.6896C11.7237 71.9835 12.7711 73.0321 14.065 73.0321Z" fill="#458ED3"/>
<path d="M66.1734 68.3483H38.4389C37.1461 68.3483 36.0976 69.3969 36.0976 70.6896C36.0976 71.9835 37.1461 73.0321 38.4389 73.0321H66.1734C67.4673 73.0321 68.5159 71.9835 68.5159 70.6896C68.5159 69.3969 67.4673 68.3483 66.1734 68.3483Z" fill="#458ED3"/>
<path d="M14.065 82.909H20.785C22.0777 82.909 23.1263 81.8604 23.1263 80.5664C23.1263 79.2737 22.0777 78.2251 20.785 78.2251H14.065C12.7711 78.2251 11.7237 79.2737 11.7237 80.5664C11.7237 81.8604 12.7711 82.909 14.065 82.909Z" fill="#458ED3"/>
<path d="M57.6064 78.2251C56.3125 78.2251 55.2651 79.2737 55.2651 80.5664C55.2651 81.8604 56.3125 82.909 57.6064 82.909H61.6983C62.9922 82.909 64.0408 81.8604 64.0408 80.5664C64.0408 79.2737 62.9922 78.2251 61.6983 78.2251H57.6064Z" fill="#458ED3"/>
<path d="M51.443 80.5664C51.443 79.2737 50.3945 78.2251 49.1017 78.2251H29.0015C27.7076 78.2251 26.6602 79.2737 26.6602 80.5664C26.6602 81.8604 27.7076 82.909 29.0015 82.909H49.1017C50.3945 82.909 51.443 81.8604 51.443 80.5664Z" fill="#458ED3"/>
<path d="M66.7825 80.5664C66.7825 81.8604 67.8311 82.909 69.1238 82.909H76.7886C78.0826 82.909 79.1312 81.8604 79.1312 80.5664C79.1312 79.2737 78.0826 78.2251 76.7886 78.2251H69.1238C67.8311 78.2251 66.7825 79.2737 66.7825 80.5664Z" fill="#458ED3"/>
<path d="M54.0297 51.4892H62.1145C63.4084 51.4892 64.457 50.4406 64.457 49.1466C64.457 47.8539 63.4084 46.8053 62.1145 46.8053H54.0297C52.7358 46.8053 51.6872 47.8539 51.6872 49.1466C51.6872 50.4406 52.7358 51.4892 54.0297 51.4892Z" fill="#458ED3"/>
<path d="M71.1697 51.4892H120.5C121.794 51.4892 122.841 50.4406 122.841 49.1466C122.841 47.8539 121.794 46.8053 120.5 46.8053H71.1697C69.8758 46.8053 68.8272 47.8539 68.8272 49.1466C68.8272 50.4406 69.8758 51.4892 71.1697 51.4892Z" fill="#458ED3"/>
<path d="M113.007 57.108H93.0241C91.7314 57.108 90.6828 58.1566 90.6828 59.4506C90.6828 60.7433 91.7314 61.7919 93.0241 61.7919H113.007C114.3 61.7919 115.348 60.7433 115.348 59.4506C115.348 58.1566 114.3 57.108 113.007 57.108Z" fill="#458ED3"/>
<path d="M85.5314 57.108H78.6624C77.3685 57.108 76.3211 58.1566 76.3211 59.4506C76.3211 60.7433 77.3685 61.7919 78.6624 61.7919H85.5314C86.8253 61.7919 87.8727 60.7433 87.8727 59.4506C87.8727 58.1566 86.8253 57.108 85.5314 57.108Z" fill="#458ED3"/>
<path d="M54.0297 61.7919H70.8572C72.1499 61.7919 73.1985 60.7433 73.1985 59.4506C73.1985 58.1566 72.1499 57.108 70.8572 57.108H54.0297C52.7358 57.108 51.6872 58.1566 51.6872 59.4506C51.6872 60.7433 52.7358 61.7919 54.0297 61.7919Z" fill="#458ED3"/>
<path d="M49.1311 88.0188H33.3571C32.0631 88.0188 31.0146 89.0674 31.0146 90.3601C31.0146 91.6528 32.0631 92.7014 33.3571 92.7014H49.1311C50.4238 92.7014 51.4724 91.6528 51.4724 90.3601C51.4724 89.0674 50.4238 88.0188 49.1311 88.0188Z" fill="#458ED3"/>
<path d="M26.1842 88.0188H14.065C12.7711 88.0188 11.7237 89.0674 11.7237 90.3601C11.7237 91.6528 12.7711 92.7014 14.065 92.7014H26.1842C27.4781 92.7014 28.5255 91.6528 28.5255 90.3601C28.5255 89.0674 27.4781 88.0188 26.1842 88.0188Z" fill="#458ED3"/>
<path d="M77.7261 88.0188H57.1194C55.8254 88.0188 54.7781 89.0674 54.7781 90.3601C54.7781 91.6528 55.8254 92.7014 57.1194 92.7014H77.7261C79.0189 92.7014 80.0675 91.6528 80.0675 90.3601C80.0675 89.0674 79.0189 88.0188 77.7261 88.0188Z" fill="#458ED3"/>
<path d="M105.594 75.99H94.3253C93.0326 75.99 91.984 77.0386 91.984 78.3313C91.984 79.6253 93.0326 80.6738 94.3253 80.6738H105.594C106.888 80.6738 107.935 79.6253 107.935 78.3313C107.935 77.0386 106.888 75.99 105.594 75.99Z" fill="#458ED3"/>
<path d="M125.147 80.6738H141.054C142.348 80.6738 143.397 79.6253 143.397 78.3313C143.397 77.0386 142.348 75.99 141.054 75.99H125.147C123.853 75.99 122.806 77.0386 122.806 78.3313C122.806 79.6253 123.854 80.6738 125.147 80.6738Z" fill="#458ED3"/>
<path d="M117.193 75.99H113.548C112.254 75.99 111.205 77.0386 111.205 78.3313C111.205 79.6253 112.254 80.6738 113.548 80.6738H117.193C118.487 80.6738 119.534 79.6253 119.534 78.3313C119.534 77.0386 118.487 75.99 117.193 75.99Z" fill="#458ED3"/>
<path d="M94.3253 106.191H105.594C106.888 106.191 107.935 105.144 107.935 103.85C107.935 102.557 106.888 101.509 105.594 101.509H94.3253C93.0326 101.509 91.984 102.557 91.984 103.85C91.984 105.144 93.0326 106.191 94.3253 106.191Z" fill="#458ED3"/>
<path d="M125.147 106.191H141.054C142.348 106.191 143.397 105.144 143.397 103.85C143.397 102.557 142.348 101.509 141.054 101.509H125.147C123.853 101.509 122.806 102.557 122.806 103.85C122.806 105.144 123.854 106.191 125.147 106.191Z" fill="#458ED3"/>
<path d="M113.548 106.191H117.193C118.487 106.191 119.535 105.144 119.535 103.85C119.535 102.557 118.487 101.509 117.193 101.509H113.548C112.254 101.509 111.206 102.557 111.206 103.85C111.206 105.144 112.254 106.191 113.548 106.191Z" fill="#458ED3"/>
<path d="M105.594 127.028H94.3253C93.0326 127.028 91.984 128.076 91.984 129.369C91.984 130.662 93.0326 131.71 94.3253 131.71H105.594C106.888 131.71 107.935 130.662 107.935 129.369C107.935 128.076 106.888 127.028 105.594 127.028Z" fill="#458ED3"/>
<path d="M141.054 127.028H125.147C123.853 127.028 122.806 128.076 122.806 129.369C122.806 130.662 123.853 131.71 125.147 131.71H141.054C142.348 131.71 143.397 130.662 143.397 129.369C143.397 128.076 142.348 127.028 141.054 127.028Z" fill="#458ED3"/>
<path d="M117.193 127.028H113.548C112.254 127.028 111.205 128.076 111.205 129.369C111.205 130.662 112.254 131.71 113.548 131.71H117.193C118.487 131.71 119.534 130.662 119.534 129.369C119.534 128.076 118.487 127.028 117.193 127.028Z" fill="#458ED3"/>
<path d="M149.695 0.312134H10.3064C4.62405 0.312134 7.62939e-06 4.93496 7.62939e-06 10.6186V123.921C7.62939e-06 129.603 4.62405 134.226 10.3064 134.226H19.1187C20.4115 134.226 21.4601 133.179 21.4601 131.885C21.4601 130.592 20.4115 129.544 19.1187 129.544H10.3064C7.20585 129.544 4.68386 127.022 4.68386 123.921V115.038H89.9955V119.074H88.1388C85.5985 119.074 83.5331 121.139 83.5331 123.679V129.544H33.3559C32.0631 129.544 31.0145 130.592 31.0145 131.885C31.0145 133.179 32.0631 134.226 33.3559 134.226H55.8706V142.625H48.8002C44.0834 142.625 40.2467 146.463 40.2467 151.178V156.237C40.2467 158.389 41.9972 160.139 44.1493 160.139H115.673C117.825 160.139 119.576 158.389 119.576 156.237V151.178C119.576 146.463 115.739 142.625 111.022 142.625H103.952V139.665H147.242C149.781 139.665 151.846 137.599 151.846 135.059V133.956C156.411 132.897 159.822 128.801 159.822 123.921L159.999 10.6174C160.001 4.93496 155.378 0.312134 149.695 0.312134ZM88.2169 109.463V98.2386H147.164V109.463H88.2169ZM94.6781 93.5547V88.6279H140.701V93.5547H94.6781ZM140.701 114.146V119.074H94.6781V114.146H140.701ZM60.5532 134.226H83.5331V135.06C83.5331 137.599 85.5985 139.665 88.1388 139.665H99.2692V142.625H60.5532V134.226ZM111.023 147.309C113.157 147.309 114.893 149.044 114.893 151.178V155.457H44.9294V151.178C44.9294 149.044 46.6665 147.309 48.8002 147.309H111.023ZM147.164 134.981H88.2169V123.757H147.164V134.981ZM155.14 123.921C155.14 126.189 153.787 128.143 151.848 129.031V123.678C151.848 121.139 149.781 119.074 147.242 119.074H145.385V115.038H155.14V123.921ZM155.14 110.355H151.771C151.818 110.09 151.848 98.1604 151.848 98.1604C151.848 95.6201 149.781 93.5547 147.242 93.5547H145.385V88.6279H147.242C149.781 88.6279 151.848 86.5613 151.848 84.0222V72.6415C151.848 70.1025 149.781 68.0358 147.242 68.0358H134.015C132.721 68.0358 131.674 69.0844 131.674 70.3783C131.674 71.6711 132.721 72.7197 134.015 72.7197H147.164V83.9441H88.2169V72.7197H119.445C120.739 72.7197 121.786 71.6711 121.786 70.3783C121.786 69.0844 120.739 68.0358 119.445 68.0358H88.1388C85.5985 68.0358 83.5331 70.1025 83.5331 72.6415V84.0222C83.5331 86.5613 85.5985 88.6279 88.1388 88.6279H89.9955V93.5547H88.1388C85.5985 93.5547 83.5331 95.6214 83.5331 98.1604C83.5331 98.1604 83.5623 110.09 83.61 110.355H4.68386V32.1653H155.14V110.355ZM155.14 27.4814H4.85598V10.6174C4.85598 7.51797 7.37797 4.99599 10.4786 4.99599H149.517C152.618 4.99599 155.14 7.51797 155.14 10.6186V27.4814Z" fill="black"/>
<path d="M17.2693 9.30029C13.4802 9.30029 10.398 12.3826 10.398 16.1717C10.398 19.9607 13.4802 23.0442 17.2693 23.0442C21.0584 23.0442 24.1419 19.9607 24.1419 16.1717C24.1419 12.3826 21.0584 9.30029 17.2693 9.30029ZM17.2693 18.3604C16.0633 18.3604 15.0806 17.3789 15.0806 16.1717C15.0806 14.9656 16.0633 13.9829 17.2693 13.9829C18.4766 13.9829 19.458 14.9656 19.458 16.1717C19.458 17.3789 18.4766 18.3604 17.2693 18.3604Z" fill="#458ED3"/>
<path d="M34.7657 9.30029C30.9767 9.30029 27.8931 12.3826 27.8931 16.1717C27.8931 19.9607 30.9767 23.0442 34.7657 23.0442C38.5548 23.0442 41.6371 19.9607 41.6371 16.1717C41.6371 12.3826 38.5536 9.30029 34.7657 9.30029ZM34.7657 18.3604C33.5585 18.3604 32.577 17.3789 32.577 16.1717C32.577 14.9656 33.5585 13.9829 34.7657 13.9829C35.9718 13.9829 36.9545 14.9656 36.9545 16.1717C36.9545 17.3789 35.9718 18.3604 34.7657 18.3604Z" fill="#458ED3"/>
<path d="M52.2609 9.30029C48.4718 9.30029 45.3896 12.3826 45.3896 16.1717C45.3896 19.9607 48.4718 23.0442 52.2609 23.0442C56.05 23.0442 59.1335 19.9607 59.1335 16.1717C59.1335 12.3826 56.05 9.30029 52.2609 9.30029ZM52.2609 18.3604C51.0549 18.3604 50.0722 17.3789 50.0722 16.1717C50.0722 14.9656 51.0549 13.9829 52.2609 13.9829C53.4682 13.9829 54.4496 14.9656 54.4496 16.1717C54.4496 17.3789 53.4682 18.3604 52.2609 18.3604Z" fill="#458ED3"/>
</g>
<defs>
<clipPath id="clip0">
<rect width="160" height="160" fill="white"/>
</clipPath>
</defs>
</svg>
