<svg width="69" height="80" viewBox="0 0 69 80" fill="none" xmlns="http://www.w3.org/2000/svg">
<g clip-path="url(#clip0)">
<path d="M6.34193 71.9093L-0.00375366 0.00537109L68.359 0.0328149L62.0666 71.8544L34.1243 79.9779L6.34193 71.9093ZM56.9207 67.9848L62.2266 6.39988H34.2309L34.4442 74.3244L56.9207 67.9848ZM31.618 15.429H24.8191L24.7391 52.2867L11.5411 48.5817L11.5678 57.0071L31.618 62.5783V15.429Z" fill="#D0D0D0"/>
<path d="M34.2319 6.37109H62.2276L56.9217 67.956L34.2319 74.2956V6.37109ZM55.482 57.637L57.3217 34.6112L43.7238 36.1756V23.8805L58.2282 23.8256L58.8148 15.4277L36.9248 15.5375L37.2181 46.1104L50.4427 43.7776L50.2561 50.5838L36.9248 54.2339L37.0582 62.5769L55.482 57.637Z" fill="#D0D0D0"/>
</g>
<defs>
<clipPath id="clip0">
<rect width="68.3636" height="80" fill="white"/>
</clipPath>
</defs>
</svg>
