<svg width="44" height="80" viewBox="0 0 44 80" fill="none" xmlns="http://www.w3.org/2000/svg">
<g clip-path="url(#clip0)">
<path d="M41.7981 63.0831H41.4924V62.9145H42.3156V63.0831H42.0117V63.9243H41.7981V63.0831ZM43.4398 63.127H43.435L43.132 63.9246H42.9933L42.6923 63.127H42.6887V63.9246H42.4872V62.9148H42.7837L43.0628 63.6298L43.341 62.9148H43.6364V63.9246H43.4397L43.4398 63.127Z" fill="#D0D0D0"/>
<path d="M14.4271 42.4359C14.4271 42.4359 12.2998 43.6552 15.941 44.0677C20.3522 44.5637 22.6067 44.4926 27.4679 43.5858C27.4679 43.5858 28.746 44.3756 30.5308 45.0597C19.6333 49.6629 5.86766 44.7931 14.4271 42.4359ZM13.0954 36.429C13.0954 36.429 10.7095 38.1697 14.3534 38.5412C19.0656 39.0203 22.7869 39.0595 29.2262 37.8374C29.2262 37.8374 30.117 38.7273 31.5175 39.214C18.3416 43.0113 3.66625 39.5135 13.0954 36.429Z" fill="#D0D0D0"/>
<path d="M24.3214 26.2393C27.0065 29.2862 23.6161 32.0282 23.6161 32.0282C23.6161 32.0282 30.4338 28.5592 27.3027 24.2152C24.3783 20.164 22.1356 18.1514 34.2765 11.2115C34.2767 11.2113 15.2193 15.9024 24.3214 26.2393Z" fill="#D0D0D0"/>
<path d="M38.7342 46.879C38.7342 46.879 40.3084 48.1575 37.0005 49.1464C30.7103 51.0245 10.8201 51.5916 5.29464 49.2214C3.30839 48.3696 7.03317 47.1877 8.20484 46.9397C9.42678 46.6786 10.1251 46.7272 10.1251 46.7272C7.91616 45.1936 -4.15241 49.7385 3.99483 51.0403C26.2136 54.5917 44.4976 49.4411 38.7342 46.879ZM15.45 30.2051C15.45 30.2051 5.3326 32.5736 11.8672 33.4336C14.6263 33.7977 20.1265 33.7154 25.2497 33.2923C29.4367 32.9442 33.6412 32.2042 33.6412 32.2042C33.6412 32.2042 32.1648 32.8273 31.0966 33.546C20.8226 36.2094 0.974952 34.9703 6.68883 32.2462C11.5211 29.944 15.45 30.2051 15.45 30.2051ZM33.5995 40.2039C44.0436 34.8549 39.2148 29.7144 35.8441 30.4071C35.018 30.5766 34.6496 30.7234 34.6496 30.7234C34.6496 30.7234 34.9565 30.2499 35.5419 30.045C42.2099 27.7345 47.338 36.8595 33.3894 40.4737C33.3894 40.4737 33.5513 40.3314 33.5995 40.2039Z" fill="#D0D0D0"/>
<path d="M27.3027 0.00531006C27.3027 0.00531006 33.0868 5.70789 21.8168 14.4772C12.7793 21.5115 19.7559 25.5223 21.813 30.1049C16.5379 25.4137 12.6665 21.2843 15.2637 17.4409C19.0757 11.7991 29.6365 9.06374 27.3027 0.00531006Z" fill="#D0D0D0"/>
<path d="M16.4763 54.6984C26.5014 55.3309 41.8959 54.3475 42.2603 49.6724C42.2603 49.6724 41.5597 51.4446 33.9752 52.8523C25.4188 54.4392 14.8654 54.2541 8.60608 53.2369C8.60638 53.2366 9.88758 54.282 16.4763 54.6984Z" fill="#D0D0D0"/>
<path d="M14.8334 72.5629C13.8877 73.3714 12.8888 73.8252 11.9925 73.8252C10.7131 73.8252 10.0219 73.0691 10.0219 71.8563C10.0219 70.5445 10.7626 69.5853 13.7337 69.5853H14.8332L14.8334 72.5629ZM17.4429 75.4647V66.4822C17.4429 64.1874 16.115 62.6734 12.9135 62.6734C11.0444 62.6734 9.40714 63.1282 8.07642 63.7084L8.46053 65.2984C9.50827 64.9194 10.8645 64.5665 12.1957 64.5665C14.04 64.5665 14.8334 65.2984 14.8334 66.8115V67.9469H13.9129C9.4319 67.9469 7.41054 69.6613 7.41054 72.2344C7.41054 74.4553 8.74261 75.7176 11.2507 75.7176C12.8629 75.7176 14.0664 75.0615 15.1914 74.1014L15.3956 75.465L17.4429 75.4647ZM26.1518 75.4647H22.8972L18.9802 62.9008H21.8226L24.253 70.62L24.7933 72.9416C26.0229 69.585 26.8927 66.1796 27.3276 62.9008H30.0924C29.3515 67.0379 28.0186 71.579 26.1518 75.4647ZM38.6373 72.5629C37.6898 73.3714 36.6893 73.8252 35.7928 73.8252C34.5157 73.8252 33.8226 73.0691 33.8226 71.8563C33.8226 70.5445 34.5649 69.5853 37.5358 69.5853H38.6373V72.5629ZM41.2465 75.4647V66.4822C41.2465 64.1874 39.9155 62.6734 36.7174 62.6734C34.8471 62.6734 33.2092 63.1282 31.8791 63.7084L32.2628 65.2984C33.3108 64.9194 34.6696 64.5665 35.9997 64.5665C37.8427 64.5665 38.6373 65.2984 38.6373 66.8115V67.9469H37.7151C33.233 67.9469 31.2123 69.6613 31.2123 72.2344C31.2123 74.4553 32.5434 75.7176 35.051 75.7176C36.6642 75.7176 37.8673 75.0615 38.9941 74.1014L39.199 75.465L41.2465 75.4647ZM4.54925 77.5982C3.80535 78.6687 2.60382 79.5156 1.2884 79.9948L0 78.5004C1.00123 77.9941 1.85991 77.1763 2.25887 76.4147C2.60397 75.7373 2.74681 74.8642 2.74681 72.7763V58.4326H5.51927V72.5797C5.51912 75.371 5.29271 76.4986 4.54925 77.5982Z" fill="#D0D0D0"/>
</g>
<defs>
<clipPath id="clip0">
<rect width="43.6364" height="80" fill="white"/>
</clipPath>
</defs>
</svg>
