<svg width="48" height="48" viewBox="0 0 48 48" fill="none" xmlns="http://www.w3.org/2000/svg">
<path d="M25.1249 11.2285C28.2257 11.2285 30.7393 8.71494 30.7393 5.61427C30.7393 2.51359 28.2257 0 25.1249 0C22.0241 0 19.5104 2.51359 19.5104 5.61427C19.5104 8.71494 22.0241 11.2285 25.1249 11.2285Z" fill="#D0D0D0"/>
<path d="M25.1249 47.9999C26.9852 47.9999 28.4932 46.492 28.4932 44.6317C28.4932 42.7715 26.9852 41.2635 25.1249 41.2635C23.2646 41.2635 21.7566 42.7715 21.7566 44.6317C21.7566 46.492 23.2646 47.9999 25.1249 47.9999Z" fill="#D0D0D0"/>
<path d="M11.329 16.3801C14.1199 16.3801 16.3824 14.1177 16.3824 11.3269C16.3824 8.53608 14.1199 6.27368 11.329 6.27368C8.53812 6.27368 6.27563 8.53608 6.27563 11.3269C6.27563 14.1177 8.53812 16.3801 11.329 16.3801Z" fill="#D0D0D0"/>
<path d="M38.9206 41.7227C40.471 41.7227 41.7279 40.4659 41.7279 38.9155C41.7279 37.3652 40.471 36.1084 38.9206 36.1084C37.3702 36.1084 36.1134 37.3652 36.1134 38.9155C36.1134 40.4659 37.3702 41.7227 38.9206 41.7227Z" fill="#D0D0D0"/>
<path d="M5.61439 29.6143C8.09443 29.6143 10.1049 27.6039 10.1049 25.124C10.1049 22.6441 8.09443 20.6337 5.61439 20.6337C3.13436 20.6337 1.1239 22.6441 1.1239 25.124C1.1239 27.6039 3.13436 29.6143 5.61439 29.6143Z" fill="#D0D0D0"/>
<path d="M44.6334 27.3663C45.8729 27.3663 46.8777 26.3615 46.8777 25.1221C46.8777 23.8826 45.8729 22.8778 44.6334 22.8778C43.3939 22.8778 42.389 23.8826 42.389 25.1221C42.389 26.3615 43.3939 27.3663 44.6334 27.3663Z" fill="#D0D0D0"/>
<path d="M8.55094 36.1411C7.01525 37.6767 7.01525 40.1614 8.55094 41.6971C10.0848 43.2327 12.5733 43.2327 14.1071 41.6971C15.6428 40.1614 15.6428 37.6767 14.1071 36.1411C12.5733 34.6037 10.0866 34.5891 8.55094 36.1411Z" fill="#D0D0D0"/>
<path d="M38.9187 13.0101C39.8484 13.0101 40.602 12.2565 40.602 11.3269C40.602 10.3973 39.8484 9.64368 38.9187 9.64368C37.9891 9.64368 37.2355 10.3973 37.2355 11.3269C37.2355 12.2565 37.9891 13.0101 38.9187 13.0101Z" fill="#D0D0D0"/>
</svg>
