<svg width="80" height="80" viewBox="0 0 80 80" fill="none" xmlns="http://www.w3.org/2000/svg">
<path d="M43.75 48.75H36.25C35.9185 48.75 35.6005 48.6183 35.3661 48.3839C35.1317 48.1495 35 47.8315 35 47.5V42.8088C34.82 42.7375 34.6462 42.665 34.4762 42.5913L31.1588 45.9088C30.9244 46.1432 30.6065 46.2749 30.275 46.275C29.9435 46.2749 29.6256 46.1432 29.3913 45.9088L24.0913 40.6087C23.8569 40.3743 23.7253 40.0565 23.7253 39.725C23.7253 39.3935 23.8569 39.0757 24.0913 38.8412L27.4088 35.5225C27.3338 35.3537 27.2625 35.18 27.1913 35H22.5C22.1685 35 21.8505 34.8683 21.6161 34.6339C21.3817 34.3995 21.25 34.0815 21.25 33.75V26.25C21.25 25.9185 21.3817 25.6005 21.6161 25.3661C21.8505 25.1317 22.1685 25 22.5 25H27.1913C27.2625 24.82 27.3338 24.6462 27.4088 24.4762L24.0913 21.1588C23.8569 20.9243 23.7253 20.6065 23.7253 20.275C23.7253 19.9435 23.8569 19.6257 24.0913 19.3912L29.3913 14.0912C29.6301 13.8654 29.9463 13.7396 30.275 13.7396C30.6037 13.7396 30.9199 13.8654 31.1588 14.0912L34.4762 17.4088C34.6462 17.335 34.82 17.2625 35 17.1913V12.5C35 12.1685 35.1317 11.8505 35.3661 11.6161C35.6005 11.3817 35.9185 11.25 36.25 11.25H43.75C44.0815 11.25 44.3995 11.3817 44.6339 11.6161C44.8683 11.8505 45 12.1685 45 12.5V17.1913C45.18 17.2625 45.3537 17.335 45.5237 17.4088L48.8413 14.0912C49.0756 13.8568 49.3935 13.7251 49.725 13.725C50.0565 13.7251 50.3744 13.8568 50.6087 14.0912L55.9088 19.3912C56.1431 19.6257 56.2747 19.9435 56.2747 20.275C56.2747 20.6065 56.1431 20.9243 55.9088 21.1588L52.5913 24.4762C52.6663 24.6462 52.7375 24.82 52.8088 25H57.5C57.8315 25 58.1495 25.1317 58.3839 25.3661C58.6183 25.6005 58.75 25.9185 58.75 26.25V33.75C58.75 34.0815 58.6183 34.3995 58.3839 34.6339C58.1495 34.8683 57.8315 35 57.5 35H52.8088C52.7375 35.18 52.6663 35.3537 52.5913 35.5225L55.9088 38.8412C56.1431 39.0757 56.2747 39.3935 56.2747 39.725C56.2747 40.0565 56.1431 40.3743 55.9088 40.6087L50.6087 45.9088C50.3699 46.1346 50.0537 46.2604 49.725 46.2604C49.3963 46.2604 49.0801 46.1346 48.8413 45.9088L45.5237 42.5913C45.3537 42.665 45.18 42.7375 45 42.8088V47.5C45 47.8315 44.8683 48.1495 44.6339 48.3839C44.3995 48.6183 44.0815 48.75 43.75 48.75ZM37.5 46.25H42.5V41.925C42.4999 41.6605 42.5837 41.4028 42.7394 41.189C42.8951 40.9751 43.1145 40.8162 43.3663 40.735C43.9918 40.5419 44.5971 40.2886 45.1737 39.9788C45.4109 39.8487 45.6839 39.7992 45.9517 39.8375C46.2194 39.8758 46.4675 39.9999 46.6587 40.1912L49.725 43.2575L53.2562 39.725L50.1912 36.6587C50.0002 36.4676 49.8762 36.2198 49.8379 35.9523C49.7996 35.6848 49.849 35.4121 49.9788 35.175C50.2878 34.5979 50.541 33.9927 50.735 33.3675C50.816 33.1156 50.9748 32.8958 51.1887 32.7399C51.4025 32.584 51.6604 32.5 51.925 32.5H56.25V27.5H51.925C51.6604 27.5 51.4025 27.416 51.1887 27.2601C50.9748 27.1042 50.816 26.8844 50.735 26.6325C50.541 26.0073 50.2878 25.4021 49.9788 24.825C49.849 24.5879 49.7996 24.3152 49.8379 24.0477C49.8762 23.7802 50.0002 23.5324 50.1912 23.3413L53.2562 20.275L49.725 16.7425L46.6587 19.8088C46.4675 20.0001 46.2194 20.1242 45.9517 20.1625C45.6839 20.2008 45.4109 20.1513 45.1737 20.0212C44.5968 19.7136 43.9915 19.4624 43.3663 19.2712C43.1135 19.1897 42.8933 19.0298 42.7376 18.8147C42.5818 18.5997 42.4986 18.3406 42.5 18.075V13.75H37.5V18.075C37.5001 18.3395 37.4163 18.5972 37.2606 18.811C37.1049 19.0249 36.8855 19.1838 36.6337 19.265C36.0085 19.4561 35.4032 19.7073 34.8263 20.015C34.5891 20.145 34.3161 20.1946 34.0483 20.1563C33.7806 20.118 33.5325 19.9938 33.3413 19.8025L30.275 16.7425L26.75 20.275L29.815 23.3413C30.006 23.5324 30.13 23.7802 30.1683 24.0477C30.2066 24.3152 30.1572 24.5879 30.0275 24.825C29.7184 25.4021 29.4652 26.0073 29.2712 26.6325C29.1899 26.8855 29.0301 27.106 28.815 27.2619C28.5999 27.4179 28.3407 27.5013 28.075 27.5H23.75V32.5H28.075C28.3396 32.5 28.5975 32.584 28.8113 32.7399C29.0252 32.8958 29.184 33.1156 29.265 33.3675C29.459 33.9927 29.7122 34.5979 30.0212 35.175C30.151 35.4121 30.2004 35.6848 30.1621 35.9523C30.1238 36.2198 29.9998 36.4676 29.8088 36.6587L26.75 39.725L30.2812 43.2575L33.3475 40.1912C33.5387 39.9999 33.7868 39.8758 34.0546 39.8375C34.3223 39.7992 34.5953 39.8487 34.8325 39.9788C35.4092 40.2886 36.0145 40.5419 36.64 40.735C36.8906 40.8173 37.1087 40.9767 37.2631 41.1904C37.4176 41.4042 37.5005 41.6613 37.5 41.925V46.25Z" fill="#458ED3"/>
<path d="M40 37.5C38.5166 37.5 37.0666 37.0601 35.8332 36.236C34.5999 35.4119 33.6386 34.2406 33.0709 32.8701C32.5032 31.4997 32.3547 29.9917 32.6441 28.5368C32.9335 27.082 33.6478 25.7456 34.6967 24.6967C35.7456 23.6478 37.082 22.9335 38.5368 22.6441C39.9917 22.3547 41.4997 22.5032 42.8701 23.0709C44.2406 23.6386 45.4119 24.5999 46.236 25.8332C47.0601 27.0666 47.5 28.5166 47.5 30C47.498 31.9885 46.7072 33.895 45.3011 35.3011C43.895 36.7072 41.9885 37.498 40 37.5ZM40 25C39.0111 25 38.0444 25.2932 37.2222 25.8427C36.3999 26.3921 35.759 27.173 35.3806 28.0866C35.0022 29.0002 34.9032 30.0055 35.0961 30.9755C35.289 31.9454 35.7652 32.8363 36.4645 33.5355C37.1637 34.2348 38.0546 34.711 39.0246 34.9039C39.9945 35.0969 40.9998 34.9978 41.9134 34.6194C42.8271 34.241 43.6079 33.6001 44.1573 32.7779C44.7068 31.9556 45 30.9889 45 30C45 28.6739 44.4732 27.4022 43.5355 26.4645C42.5979 25.5268 41.3261 25 40 25Z" fill="#458ED3"/>
<path d="M70 57.5C70.3315 57.5 70.6495 57.3683 70.8839 57.1339C71.1183 56.8995 71.25 56.5815 71.25 56.25V3.75C71.25 3.41848 71.1183 3.10054 70.8839 2.86612C70.6495 2.6317 70.3315 2.5 70 2.5H16.25C14.2615 2.50199 12.355 3.2928 10.9489 4.69889C9.5428 6.10498 8.75199 8.01149 8.75 10V62.5C8.75199 64.4885 9.5428 66.395 10.9489 67.8011C12.355 69.2072 14.2615 69.998 16.25 70H20V76.25C20.0001 76.4972 20.0734 76.7388 20.2107 76.9443C20.3481 77.1498 20.5433 77.31 20.7717 77.4046C21.0001 77.4992 21.2513 77.5239 21.4938 77.4757C21.7362 77.4275 21.9589 77.3085 22.1338 77.1337L26.25 73.0175L30.3662 77.1337C30.5411 77.3085 30.7638 77.4275 31.0062 77.4757C31.2487 77.5239 31.4999 77.4992 31.7283 77.4046C31.9567 77.31 32.1519 77.1498 32.2893 76.9443C32.4266 76.7388 32.4999 76.4972 32.5 76.25V70H70C70.3315 70 70.6495 69.8683 70.8839 69.6339C71.1183 69.3995 71.25 69.0815 71.25 68.75C71.25 68.4185 71.1183 68.1005 70.8839 67.8661C70.6495 67.6317 70.3315 67.5 70 67.5C68.6739 67.5 67.4021 66.9732 66.4645 66.0355C65.5268 65.0978 65 63.8261 65 62.5C65 61.1739 65.5268 59.9021 66.4645 58.9645C67.4021 58.0268 68.6739 57.5 70 57.5ZM30 73.2325L27.1338 70.3662C26.8993 70.1319 26.5815 70.0003 26.25 70.0003C25.9185 70.0003 25.6007 70.1319 25.3662 70.3662L22.5 73.2325V63.75H30V73.2325ZM64.425 67.5H32.5V63.75H58.75C59.0815 63.75 59.3995 63.6183 59.6339 63.3839C59.8683 63.1495 60 62.8315 60 62.5C60 62.1685 59.8683 61.8505 59.6339 61.6161C59.3995 61.3817 59.0815 61.25 58.75 61.25H15C14.6685 61.25 14.3505 61.3817 14.1161 61.6161C13.8817 61.8505 13.75 62.1685 13.75 62.5C13.75 62.8315 13.8817 63.1495 14.1161 63.3839C14.3505 63.6183 14.6685 63.75 15 63.75H20V67.5H16.25C14.9239 67.5 13.6521 66.9732 12.7145 66.0355C11.7768 65.0978 11.25 63.8261 11.25 62.5C11.25 61.1739 11.7768 59.9021 12.7145 58.9645C13.6521 58.0268 14.9239 57.5 16.25 57.5H64.425C63.186 58.8706 62.5001 60.6524 62.5001 62.5C62.5001 64.3476 63.186 66.1294 64.425 67.5ZM16.25 55C14.4045 55.0001 12.624 55.6816 11.25 56.9137V10C11.25 8.67392 11.7768 7.40215 12.7145 6.46447C13.6521 5.52678 14.9239 5 16.25 5H68.75V55H16.25Z" fill="black"/>
</svg>
