<svg width="130" height="80" viewBox="0 0 130 80" fill="none" xmlns="http://www.w3.org/2000/svg">
<g clip-path="url(#clip0)">
<path d="M63.9755 79.7691C63.5376 79.7691 63.1287 79.6514 62.7488 79.4453L58.8642 77.1192C58.2799 76.7951 58.572 76.6774 58.7474 76.6186C59.5359 76.3536 59.682 76.2945 60.4998 75.8237C60.5875 75.7646 60.7045 75.7941 60.792 75.853L63.7713 77.6492C63.8881 77.708 64.0342 77.708 64.1216 77.6492L75.776 70.8471C75.8927 70.7883 75.9514 70.6703 75.9514 70.5233V56.9488C75.9514 56.8013 75.8927 56.6838 75.776 56.6247L64.1216 49.8522C64.0048 49.7931 63.8588 49.7931 63.7713 49.8522L52.117 56.6247C52.0002 56.6835 51.9416 56.8308 51.9416 56.9485V70.523C51.9416 70.641 52.0002 70.788 52.117 70.8471L55.3008 72.7021C57.0241 73.5855 58.1048 72.5549 58.1048 71.5243V58.1263C58.1048 57.9498 58.2508 57.773 58.4553 57.773H59.9448C60.1202 57.773 60.2954 57.9202 60.2954 58.1263V71.5243C60.2954 73.8504 59.0393 75.2051 56.8487 75.2051C56.177 75.2051 55.6513 75.2051 54.1615 74.4688L51.0947 72.7021C50.3353 72.2606 49.868 71.4359 49.868 70.5526V56.9781C49.868 56.0948 50.3353 55.27 51.0947 54.8285L62.7488 48.0265C63.4792 47.6142 64.4724 47.6142 65.2025 48.0265L76.8566 54.8285C77.6161 55.27 78.0836 56.0948 78.0836 56.9781V70.5526C78.0836 71.4359 77.6161 72.2606 76.8566 72.7021L65.2025 79.5042C64.8227 79.681 64.3847 79.7691 63.9758 79.7691H63.9755ZM67.5683 70.4349C62.4569 70.4349 61.4053 68.0792 61.4053 66.0769C61.4053 65.9001 61.5514 65.7235 61.7559 65.7235H63.2747C63.4499 65.7235 63.5959 65.8413 63.5959 66.0181C63.8297 67.5786 64.5014 68.3442 67.5976 68.3442C70.051 68.3442 71.1029 67.7847 71.1029 66.4596C71.1029 65.694 70.8105 65.1348 66.9842 64.7518C63.8004 64.4277 61.8142 63.7212 61.8142 61.1595C61.8142 58.7742 63.8006 57.3607 67.1303 57.3607C70.8688 57.3607 72.7092 58.6565 72.9429 61.483C72.9429 61.5717 72.9136 61.6598 72.8552 61.7483C72.7966 61.8071 72.7092 61.866 72.6215 61.866H71.1026C70.9565 61.866 70.8105 61.7483 70.7814 61.601C70.4309 59.9816 69.5253 59.4514 67.1303 59.4514C64.4431 59.4514 64.1216 60.3939 64.1216 61.1004C64.1216 61.9544 64.5015 62.2193 68.1232 62.6904C71.716 63.1618 73.4102 63.839 73.4102 66.3712C73.3809 68.9625 71.278 70.4349 67.5683 70.4349Z" fill="#D0D0D0"/>
<path d="M27.8177 26.6782C27.8177 26.1482 27.5255 25.6473 27.0582 25.3824L14.6737 18.1977C14.469 18.0797 14.2355 18.0208 14.002 17.9913H13.885C13.6515 17.9913 13.4177 18.0797 13.2133 18.1977L0.828771 25.3824C0.361232 25.6473 0.0693359 26.148 0.0693359 26.6782L0.0986519 45.9946C0.0986519 46.2596 0.244726 46.5245 0.478243 46.6425C0.712013 46.7898 1.00391 46.7898 1.20862 46.6425L8.5692 42.4022C9.03648 42.1373 9.32863 41.6366 9.32863 41.1067V32.0667C9.32863 31.5368 9.62053 31.0361 10.0881 30.7712L13.2133 28.9454C13.447 28.7982 13.7099 28.7391 13.9727 28.7391C14.2355 28.7391 14.4984 28.7982 14.7031 28.9454L17.8282 30.7712C18.2958 31.0361 18.5877 31.5365 18.5877 32.0667V41.1067C18.5877 41.6366 18.8798 42.1373 19.3471 42.4022L26.7077 46.6425C26.9415 46.7898 27.2334 46.7898 27.4671 46.6425C27.7009 46.5245 27.847 46.2596 27.847 45.9946L27.8177 26.6782ZM87.345 0.0883493C87.1115 -0.0296125 86.8193 -0.0296125 86.6146 0.0883493C86.3811 0.23561 86.235 0.471025 86.235 0.735993V19.8761C86.235 20.0527 86.1476 20.2292 85.9722 20.3472C85.7971 20.4354 85.6217 20.4354 85.4465 20.3472L82.3504 18.551C82.1234 18.4207 81.8667 18.3522 81.6055 18.3522C81.3443 18.3522 81.0876 18.4207 80.8606 18.551L68.4761 25.7653C68.0088 26.0303 67.7167 26.5309 67.7167 27.0608V41.4598C67.7167 41.9898 68.0088 42.4906 68.4761 42.7556L80.8606 49.9699C81.0876 50.1002 81.3443 50.1687 81.6055 50.1687C81.8667 50.1687 82.1234 50.1002 82.3504 49.9699L94.7349 42.7556C95.2022 42.4906 95.4943 41.99 95.4943 41.4598V5.56529C95.4943 5.0058 95.2022 4.50542 94.7349 4.2402L87.3453 0.0883493H87.345ZM86.206 36.7192C86.206 36.8664 86.1476 36.9841 86.0306 37.043L81.7954 39.5164C81.7363 39.5455 81.6713 39.5606 81.6055 39.5606C81.5397 39.5606 81.4747 39.5455 81.4156 39.5164L77.1805 37.043C77.0634 36.9841 77.0051 36.8369 77.0051 36.7192V31.7722C77.0051 31.6249 77.0634 31.5072 77.1805 31.4484L81.4156 28.9747C81.4747 28.9456 81.5397 28.9305 81.6055 28.9305C81.6713 28.9305 81.7363 28.9456 81.7954 28.9747L86.0306 31.4484C86.1476 31.507 86.206 31.6545 86.206 31.7722V36.7192ZM128.558 31.6545C129.026 31.3895 129.289 30.8889 129.289 30.3587V26.8547C129.289 26.3248 128.997 25.8242 128.558 25.5592L116.262 18.3745C116.035 18.2442 115.778 18.1757 115.517 18.1757C115.256 18.1757 114.999 18.2442 114.772 18.3745L102.388 25.5885C101.92 25.8534 101.628 26.3541 101.628 26.8843V41.2833C101.628 41.8132 101.92 42.3138 102.388 42.5788L114.684 49.6458C115.152 49.9108 115.707 49.9108 116.145 49.6458L123.593 45.4649C123.827 45.347 123.973 45.082 123.973 44.817C123.973 44.552 123.827 44.2871 123.593 44.1691L111.15 36.9548C110.917 36.8078 110.77 36.5722 110.77 36.3072V31.802C110.77 31.537 110.917 31.272 111.15 31.1541L115.035 28.9161C115.149 28.844 115.28 28.8057 115.415 28.8057C115.549 28.8057 115.681 28.844 115.794 28.9161L119.679 31.1541C119.913 31.3013 120.059 31.5368 120.059 31.802V35.3355C120.059 35.6005 120.205 35.8654 120.438 35.9831C120.672 36.1304 120.964 36.1304 121.198 35.9831L128.558 31.6545Z" fill="#D0D0D0"/>
<path d="M115.325 30.9773C115.368 30.9485 115.419 30.9332 115.471 30.9332C115.523 30.9332 115.573 30.9485 115.617 30.9773L117.983 32.3612C118.07 32.4198 118.129 32.5082 118.129 32.6262V35.3941C118.129 35.5118 118.07 35.6002 117.983 35.6591L115.617 37.043C115.573 37.0718 115.523 37.0871 115.471 37.0871C115.419 37.0871 115.368 37.0718 115.325 37.043L112.959 35.6591C112.871 35.6002 112.813 35.5118 112.813 35.3941V32.6262C112.813 32.5082 112.871 32.4198 112.959 32.3612L115.325 30.9773Z" fill="#D0D0D0"/>
<mask id="mask0" mask-type="alpha" maskUnits="userSpaceOnUse" x="34" y="18" width="28" height="32">
<path d="M48.5243 18.4333C48.2974 18.3031 48.0407 18.2346 47.7796 18.2346C47.5184 18.2346 47.2617 18.3031 47.0348 18.4333L34.738 25.5883C34.2705 25.8532 34.0076 26.3539 34.0076 26.8838V41.2242C34.0076 41.7541 34.2998 42.2548 34.738 42.5197L47.0348 49.6751C47.2617 49.8054 47.5184 49.8739 47.7796 49.8739C48.0407 49.8739 48.2974 49.8054 48.5243 49.6751L60.8214 42.5197C61.2887 42.2548 61.5517 41.7541 61.5517 41.2242V26.884C61.5517 26.3541 61.2593 25.8535 60.8214 25.5885L48.5243 18.4333Z" fill="white"/>
</mask>
<g mask="url(#mask0)">
<path d="M48.5243 18.4333C48.2974 18.3031 48.0407 18.2346 47.7796 18.2346C47.5184 18.2346 47.2617 18.3031 47.0348 18.4333L34.738 25.5883C34.2705 25.8532 34.0076 26.3539 34.0076 26.8838V41.2242C34.0076 41.7541 34.2998 42.2548 34.738 42.5197L47.0348 49.6751C47.2617 49.8054 47.5184 49.8739 47.7796 49.8739C48.0407 49.8739 48.2974 49.8054 48.5243 49.6751L60.8214 42.5197C61.2887 42.2548 61.5517 41.7541 61.5517 41.2242V26.884C61.5517 26.3541 61.2593 25.8535 60.8214 25.5885L48.5243 18.4333Z" fill="#D0D0D0"/>
<path d="M60.8504 25.5885L48.4953 18.4333C48.3739 18.3715 48.2466 18.3222 48.1154 18.2861L34.2704 42.1964C34.3851 42.3375 34.5236 42.4572 34.6796 42.5497L47.0348 49.7052C47.3853 49.9113 47.7942 49.9701 48.1738 49.8522L61.1719 25.8833C61.0842 25.7655 60.9672 25.6769 60.8504 25.5887V25.5885Z" fill="#D0D0D0"/>
<path fill-rule="evenodd" clip-rule="evenodd" d="M60.8798 42.5199C61.2303 42.3138 61.4931 41.9605 61.6101 41.5778L48.0568 18.2565C47.7063 18.1977 47.3264 18.227 47.0055 18.4331L34.7377 25.5592L47.9691 49.8815C48.1615 49.8497 48.3484 49.7903 48.5241 49.7049L60.8795 42.5202L60.8798 42.5199Z" fill="#D0D0D0"/>
<path fill-rule="evenodd" clip-rule="evenodd" d="M60.8798 42.5199L48.5537 49.6753C48.3797 49.7648 48.1921 49.8244 47.9987 49.8519L48.2325 50.2937L61.9021 42.3141V42.1372L61.5515 41.5482C61.4932 41.9604 61.2303 42.3138 60.8798 42.5199Z" fill="#D0D0D0"/>
<path fill-rule="evenodd" clip-rule="evenodd" d="M60.8798 42.5199L48.5537 49.6753C48.3797 49.7648 48.1921 49.8244 47.9987 49.8519L48.2325 50.2937L61.9021 42.3141V42.1372L61.5515 41.5482C61.4932 41.9604 61.2303 42.3138 60.8798 42.5199Z" fill="#D0D0D0"/>
</g>
</g>
<defs>
<clipPath id="clip0">
<rect width="129.412" height="80" fill="white"/>
</clipPath>
</defs>
</svg>
