<svg width="130" height="80" viewBox="0 0 130 80" fill="none" xmlns="http://www.w3.org/2000/svg">
<g clip-path="url(#clip0)">
<path d="M63.9755 79.7694C63.5376 79.7694 63.1287 79.6517 62.7488 79.4456L58.8642 77.1194C58.2799 76.7954 58.572 76.6777 58.7474 76.6188C59.5359 76.3538 59.682 76.2947 60.4998 75.8239C60.5875 75.7648 60.7045 75.7943 60.792 75.8532L63.7713 77.6494C63.8881 77.7082 64.0342 77.7082 64.1216 77.6494L75.776 70.8473C75.8927 70.7885 75.9514 70.6705 75.9514 70.5235V56.949C75.9514 56.8015 75.8927 56.684 75.776 56.6249L64.1216 49.8524C64.0048 49.7933 63.8588 49.7933 63.7713 49.8524L52.117 56.6249C52.0002 56.6838 51.9416 56.831 51.9416 56.9487V70.5233C51.9416 70.6412 52.0002 70.7882 52.117 70.8473L55.3008 72.7024C57.0241 73.5857 58.1048 72.5551 58.1048 71.5245V58.1266C58.1048 57.95 58.2508 57.7732 58.4553 57.7732H59.9448C60.1202 57.7732 60.2954 57.9205 60.2954 58.1266V71.5245C60.2954 73.8507 59.0393 75.2053 56.8487 75.2053C56.177 75.2053 55.6513 75.2053 54.1615 74.469L51.0947 72.7024C50.3353 72.2608 49.868 71.4361 49.868 70.5528V56.9783C49.868 56.095 50.3353 55.2703 51.0947 54.8287L62.7488 48.0267C63.4792 47.6145 64.4724 47.6145 65.2025 48.0267L76.8566 54.8287C77.6161 55.2703 78.0836 56.095 78.0836 56.9783V70.5528C78.0836 71.4361 77.6161 72.2608 76.8566 72.7024L65.2025 79.5044C64.8227 79.6812 64.3847 79.7694 63.9758 79.7694H63.9755ZM67.5683 70.4351C62.4569 70.4351 61.4053 68.0794 61.4053 66.0771C61.4053 65.9003 61.5514 65.7238 61.7559 65.7238H63.2747C63.4499 65.7238 63.5959 65.8415 63.5959 66.0183C63.8297 67.5788 64.5014 68.3444 67.5976 68.3444C70.051 68.3444 71.1029 67.7849 71.1029 66.4598C71.1029 65.6942 70.8105 65.135 66.9842 64.7521C63.8004 64.428 61.8142 63.7215 61.8142 61.1597C61.8142 58.7745 63.8006 57.361 67.1303 57.361C70.8688 57.361 72.7092 58.6568 72.9429 61.4833C72.9429 61.5719 72.9136 61.6601 72.8552 61.7485C72.7966 61.8073 72.7092 61.8662 72.6215 61.8662H71.1026C70.9565 61.8662 70.8105 61.7485 70.7814 61.6012C70.4309 59.9819 69.5253 59.4517 67.1303 59.4517C64.4431 59.4517 64.1216 60.3941 64.1216 61.1006C64.1216 61.9546 64.5015 62.2196 68.1232 62.6907C71.716 63.162 73.4102 63.8392 73.4102 66.3714C73.3809 68.9627 71.278 70.4351 67.5683 70.4351Z" fill="#539E43"/>
<path d="M27.8177 26.6783C27.8177 26.1483 27.5255 25.6475 27.0582 25.3825L14.6737 18.1978C14.469 18.0798 14.2355 18.021 14.002 17.9914H13.885C13.6515 17.9914 13.4177 18.0798 13.2133 18.1978L0.828771 25.3825C0.361232 25.6475 0.0693359 26.1481 0.0693359 26.6783L0.0986519 45.9947C0.0986519 46.2597 0.244726 46.5247 0.478243 46.6426C0.712013 46.7899 1.00391 46.7899 1.20862 46.6426L8.5692 42.4024C9.03648 42.1374 9.32863 41.6368 9.32863 41.1068V32.0668C9.32863 31.5369 9.62053 31.0362 10.0881 30.7713L13.2133 28.9455C13.447 28.7983 13.7099 28.7392 13.9727 28.7392C14.2355 28.7392 14.4984 28.7983 14.7031 28.9455L17.8282 30.7713C18.2958 31.0362 18.5877 31.5366 18.5877 32.0668V41.1068C18.5877 41.6368 18.8798 42.1374 19.3471 42.4024L26.7077 46.6426C26.9415 46.7899 27.2334 46.7899 27.4671 46.6426C27.7009 46.5247 27.847 46.2597 27.847 45.9947L27.8177 26.6783ZM87.345 0.0884713C87.1115 -0.0294905 86.8193 -0.0294905 86.6146 0.0884713C86.3811 0.235733 86.235 0.471147 86.235 0.736115V19.8762C86.235 20.0528 86.1476 20.2294 85.9722 20.3473C85.7971 20.4355 85.6217 20.4355 85.4465 20.3473L82.3504 18.5511C82.1234 18.4209 81.8667 18.3523 81.6055 18.3523C81.3443 18.3523 81.0876 18.4209 80.8606 18.5511L68.4761 25.7654C68.0088 26.0304 67.7167 26.531 67.7167 27.061V41.4599C67.7167 41.9899 68.0088 42.4908 68.4761 42.7557L80.8606 49.97C81.0876 50.1003 81.3443 50.1688 81.6055 50.1688C81.8667 50.1688 82.1234 50.1003 82.3504 49.97L94.7349 42.7557C95.2022 42.4908 95.4943 41.9901 95.4943 41.4599V5.56541C95.4943 5.00592 95.2022 4.50554 94.7349 4.24032L87.3453 0.0884713H87.345ZM86.206 36.7193C86.206 36.8666 86.1476 36.9843 86.0306 37.0431L81.7954 39.5165C81.7363 39.5456 81.6713 39.5607 81.6055 39.5607C81.5397 39.5607 81.4747 39.5456 81.4156 39.5165L77.1805 37.0431C77.0634 36.9843 77.0051 36.837 77.0051 36.7193V31.7723C77.0051 31.625 77.0634 31.5073 77.1805 31.4485L81.4156 28.9748C81.4747 28.9458 81.5397 28.9306 81.6055 28.9306C81.6713 28.9306 81.7363 28.9458 81.7954 28.9748L86.0306 31.4485C86.1476 31.5071 86.206 31.6546 86.206 31.7723V36.7193ZM128.558 31.6546C129.026 31.3896 129.289 30.889 129.289 30.3588V26.8548C129.289 26.3249 128.997 25.8243 128.558 25.5593L116.262 18.3746C116.035 18.2443 115.778 18.1759 115.517 18.1759C115.256 18.1759 114.999 18.2443 114.772 18.3746L102.388 25.5886C101.92 25.8536 101.628 26.3542 101.628 26.8844V41.2834C101.628 41.8133 101.92 42.314 102.388 42.5789L114.684 49.6459C115.152 49.9109 115.707 49.9109 116.145 49.6459L123.593 45.465C123.827 45.3471 123.973 45.0821 123.973 44.8171C123.973 44.5522 123.827 44.2872 123.593 44.1692L111.15 36.955C110.917 36.808 110.77 36.5723 110.77 36.3073V31.8021C110.77 31.5371 110.917 31.2722 111.15 31.1542L115.035 28.9162C115.149 28.8441 115.28 28.8058 115.415 28.8058C115.549 28.8058 115.681 28.8441 115.794 28.9162L119.679 31.1542C119.913 31.3015 120.059 31.5369 120.059 31.8021V35.3356C120.059 35.6006 120.205 35.8655 120.438 35.9832C120.672 36.1305 120.964 36.1305 121.198 35.9832L128.558 31.6546Z" fill="#333333"/>
<path d="M115.325 30.9774C115.368 30.9487 115.419 30.9333 115.471 30.9333C115.523 30.9333 115.573 30.9487 115.617 30.9774L117.983 32.3614C118.07 32.42 118.129 32.5084 118.129 32.6264V35.3943C118.129 35.512 118.07 35.6004 117.983 35.6592L115.617 37.0432C115.573 37.0719 115.523 37.0873 115.471 37.0873C115.419 37.0873 115.368 37.0719 115.325 37.0432L112.959 35.6592C112.871 35.6004 112.813 35.512 112.813 35.3943V32.6264C112.813 32.5084 112.871 32.42 112.959 32.3614L115.325 30.9774Z" fill="#539E43"/>
<mask id="mask0" mask-type="alpha" maskUnits="userSpaceOnUse" x="34" y="18" width="28" height="32">
<path d="M48.5243 18.4334C48.2973 18.3031 48.0407 18.2346 47.7795 18.2346C47.5184 18.2346 47.2617 18.3031 47.0348 18.4334L34.738 25.5883C34.2704 25.8532 34.0076 26.3539 34.0076 26.8838V41.2242C34.0076 41.7541 34.2997 42.2548 34.738 42.5197L47.0348 49.6751C47.2617 49.8054 47.5184 49.8739 47.7795 49.8739C48.0407 49.8739 48.2973 49.8054 48.5243 49.6751L60.8213 42.5197C61.2886 42.2548 61.5517 41.7541 61.5517 41.2242V26.8841C61.5517 26.3541 61.2593 25.8535 60.8213 25.5885L48.5243 18.4334Z" fill="white"/>
</mask>
<g mask="url(#mask0)">
<path d="M48.5243 18.4334C48.2973 18.3031 48.0407 18.2346 47.7795 18.2346C47.5184 18.2346 47.2617 18.3031 47.0348 18.4334L34.738 25.5883C34.2704 25.8532 34.0076 26.3539 34.0076 26.8838V41.2242C34.0076 41.7541 34.2997 42.2548 34.738 42.5197L47.0348 49.6751C47.2617 49.8054 47.5184 49.8739 47.7795 49.8739C48.0407 49.8739 48.2973 49.8054 48.5243 49.6751L60.8213 42.5197C61.2886 42.2548 61.5517 41.7541 61.5517 41.2242V26.8841C61.5517 26.3541 61.2593 25.8535 60.8213 25.5885L48.5243 18.4334Z" fill="url(#paint0_linear)"/>
<path d="M60.8504 25.5886L48.4952 18.4334C48.3738 18.3716 48.2466 18.3223 48.1154 18.2861L34.2704 42.1964C34.3851 42.3376 34.5236 42.4572 34.6796 42.5498L47.0347 49.7052C47.3853 49.9113 47.7942 49.9702 48.1738 49.8522L61.1719 25.8833C61.0842 25.7656 60.9672 25.677 60.8504 25.5888V25.5886Z" fill="url(#paint1_linear)"/>
<path fill-rule="evenodd" clip-rule="evenodd" d="M60.8798 42.52C61.2303 42.3139 61.4931 41.9605 61.6101 41.5778L48.0568 18.2565C47.7063 18.1977 47.3264 18.227 47.0055 18.4331L34.7377 25.5592L47.9691 49.8815C48.1615 49.8497 48.3484 49.7903 48.5241 49.7049L60.8795 42.5202L60.8798 42.52Z" fill="url(#paint2_linear)"/>
<path fill-rule="evenodd" clip-rule="evenodd" d="M60.8797 42.5201L48.5536 49.6755C48.3796 49.7649 48.1921 49.8246 47.9987 49.852L48.2324 50.2938L61.902 42.3142V42.1374L61.5515 41.5483C61.4931 41.9606 61.2303 42.3139 60.8797 42.5201Z" fill="url(#paint3_linear)"/>
<path fill-rule="evenodd" clip-rule="evenodd" d="M60.8797 42.5201L48.5536 49.6755C48.3796 49.7649 48.1921 49.8246 47.9987 49.852L48.2324 50.2938L61.902 42.3142V42.1374L61.5515 41.5483C61.4931 41.9606 61.2303 42.3139 60.8797 42.5201Z" fill="url(#paint4_linear)"/>
</g>
</g>
<defs>
<linearGradient id="paint0_linear" x1="52.7894" y1="23.7674" x2="39.1551" y2="45.0182" gradientUnits="userSpaceOnUse">
<stop stop-color="#41873F"/>
<stop offset="0.3288" stop-color="#418B3D"/>
<stop offset="0.6352" stop-color="#419637"/>
<stop offset="0.9319" stop-color="#3FA92D"/>
<stop offset="1" stop-color="#3FAE2A"/>
</linearGradient>
<linearGradient id="paint1_linear" x1="45.9126" y1="35.734" x2="79.7927" y2="17.4752" gradientUnits="userSpaceOnUse">
<stop offset="0.1376" stop-color="#41873F"/>
<stop offset="0.4032" stop-color="#54A044"/>
<stop offset="0.7136" stop-color="#66B848"/>
<stop offset="0.9081" stop-color="#6CC04A"/>
</linearGradient>
<linearGradient id="paint2_linear" x1="33.5583" y1="34.0547" x2="62.013" y2="34.0547" gradientUnits="userSpaceOnUse">
<stop offset="0.09192" stop-color="#6CC04A"/>
<stop offset="0.2864" stop-color="#66B848"/>
<stop offset="0.5968" stop-color="#54A044"/>
<stop offset="0.8624" stop-color="#41873F"/>
</linearGradient>
<linearGradient id="paint3_linear" x1="33.5585" y1="45.9451" x2="62.0128" y2="45.9451" gradientUnits="userSpaceOnUse">
<stop offset="0.09192" stop-color="#6CC04A"/>
<stop offset="0.2864" stop-color="#66B848"/>
<stop offset="0.5968" stop-color="#54A044"/>
<stop offset="0.8624" stop-color="#41873F"/>
</linearGradient>
<linearGradient id="paint4_linear" x1="66.1582" y1="23.0894" x2="58.8363" y2="61.1472" gradientUnits="userSpaceOnUse">
<stop stop-color="#41873F"/>
<stop offset="0.3288" stop-color="#418B3D"/>
<stop offset="0.6352" stop-color="#419637"/>
<stop offset="0.9319" stop-color="#3FA92D"/>
<stop offset="1" stop-color="#3FAE2A"/>
</linearGradient>
<clipPath id="clip0">
<rect width="129.412" height="80" fill="white"/>
</clipPath>
</defs>
</svg>
