<svg width="80" height="80" viewBox="0 0 80 80" fill="none" xmlns="http://www.w3.org/2000/svg">
<path d="M58.75 58.75H61.25V56.25H63.75V48.75H58.75V46.25H63.75V43.75H61.25V41.25H58.75V43.75H56.25V51.25H61.25V53.75H56.25V56.25H58.75V58.75Z" fill="#458ED3"/>
<path d="M70 21.25C69.0362 21.25 68.165 21.6263 67.5 22.225C66.835 21.625 65.9637 21.25 65 21.25C62.9325 21.25 61.25 22.9325 61.25 25C61.25 27.0675 62.9325 28.75 65 28.75C65.9637 28.75 66.835 28.3737 67.5 27.775C68.165 28.375 69.0362 28.75 70 28.75C72.0675 28.75 73.75 27.0675 73.75 25C73.75 22.9325 72.0675 21.25 70 21.25ZM65 26.25C64.3112 26.25 63.75 25.69 63.75 25C63.75 24.31 64.3112 23.75 65 23.75C65.6887 23.75 66.25 24.31 66.25 25C66.25 25.69 65.6887 26.25 65 26.25ZM70 26.25C69.3112 26.25 68.75 25.69 68.75 25C68.75 24.31 69.3112 23.75 70 23.75C70.6887 23.75 71.25 24.31 71.25 25C71.25 25.69 70.6887 26.25 70 26.25Z" fill="#458ED3"/>
<path d="M75 1.25H35C32.9325 1.25 31.25 2.9325 31.25 5V26.55C30.0088 26.3713 28.7563 26.25 27.5 26.25C13.025 26.25 1.25 38.0262 1.25 52.5C1.25 66.9737 13.025 78.75 27.5 78.75C38.6075 78.75 48.5038 71.6613 52.195 61.3075C54.415 62.8438 57.1025 63.75 60 63.75C67.5813 63.75 73.75 57.5812 73.75 50C73.75 42.4188 67.5813 36.25 60 36.25C56.3475 36.25 53.0313 37.6913 50.5663 40.0225C49.3113 37.7113 47.71 35.5925 45.8238 33.75H75C77.0675 33.75 78.75 32.0675 78.75 30V5C78.75 2.9325 77.0675 1.25 75 1.25ZM35 3.75H75C75.6888 3.75 76.25 4.31 76.25 5V8.75H33.75V5C33.75 4.31 34.3113 3.75 35 3.75ZM76.25 11.25V13.75H33.75V11.25H76.25ZM48.7975 42.0563C47.2 44.3025 46.25 47.04 46.25 50C46.25 50.4225 46.2763 50.8375 46.3138 51.25H38.7013C38.57 47.575 37.8938 44.2212 36.925 41.25H48.3913C48.5338 41.515 48.6638 41.7863 48.7975 42.0563ZM20.7375 63.75C19.6963 60.8063 18.9463 57.4437 18.8013 53.75H36.1988C36.0538 57.44 35.3 60.8037 34.2563 63.75H20.7375ZM33.28 66.25C31.285 70.8138 28.7975 74.0887 27.4988 75.6275C26.1975 74.0912 23.7088 70.8187 21.7138 66.25H33.28ZM3.81375 53.75H16.3C16.4313 57.425 17.1075 60.7788 18.0763 63.75H6.59125C4.96875 60.7463 4.0025 57.35 3.81375 53.75ZM3.81375 51.25C4.0025 47.65 4.96875 44.2537 6.59125 41.25H18.0763C17.1075 44.2212 16.43 47.575 16.3 51.25H3.81375ZM38.7 53.75H46.7825C47.4113 55.9637 48.5763 57.95 50.1363 59.5588C49.6788 61.0275 49.0875 62.4287 48.3738 63.75H36.9225C37.8925 60.7788 38.5688 57.425 38.7 53.75ZM36.1988 51.25H18.8013C18.9463 47.56 19.7 44.1963 20.7438 41.25H34.2625C35.3038 44.1937 36.0538 47.5563 36.1988 51.25ZM21.72 38.75C23.715 34.1862 26.2025 30.9112 27.5013 29.3725C28.8025 30.9087 31.2913 34.1813 33.2863 38.75H21.72ZM31.2625 30.12C30.9538 29.6913 30.66 29.2975 30.3838 28.9438C30.675 28.9788 30.9625 29.0287 31.2513 29.075V30C31.25 30.0413 31.2613 30.0788 31.2625 30.12ZM24.6175 28.9425C23.0113 31 20.7588 34.3587 18.9863 38.75H8.17125C11.9525 33.45 17.845 29.7675 24.6175 28.9425ZM8.17125 66.25H18.9863C20.7588 70.6413 23.0113 74 24.6175 76.0575C17.845 75.2325 11.9525 71.55 8.17125 66.25ZM30.3863 76.0525C31.9925 73.995 34.2425 70.6375 36.0138 66.25H46.82C42.9975 71.6075 37.0475 75.2288 30.3863 76.0525ZM60 38.75C66.2025 38.75 71.25 43.7962 71.25 50C71.25 56.2038 66.2025 61.25 60 61.25C53.7975 61.25 48.75 56.2038 48.75 50C48.75 43.7962 53.7975 38.75 60 38.75ZM46.8313 38.75H36.0138C35.1963 36.7238 34.2825 34.92 33.3675 33.36C33.8625 33.6025 34.4125 33.75 35 33.75H42.0163C43.86 35.1787 45.485 36.865 46.8313 38.75ZM75 31.25H35C34.3113 31.25 33.75 30.69 33.75 30V16.25H76.25V30C76.25 30.69 75.6888 31.25 75 31.25Z" fill="black"/>
<path d="M36.25 21.25H41.25V23.75H36.25V21.25Z" fill="#458ED3"/>
<path d="M43.75 21.25H48.75V23.75H43.75V21.25Z" fill="#458ED3"/>
<path d="M36.25 26.25H48.75V28.75H36.25V26.25Z" fill="#458ED3"/>
</svg>
