<svg width="25" height="23" viewBox="0 0 25 23" fill="none" xmlns="http://www.w3.org/2000/svg">
<path d="M25 15.6154C25 16.7608 22.3427 17.1426 20.8002 17.1426C20.5671 15.0472 20.0535 12.9925 19.2731 11.0339C18.8663 10.2919 18.2711 9.67028 17.5473 9.23182C18.3128 8.15776 18.7101 6.86483 18.6798 5.54628C18.6495 4.22773 18.1933 2.95439 17.3794 1.91661C17.7373 1.57751 18.1631 1.31829 18.6287 1.1561C19.0943 0.993902 19.589 0.932429 20.0801 0.975746C20.5712 1.01906 21.0475 1.16618 21.4775 1.40737C21.9075 1.64856 22.2814 1.97832 22.5745 2.37482C22.8675 2.77132 23.073 3.22553 23.1773 3.70739C23.2816 4.18926 23.2824 4.68778 23.1797 5.16998C23.0769 5.65218 22.8729 6.10706 22.5812 6.50452C22.2895 6.90198 21.9167 7.23296 21.4875 7.47556C22.3878 7.71434 23.1797 8.25306 23.7324 9.00274C24.5166 11.1062 24.9449 13.3255 25 15.5696V15.6154ZM7.49847 9.23182C6.7287 8.16103 6.32612 6.86989 6.3509 5.55136C6.37567 4.23283 6.82647 2.95772 7.63592 1.91661C7.27724 1.58316 6.85226 1.32913 6.38873 1.1711C5.92519 1.01307 5.43354 0.954597 4.94587 0.9995C4.4582 1.0444 3.98549 1.19167 3.55861 1.43169C3.13173 1.67171 2.76028 1.99907 2.46852 2.39241C2.17677 2.78574 1.97126 3.2362 1.86543 3.71435C1.7596 4.19251 1.75582 4.68762 1.85435 5.16733C1.95287 5.64705 2.15149 6.10059 2.43721 6.49833C2.72294 6.89606 3.08935 7.22906 3.51252 7.47556C2.61223 7.71434 1.82031 8.25306 1.26756 9.00274C0.471624 11.1187 0.0429397 13.3551 0 15.6154C0 16.7608 2.6573 17.1426 4.19976 17.1426C4.43288 15.0472 4.94654 12.9925 5.72694 11.0339C6.14139 10.2824 6.75416 9.65905 7.49847 9.23182ZM12.5076 2.52748C11.6976 2.52748 10.9207 2.84928 10.3479 3.42208C9.77507 3.99489 9.45327 4.77178 9.45327 5.58185C9.44843 6.12264 9.58726 6.65502 9.85558 7.12458C10.1239 7.59414 10.5121 7.98404 10.9805 8.25442L12.5076 9.20127L14.0348 8.25442C14.6312 7.92469 15.1001 7.40501 15.3671 6.77805C15.634 6.15109 15.6837 5.45287 15.5081 4.79446C15.3325 4.13604 14.9418 3.55524 14.3981 3.14446C13.8544 2.73368 13.189 2.5165 12.5076 2.52748ZM12.5076 10.3619L10.6903 11.0492C8.91875 11.6906 8.55223 12.3015 8.50641 12.4084C7.59655 14.9255 7.0814 17.5682 6.97923 20.2428C8.74501 20.9008 10.6251 21.1968 12.5076 21.1133C14.3803 21.1977 16.2506 20.9016 18.0055 20.2428C17.9108 17.5674 17.3954 14.9235 16.4783 12.4084C16.4783 12.3015 16.066 11.7211 14.3097 11.0492L12.5076 10.3619ZM12.5076 1.0003C13.5483 0.951701 14.5745 1.25924 15.4169 1.87219C16.2593 2.48514 16.8677 3.36689 17.1416 4.37204C17.4156 5.37718 17.3388 6.44568 16.924 7.40133C16.5091 8.35697 15.7809 9.14268 14.8595 9.62889C16.0873 9.95568 17.1656 10.6943 17.9139 11.7211C18.9687 14.5268 19.5418 17.4905 19.609 20.4872C19.609 22.6405 12.5687 22.6405 12.5687 22.6405C12.5687 22.6405 5.51313 22.6405 5.51313 20.4872C5.55966 17.4853 6.10678 14.5123 7.13195 11.6906C7.87935 10.6629 8.95799 9.92399 10.1863 9.59834C9.28508 9.1046 8.576 8.3222 8.17303 7.37687C7.77005 6.43155 7.69659 5.3782 7.96444 4.3861C8.23229 3.39399 8.8259 2.52074 9.64988 1.90667C10.4739 1.2926 11.4804 0.973379 12.5076 1.0003Z" fill="#426DA9"/>
</svg>
