<svg width="44" height="44" viewBox="0 0 44 44" fill="none" xmlns="http://www.w3.org/2000/svg">
<path d="M22 0C9.84972 0 0 9.84972 0 22C0 34.1502 9.84972 43.9999 22 43.9999C34.1502 43.9999 43.9999 34.1502 43.9999 22C43.987 9.85515 34.1448 0.0129827 22 0ZM22 40.8571C11.5854 40.8571 3.14282 32.4145 3.14282 22C3.14282 11.5854 11.5854 3.14282 22 3.14282C32.4145 3.14282 40.8571 11.5854 40.8571 22C40.8458 32.4099 32.4099 40.8458 22 40.8571Z" fill="white"/>
<path d="M31.265 21.2989C31.1127 20.9934 30.8651 20.7457 30.5595 20.5934L17.9881 14.3077C17.2118 13.9198 16.268 14.2346 15.88 15.0109C15.7709 15.2293 15.7141 15.47 15.7142 15.7141V28.2856C15.7139 29.1535 16.417 29.8573 17.285 29.8578C17.529 29.8579 17.7698 29.8012 17.9881 29.6921L30.5595 23.4063C31.3363 23.0192 31.6522 22.0756 31.265 21.2989ZM18.8572 25.743V18.2567L26.3435 21.9999L18.8572 25.743Z" fill="white"/>
</svg>
