<svg width="120" height="122" viewBox="0 0 120 122" fill="none" xmlns="http://www.w3.org/2000/svg">
<path d="M115.999 82.9955L108.004 74.8952C110.859 69.7053 112.5 63.7402 112.5 57.3877C112.5 37.4846 96.5194 21.2935 76.875 21.2935C68.6663 21.2935 61.1194 24.1487 55.0894 28.8922H34.2638C37.3894 26.1054 39.375 22.0343 39.375 17.4941C39.375 9.11451 32.6456 2.29651 24.375 2.29651C16.1044 2.29651 9.375 9.11451 9.375 17.4941C9.375 22.2775 11.5725 26.5461 14.9944 29.3349C7.49438 31.0712 1.875 37.8721 1.875 45.9895V57.3877C1.875 63.3983 5.835 68.4857 11.25 70.1251V112.479C11.25 116.67 14.6137 120.078 18.75 120.078C21 120.078 22.9988 119.048 24.375 117.452C25.7512 119.048 27.75 120.078 30 120.078C34.1362 120.078 37.5 116.67 37.5 112.479V109.466L53.2762 93.4819L51.4012 91.5822L56.1975 86.7228C60.0863 89.5457 64.5431 91.6069 69.375 92.6612V102.564L73.905 103.71L71.5031 107.768L81.5287 117.925L85.53 115.49L86.6606 120.078H100.839L101.97 115.488L105.971 117.923L115.997 107.766L113.595 103.708L118.125 102.564V88.1988L113.595 87.0533L115.999 82.9955ZM108.75 57.3877C108.75 75.1954 94.4512 89.6825 76.875 89.6825C59.2988 89.6825 45 75.1954 45 57.3877C45 39.5799 59.2988 25.0928 76.875 25.0928C94.4512 25.0928 108.75 39.5799 108.75 57.3877ZM103.125 95.3816C103.125 100.619 98.9194 104.88 93.75 104.88C88.5806 104.88 84.375 100.619 84.375 95.3816C84.375 94.4013 84.5663 93.4572 84.8512 92.5358C89.4938 91.4549 93.7838 89.4545 97.5413 86.7303C100.907 88.2425 103.125 91.5974 103.125 95.3816ZM41.25 81.2972L37.5 85.0966V70.6855H38.4375C40.2487 70.6855 41.8913 69.937 43.08 68.7307C44.2163 72.1977 45.8625 75.4234 47.9212 78.3375L43.125 83.1969L41.25 81.2972ZM41.25 57.3877C41.25 57.6194 41.28 57.8436 41.2837 58.0735C40.4194 57.6479 39.4613 57.3877 38.4375 57.3877H37.5V45.0396C37.5 43.4686 38.7619 42.1901 40.3125 42.1901H44.6063C42.4763 46.8159 41.25 51.9545 41.25 57.3877ZM26.1731 47.1806L24.375 49.0024L22.5769 47.1806L23.9662 32.6916H24.7819L26.1731 47.1806ZM13.125 17.4941C13.125 11.208 18.1706 6.0959 24.375 6.0959C30.5794 6.0959 35.625 11.208 35.625 17.4941C35.625 23.7802 30.5794 28.8922 24.375 28.8922C18.1706 28.8922 13.125 23.7802 13.125 17.4941ZM18.75 32.6916H20.1994L18.6731 48.5978L24.375 54.3747L30.0769 48.5978L28.5506 32.6916H50.9662C49.3444 34.4374 47.8988 36.3447 46.6406 38.3907H40.3125C36.6937 38.3907 33.75 41.3732 33.75 45.0396V57.3877H16.875C15.8419 57.3877 15 56.5366 15 55.488V42.1901H11.25V53.5883H5.625V45.9895C5.625 38.6586 11.5125 32.6916 18.75 32.6916ZM5.625 57.3877H11.595C12.3713 59.5932 14.4338 61.187 16.875 61.187H38.4375C39.9881 61.187 41.25 62.4655 41.25 64.0366C41.25 65.6076 39.9881 66.8861 38.4375 66.8861H15C9.83063 66.8861 5.625 62.6251 5.625 57.3877ZM30 116.278C27.9319 116.278 26.25 114.574 26.25 112.479V78.2843H22.5V112.479C22.5 114.574 20.8181 116.278 18.75 116.278C16.6819 116.278 15 114.574 15 112.479V70.6855H33.75V112.479C33.75 114.574 32.0681 116.278 30 116.278ZM37.5 104.094V90.4689L41.25 86.6696L47.9738 93.4819L37.5 104.094ZM48.75 88.896L45.7762 85.8831L50.28 81.32C51.2119 82.3839 52.2038 83.3869 53.2537 84.3329L48.75 88.896ZM114.375 91.1661V99.597L110.721 100.52L109.719 100.912L108.846 103.075L111.276 107.177L105.392 113.138L101.346 110.678L99.0581 111.62L97.9106 116.278H89.5894L88.6762 112.576L88.2956 111.559L86.1544 110.678L82.1081 113.138L76.2244 107.177L78.6544 103.075L77.7169 100.758L73.125 99.597V93.2786C74.3587 93.4097 75.6075 93.4819 76.875 93.4819C78.2063 93.4819 79.515 93.3945 80.8087 93.2501C80.6963 93.9511 80.625 94.6597 80.625 95.3816C80.625 102.712 86.5125 108.679 93.75 108.679C100.988 108.679 106.875 102.712 106.875 95.3816C106.875 90.7235 104.469 86.5385 100.695 84.1487C102.651 82.3592 104.415 80.3664 105.943 78.1817L111.276 83.5845L108.846 87.6859L109.789 90.0035L114.375 91.1661Z" fill="black"/>
<path d="M118.125 11.795C118.125 6.55752 113.919 2.29651 108.75 2.29651H101.25C96.0806 2.29651 91.875 6.55752 91.875 11.795V21.2935H108.75C113.919 21.2935 118.125 17.0324 118.125 11.795ZM95.625 11.795C95.625 8.65289 98.1487 6.0959 101.25 6.0959H108.75C111.851 6.0959 114.375 8.65289 114.375 11.795C114.375 14.9371 111.851 17.4941 108.75 17.4941H95.625V11.795Z" fill="#458ED3"/>
<path d="M99.375 9.89526H103.125V13.6947H99.375V9.89526Z" fill="#458ED3"/>
<path d="M106.875 9.89526H110.625V13.6947H106.875V9.89526Z" fill="#458ED3"/>
<path d="M76.875 85.8831C92.3831 85.8831 105 73.1 105 57.3876C105 41.6753 92.3831 28.8922 76.875 28.8922C61.3669 28.8922 48.75 41.6753 48.75 57.3876C48.75 73.1 61.3669 85.8831 76.875 85.8831ZM67.5 66.8861H71.25V81.3941C69.96 81.0844 68.7019 80.6893 67.5 80.1783V66.8861ZM63.75 78.1646C62.4038 77.2888 61.1475 76.2858 60 75.1669V55.4879H63.75V78.1646ZM75 81.9868V40.2904H78.75V81.9868C78.1294 82.0362 77.5088 82.0837 76.875 82.0837C76.2412 82.0837 75.6206 82.0362 75 81.9868ZM82.5 59.2873H86.25V80.1783C85.0481 80.6874 83.79 81.0825 82.5 81.3941V59.2873ZM93.75 75.1669C92.6025 76.2858 91.3462 77.2888 90 78.1646V51.6886H93.75V75.1669ZM76.875 32.6916C90.315 32.6916 101.25 43.7706 101.25 57.3876C101.25 62.2034 99.8625 66.6866 97.5 70.4879V47.8892H86.25V55.4879H82.5V36.491H71.25V63.0867H67.5V51.6886H56.25V70.4879C53.8875 66.6847 52.5 62.2015 52.5 57.3876C52.5 43.7706 63.435 32.6916 76.875 32.6916Z" fill="#458ED3"/>
</svg>
