<svg width="80" height="80" viewBox="0 0 80 80" fill="none" xmlns="http://www.w3.org/2000/svg">
<path d="M39.7116 0C19.4026 1.45658e-06 20.6709 8.8533 20.6709 8.8533L20.6935 18.0252H40.0739V20.7791H12.9957C12.9957 20.7791 0 19.2975 0 39.8967C-1.449e-06 60.4959 11.3429 59.7654 11.3429 59.7654H18.1125V50.2066C18.1125 50.2066 17.7476 38.8043 29.2743 38.8043C40.801 38.8043 48.4962 38.8043 48.4962 38.8043C48.4962 38.8043 59.2957 38.9798 59.2957 28.3123C59.2957 17.6449 59.2957 10.674 59.2957 10.674C59.2957 10.674 60.9354 0 39.7116 0ZM29.0253 6.16772C30.9535 6.16772 32.5119 7.73433 32.5119 9.67262C32.5119 11.6109 30.9535 13.1775 29.0253 13.1775C27.097 13.1775 25.5386 11.6109 25.5386 9.67262C25.5386 7.73433 27.097 6.16772 29.0253 6.16772Z" fill="url(#paint0_linear)"/>
<path d="M40.2884 80.0001C60.5974 80.0001 59.3291 71.1468 59.3291 71.1468L59.3065 61.9749H39.9261V59.221H67.0043C67.0043 59.221 80 60.7026 80 40.1034C80 19.5042 68.6571 20.2346 68.6571 20.2346H61.8875V29.7935C61.8875 29.7935 62.2524 41.1958 50.7257 41.1958C39.199 41.1958 31.5038 41.1958 31.5038 41.1958C31.5038 41.1958 20.7043 41.0203 20.7043 51.6877C20.7043 62.3552 20.7043 69.3261 20.7043 69.3261C20.7043 69.3261 19.0646 80.0001 40.2884 80.0001ZM50.9747 73.8324C49.0465 73.8324 47.4881 72.2658 47.4881 70.3275C47.4881 68.3892 49.0465 66.8226 50.9747 66.8226C52.903 66.8226 54.4614 68.3892 54.4614 70.3275C54.4614 72.2658 52.903 73.8324 50.9747 73.8324Z" fill="url(#paint1_linear)"/>
<defs>
<linearGradient id="paint0_linear" x1="7.68815" y1="6.99271" x2="47.453" y2="46.6828" gradientUnits="userSpaceOnUse">
<stop stop-color="#387EB8"/>
<stop offset="1" stop-color="#366994"/>
</linearGradient>
<linearGradient id="paint1_linear" x1="32.0223" y1="32.3739" x2="74.7197" y2="73.0671" gradientUnits="userSpaceOnUse">
<stop stop-color="#FFE052"/>
<stop offset="1" stop-color="#FFC331"/>
</linearGradient>
</defs>
</svg>
