<svg width="80" height="80" viewBox="0 0 80 80" fill="none" xmlns="http://www.w3.org/2000/svg">
<path d="M39.7116 0C19.4026 1.45658e-06 20.6709 8.8533 20.6709 8.8533L20.6935 18.0252H40.0739V20.7791H12.9957C12.9957 20.7791 0 19.2975 0 39.8967C-1.449e-06 60.4959 11.3429 59.7654 11.3429 59.7654H18.1125V50.2066C18.1125 50.2066 17.7476 38.8043 29.2743 38.8043C40.801 38.8043 48.4962 38.8043 48.4962 38.8043C48.4962 38.8043 59.2957 38.9798 59.2957 28.3123C59.2957 17.6449 59.2957 10.674 59.2957 10.674C59.2957 10.674 60.9354 0 39.7116 0ZM29.0253 6.16772C30.9535 6.16772 32.5119 7.73433 32.5119 9.67262C32.5119 11.6109 30.9535 13.1775 29.0253 13.1775C27.097 13.1775 25.5386 11.6109 25.5386 9.67262C25.5386 7.73433 27.097 6.16772 29.0253 6.16772Z" fill="#D0D0D0"/>
<path d="M40.2884 80C60.5974 80 59.3292 71.1467 59.3292 71.1467L59.3065 61.9748H39.9262V59.2209H67.0043C67.0043 59.2209 80 60.7025 80 40.1033C80 19.5041 68.6571 20.2346 68.6571 20.2346H61.8875V29.7934C61.8875 29.7934 62.2524 41.1957 50.7257 41.1957C39.199 41.1957 31.5039 41.1957 31.5039 41.1957C31.5039 41.1957 20.7043 41.0202 20.7043 51.6877C20.7043 62.3551 20.7043 69.326 20.7043 69.326C20.7043 69.326 19.0646 80 40.2884 80ZM50.9748 73.8323C49.0466 73.8323 47.4881 72.2657 47.4881 70.3274C47.4881 68.3891 49.0466 66.8225 50.9748 66.8225C52.903 66.8225 54.4614 68.3891 54.4614 70.3274C54.4614 72.2657 52.903 73.8323 50.9748 73.8323Z" fill="#D0D0D0"/>
</svg>
