<svg width="108" height="80" viewBox="0 0 108 80" fill="none" xmlns="http://www.w3.org/2000/svg">
<g clip-path="url(#clip0)">
<path d="M14.8314 0H107.907V64.8472C102.909 69.9139 97.894 74.964 92.8677 80H0V14.9593C4.92355 9.95398 9.88914 4.98643 14.8314 0Z" fill="#D0D0D0"/>
<path d="M28.5813 16.833C32.1152 14.4708 36.4852 13.8737 40.6403 13.9115C44.5969 13.961 48.7497 14.6619 52.0289 17.0478C54.4113 18.7398 55.9598 21.3522 56.9922 24.0543C58.6622 28.4908 59.1526 33.2814 59.2087 37.9965C59.2157 42.7445 59.0032 47.5965 57.4476 52.1204C56.4059 55.1977 54.423 57.9304 51.807 59.8277C53.6896 62.9097 55.6095 65.9682 57.492 69.0502C55.126 70.1522 52.767 71.2614 50.3986 72.3587C48.383 68.9982 46.3766 65.6307 44.354 62.2749C41.6189 62.728 38.8208 62.6926 36.0718 62.3858C32.7785 61.987 29.4222 60.9723 26.881 58.7328C24.9284 57.0242 23.7022 54.6336 22.8637 52.203C21.4903 48.092 21.1213 43.7168 21.0582 39.403C21.0255 34.7398 21.3198 30.0035 22.7118 25.5292C23.7886 22.164 25.5707 18.8059 28.5813 16.833Z" fill="white"/>
<path d="M68.6984 16.682C71.1742 16.6797 73.65 16.6797 76.1258 16.682C76.1328 19.9906 76.1234 23.2968 76.1305 26.6053C79.2953 26.61 82.4601 26.6053 85.6249 26.6077C85.5711 28.7552 85.5127 30.9027 85.452 33.0502C82.2895 33.0573 79.1294 33.0478 75.967 33.0549C75.974 38.4779 75.9506 43.9009 75.9786 49.3239C76.0394 50.8083 76.0067 52.3753 76.6536 53.7463C77.1254 54.8036 78.396 55.075 79.4307 55.1104C81.381 55.1033 83.3289 54.9876 85.2792 54.9522C85.3983 56.9251 85.5127 58.9003 85.6249 60.8732C81.7453 61.5316 77.6743 62.3198 73.8205 61.0879C72.1972 60.6018 70.6837 59.5139 70.0251 57.8927C68.8456 55.134 68.7498 52.0638 68.6984 49.1021C68.6938 43.7522 68.6984 38.4047 68.6961 33.0549C66.97 33.0502 65.244 33.0573 63.518 33.0502C63.5133 30.905 63.5133 28.7575 63.518 26.6101C65.244 26.603 66.9677 26.6124 68.6938 26.6053C68.7008 23.2968 68.6914 19.9906 68.6984 16.682Z" fill="white"/>
<path d="M37.4895 20.6962C39.8929 20.3799 42.4154 20.4649 44.6903 21.3829C46.5332 22.1192 48.0981 23.5611 48.9249 25.3876C50.1931 28.1558 50.679 31.2118 50.9242 34.2301C51.1905 38.2466 51.1531 42.3009 50.6042 46.2938C50.2188 48.6702 49.67 51.174 48.077 53.0478C46.4608 54.9286 43.9686 55.7357 41.5769 55.9245C39.0544 56.1109 36.3941 55.9245 34.1169 54.7186C32.7879 54.0035 31.6598 52.8826 31.0011 51.5091C30.2023 49.8643 29.7632 48.0684 29.4549 46.2702C28.5253 40.5687 28.3011 34.669 29.5717 29.0006C30.0949 26.8625 30.8563 24.6678 32.4025 23.056C33.7478 21.6755 35.621 20.9628 37.4895 20.6962Z" fill="#D0D0D0"/>
</g>
<defs>
<clipPath id="clip0">
<rect width="107.907" height="80" fill="white"/>
</clipPath>
</defs>
</svg>
