<svg width="108" height="80" viewBox="0 0 108 80" fill="none" xmlns="http://www.w3.org/2000/svg">
<g clip-path="url(#clip0)">
<path d="M14.8314 0H107.907V64.8472C102.909 69.9139 97.894 74.964 92.8677 80H0V14.9593C4.92355 9.95398 9.88914 4.98643 14.8314 0Z" fill="#41CD52"/>
<path d="M28.5813 16.8331C32.1152 14.4709 36.4852 13.8738 40.6403 13.9116C44.5969 13.9611 48.7497 14.662 52.0289 17.0479C54.4113 18.7399 55.9598 21.3523 56.9922 24.0543C58.6622 28.4909 59.1526 33.2815 59.2087 37.9965C59.2157 42.7446 59.0032 47.5965 57.4476 52.1204C56.4059 55.1977 54.423 57.9305 51.807 59.8278C53.6896 62.9098 55.6095 65.9682 57.492 69.0502C55.126 70.1523 52.767 71.2614 50.3986 72.3588C48.383 68.9983 46.3766 65.6308 44.354 62.275C41.6189 62.7281 38.8208 62.6927 36.0718 62.3859C32.7785 61.9871 29.4222 60.9724 26.881 58.7328C24.9284 57.0243 23.7022 54.6337 22.8637 52.203C21.4903 48.0921 21.1213 43.7169 21.0582 39.403C21.0255 34.7399 21.3198 30.0036 22.7118 25.5293C23.7886 22.1641 25.5707 18.806 28.5813 16.8331Z" fill="white"/>
<path d="M68.6984 16.6819C71.1742 16.6796 73.65 16.6796 76.1258 16.6819C76.1328 19.9905 76.1234 23.2967 76.1305 26.6053C79.2953 26.61 82.4601 26.6053 85.6249 26.6076C85.5711 28.7551 85.5127 30.9026 85.452 33.0501C82.2895 33.0572 79.1294 33.0477 75.967 33.0548C75.974 38.4778 75.9506 43.9008 75.9786 49.3238C76.0394 50.8082 76.0067 52.3752 76.6536 53.7463C77.1254 54.8035 78.396 55.0749 79.4307 55.1103C81.381 55.1032 83.3289 54.9876 85.2792 54.9522C85.3983 56.925 85.5127 58.9003 85.6249 60.8731C81.7453 61.5315 77.6743 62.3197 73.8205 61.0879C72.1972 60.6017 70.6837 59.5138 70.0251 57.8926C68.8456 55.1339 68.7498 52.0637 68.6984 49.102C68.6938 43.7522 68.6984 38.4047 68.6961 33.0548C66.97 33.0501 65.244 33.0572 63.518 33.0501C63.5133 30.905 63.5133 28.7575 63.518 26.61C65.244 26.6029 66.9677 26.6123 68.6938 26.6053C68.7008 23.2967 68.6914 19.9905 68.6984 16.6819Z" fill="white"/>
<path d="M37.4895 20.696C39.8929 20.3798 42.4154 20.4648 44.6903 21.3828C46.5332 22.1191 48.0981 23.5609 48.9249 25.3875C50.1931 28.1556 50.679 31.2117 50.9242 34.23C51.1905 38.2465 51.1531 42.3008 50.6042 46.2937C50.2188 48.6701 49.67 51.1739 48.077 53.0477C46.4608 54.9285 43.9686 55.7356 41.5769 55.9244C39.0544 56.1108 36.3941 55.9244 34.1169 54.7185C32.7879 54.0034 31.6598 52.8825 31.0011 51.509C30.2023 49.8642 29.7632 48.0683 29.4549 46.2701C28.5253 40.5686 28.3011 34.6689 29.5717 29.0005C30.0949 26.8624 30.8563 24.6677 32.4025 23.0559C33.7478 21.6754 35.621 20.9627 37.4895 20.696Z" fill="#41CD52"/>
</g>
<defs>
<clipPath id="clip0">
<rect width="107.907" height="80" fill="white"/>
</clipPath>
</defs>
</svg>
