<svg width="90" height="80" viewBox="0 0 90 80" fill="none" xmlns="http://www.w3.org/2000/svg">
<g clip-path="url(#clip0)">
<path d="M0.264557 39.9131C0.264557 46.5966 6.84569 52.8355 17.2209 56.3524C15.149 66.6957 16.8498 75.0328 22.5299 78.2811C28.3681 81.6202 37.066 79.3089 45.3216 72.1524C53.3689 79.0199 61.5018 81.7225 67.1769 78.4648C73.0099 75.1162 74.7837 66.214 72.6546 55.5476C83.4612 52.0046 89.5061 46.6846 89.5061 39.9131C89.5061 33.3848 82.913 27.7371 72.6774 24.2428C74.9696 13.1357 73.0274 5.0011 67.112 1.61849C61.4092 -1.64273 53.1816 1.19971 45.0161 8.24667C36.521 0.767013 28.3748 -1.51647 22.4657 1.87554C16.7681 5.14614 15.1423 13.6348 17.2209 24.1695C7.19574 27.6355 0.264557 33.4112 0.264557 39.9131Z" fill="white"/>
<path d="M70.5097 27.7128C69.6662 27.4258 68.8154 27.16 67.9584 26.9156C68.1005 26.3428 68.2319 25.7675 68.3526 25.19C70.2838 15.8933 69.0211 8.4039 64.709 5.93851C60.5747 3.57398 53.8129 6.03937 46.9838 11.9326C46.3109 12.5146 45.6529 13.1134 45.0105 13.7284C44.5803 13.3195 44.1425 12.9185 43.6973 12.5256C36.5402 6.22372 29.3663 3.56842 25.0587 6.04111C20.9283 8.41224 19.7049 15.4533 21.4436 24.2637C21.6165 25.1362 21.8119 26.0042 22.0293 26.8669C21.0142 27.1528 20.0339 27.4575 19.096 27.7816C10.7053 30.6825 5.34656 35.2293 5.34656 39.9451C5.34656 44.8161 11.0989 49.7016 19.8389 52.6637C20.5476 52.9028 21.2621 53.1243 21.982 53.3281C21.7481 54.2574 21.5405 55.1931 21.3594 56.134C19.7017 64.7914 20.9964 71.6655 25.1159 74.022C29.3709 76.455 36.5122 73.9541 43.4661 67.9263C44.0158 67.4498 44.5675 66.9444 45.1199 66.4147C45.8158 67.0804 46.5302 67.7268 47.2623 68.3531C53.9981 74.1009 60.6505 76.422 64.7665 74.0592C69.0176 71.6188 70.3989 64.2341 68.6051 55.2495C68.4684 54.5632 68.3088 53.8623 68.1299 53.1486C68.6315 53.0018 69.1236 52.8502 69.6037 52.6922C78.6896 49.7072 84.6008 44.8811 84.6008 39.9451C84.6008 35.2122 79.0694 30.6349 70.5097 27.7128Z" fill="#53C1DE"/>
<path d="M68.5387 49.5055C68.1055 49.6477 67.6608 49.7851 67.2076 49.9183C66.2044 46.7695 64.8505 43.4209 63.1943 39.9618C64.7751 36.5844 66.0764 33.279 67.0515 30.1503C67.8621 30.3834 68.6492 30.6286 69.4075 30.8877C76.7417 33.391 81.2152 37.0929 81.2152 39.9451C81.2152 42.9834 76.3836 46.9277 68.539 49.5055H68.5387ZM65.2837 55.9016C66.0768 59.8745 66.1901 63.4665 65.6646 66.2745C65.1925 68.7976 64.2434 70.4797 63.0698 71.1535C60.5721 72.5872 55.2305 70.7236 49.4705 65.8081C48.81 65.2446 48.1446 64.6429 47.4775 64.0063C49.7107 61.5841 51.9426 58.7681 54.1207 55.6411C57.9523 55.3041 61.5721 54.7528 64.8548 54.0004C65.0161 54.6474 65.1599 55.2815 65.2837 55.9016ZM32.3658 70.9058C29.9256 71.7604 27.9821 71.7848 26.8074 71.1131C24.3073 69.6836 23.2684 64.1636 24.6857 56.7601C24.8543 55.8851 25.0473 55.015 25.2645 54.1507C28.5107 54.8627 32.1041 55.375 35.9448 55.6839C38.1374 58.7437 40.4337 61.5563 42.748 64.0192C42.2562 64.491 41.7527 64.9508 41.238 65.398C38.163 68.0637 35.0816 69.9545 32.3661 70.9058H32.3658ZM20.9338 49.4867C17.0692 48.1768 13.8777 46.4745 11.6901 44.6171C9.72447 42.9476 8.73184 41.2902 8.73184 39.9451C8.73184 37.0836 13.0345 33.4331 20.2105 30.9521C21.1112 30.642 22.0209 30.3582 22.9383 30.1009C23.9302 33.2999 25.2312 36.6446 26.8011 40.0269C25.2108 43.4596 23.8913 46.8575 22.8902 50.094C22.2332 49.9075 21.5808 49.705 20.9338 49.4867ZM24.7661 23.6189C23.2764 16.07 24.2655 10.3757 26.7548 8.94686C29.4065 7.42477 35.2693 9.59521 41.4488 15.0362C41.8438 15.3841 42.2405 15.7483 42.6379 16.1249C40.3355 18.5768 38.0602 21.3681 35.8866 24.4102C32.1592 24.7528 28.591 25.303 25.3108 26.0401C25.1087 25.2376 24.9271 24.4301 24.7661 23.6185V23.6189ZM58.9527 31.99C58.1779 30.6628 57.3744 29.3524 56.5427 28.0596C59.0716 28.3761 61.4942 28.7969 63.7692 29.3121C63.0863 31.4829 62.235 33.7528 61.2326 36.0797C60.5001 34.7016 59.74 33.3381 58.9527 31.99ZM45.0114 18.5243C46.5729 20.2018 48.1369 22.0752 49.6753 24.1076C46.5547 23.9613 43.4289 23.9606 40.3082 24.1055C41.848 22.0919 43.4253 20.2213 45.0114 18.5243ZM30.9807 32.0129C30.2032 33.3503 29.4573 34.7054 28.7436 36.0773C27.7576 33.7583 26.9141 31.4783 26.2252 29.2766C28.4865 28.7747 30.8979 28.3646 33.4103 28.0533C32.5693 29.3541 31.7592 30.6744 30.9807 32.0129ZM33.4826 52.0766C30.887 51.7893 28.4391 51.4001 26.1785 50.9121C26.8783 48.6714 27.7404 46.3423 28.7474 43.9736C29.4641 45.3465 30.2133 46.7025 30.9943 48.0404C31.7913 49.4052 32.6209 50.751 33.4826 52.0766ZM45.105 61.6032C43.5003 59.886 41.8999 57.9869 40.3366 55.9441C41.8539 56.0032 43.4011 56.0331 44.9735 56.0331C46.5891 56.0331 48.186 55.9973 49.7577 55.9277C48.2144 58.0077 46.6561 59.9096 45.105 61.6032ZM61.2648 43.8529C62.3241 46.2474 63.2171 48.5639 63.9263 50.7667C61.6282 51.2867 59.1473 51.7055 56.5332 52.0164C57.3709 50.6995 58.1821 49.3661 58.9664 48.0171C59.7636 46.6461 60.5299 45.2577 61.2648 43.8529ZM56.0334 46.3399C54.8328 48.4081 53.5648 50.437 52.2312 52.4234C49.8798 52.59 47.4498 52.6759 44.9735 52.6759C42.5074 52.6759 40.1082 52.5997 37.7978 52.4512C36.4297 50.4694 35.1377 48.437 33.9245 46.3583C32.717 44.2907 31.5891 42.1783 30.5433 40.0258C31.5865 37.8726 32.7109 35.7592 33.9143 33.6898V33.6905C35.1174 31.6207 36.3992 29.597 37.7572 27.6237C40.1142 27.447 42.5309 27.3545 44.9739 27.3545C47.4277 27.3545 49.8475 27.4477 52.2039 27.6258C53.5481 29.5961 54.8217 31.6127 56.0225 33.6721C57.23 35.7368 58.3695 37.84 59.4392 39.9782C58.3805 42.1382 57.2447 44.2601 56.0337 46.3399H56.0334ZM63.0179 8.84703C65.6716 10.3649 66.7039 16.4856 65.0364 24.5124C64.9271 25.0353 64.8083 25.5562 64.6801 26.0749C61.3921 25.3225 57.8215 24.7625 54.0832 24.4147C51.9054 21.3396 49.649 18.5434 47.3839 16.1232C47.9774 15.5557 48.5851 15.003 49.2064 14.4655C55.0576 9.41573 60.5261 7.42199 63.0179 8.84703Z" fill="white"/>
<path d="M44.9736 32.927C48.8824 32.927 52.0507 36.0693 52.0507 39.9451C52.0507 43.8213 48.8824 46.9635 44.9736 46.9635C41.0652 46.9635 37.8965 43.8213 37.8965 39.9451C37.8965 36.0693 41.0652 32.927 44.9736 32.927Z" fill="#53C1DE"/>
</g>
<defs>
<clipPath id="clip0">
<rect width="89.7959" height="80" fill="white"/>
</clipPath>
</defs>
</svg>
