<svg width="80" height="80" viewBox="0 0 80 80" fill="none" xmlns="http://www.w3.org/2000/svg">
<g clip-path="url(#clip0)">
<path d="M79.4534 39.0184L76.095 36.9394C76.0666 36.613 76.0348 36.2869 75.9994 35.9613L78.8856 33.2691C79.0299 33.135 79.1375 32.9661 79.1979 32.7786C79.2584 32.5911 79.2697 32.3913 79.2309 32.1981C79.193 32.0049 79.1062 31.8245 78.9787 31.6744C78.8512 31.5243 78.6874 31.4094 78.5028 31.3406L74.8131 29.9609C74.7204 29.6423 74.6241 29.3248 74.524 29.0084L76.8256 25.8119C76.9409 25.6521 77.0134 25.4655 77.0363 25.2698C77.0591 25.074 77.0315 24.8757 76.9562 24.6937C76.8808 24.5116 76.7601 24.3519 76.6056 24.2296C76.4511 24.1073 76.2679 24.0265 76.0734 23.995L72.1828 23.3622C72.0315 23.0672 71.874 22.7766 71.7153 22.4884L73.35 18.9C73.4323 18.7209 73.4672 18.5238 73.4515 18.3273C73.4357 18.1309 73.3698 17.9418 73.26 17.7781C73.1511 17.614 73.0018 17.4805 72.8264 17.3907C72.6511 17.3008 72.4556 17.2576 72.2587 17.265L68.31 17.4025C68.106 17.1471 67.8981 16.8948 67.6862 16.6459L68.5937 12.7997C68.6391 12.6079 68.6346 12.4076 68.5807 12.218C68.5268 12.0284 68.4252 11.8558 68.2856 11.7166C68.1464 11.5772 67.9739 11.4757 67.7844 11.4218C67.5949 11.3679 67.3949 11.3633 67.2031 11.4084L63.3578 12.315C63.1082 12.1034 62.8554 11.8954 62.5997 11.6913L62.7378 7.74282C62.7452 7.54598 62.702 7.35053 62.6122 7.17517C62.5225 6.99981 62.3893 6.85041 62.2253 6.74126C62.0616 6.63165 61.8725 6.56577 61.6762 6.54991C61.4798 6.53405 61.2826 6.56872 61.1034 6.65063L57.5159 8.28626C57.2265 8.12655 56.9353 7.97029 56.6422 7.81751L56.0078 3.92626C55.976 3.73195 55.8952 3.54897 55.7729 3.39466C55.6507 3.24035 55.491 3.11982 55.3091 3.04448C55.1272 2.96915 54.9291 2.94151 54.7335 2.96419C54.5379 2.98687 54.3514 3.05911 54.1915 3.17407L50.9928 5.47564C50.6781 5.37564 50.3615 5.27907 50.0422 5.18751L48.6625 1.4972C48.5939 1.31232 48.479 1.14814 48.3288 1.02033C48.1786 0.892529 47.9981 0.805374 47.8047 0.767199C47.6116 0.729215 47.4121 0.741014 47.2249 0.801483C47.0377 0.861952 46.869 0.9691 46.7347 1.11282L44.0425 4.00126C43.7169 3.96477 43.3908 3.93289 43.0644 3.90564L40.9853 0.546262C40.8817 0.378865 40.737 0.240709 40.5651 0.144897C40.3931 0.0490853 40.1995 -0.00120544 40.0026 -0.00120544C39.8058 -0.00120544 39.6122 0.0490853 39.4402 0.144897C39.2682 0.240709 39.1236 0.378865 39.02 0.546262L36.9409 3.90564C36.6141 3.93286 36.2877 3.96473 35.9619 4.00126L33.269 1.11282C33.1348 0.968567 32.966 0.86105 32.7785 0.800506C32.591 0.739961 32.3911 0.728402 32.1979 0.766928C32.0046 0.805455 31.8245 0.892786 31.6745 1.02061C31.5246 1.14844 31.4099 1.3125 31.3412 1.4972L29.9619 5.18751C29.6422 5.27907 29.3259 5.37626 29.0103 5.47564L25.8122 3.17407C25.6524 3.05858 25.4657 2.98601 25.2699 2.96331C25.0741 2.9406 24.8757 2.96852 24.6937 3.04439C24.512 3.11989 24.3524 3.24049 24.2302 3.3948C24.108 3.5491 24.0272 3.73202 23.9953 3.92626L23.3609 7.81751C23.0672 7.9697 22.7769 8.12626 22.4872 8.28626L18.8994 6.65032C18.7203 6.56836 18.5232 6.53369 18.3269 6.54961C18.1306 6.56553 17.9416 6.63151 17.7781 6.74126C17.614 6.85034 17.4807 6.99971 17.3908 7.17507C17.301 7.35043 17.2577 7.54592 17.265 7.74282L17.4025 11.6913C17.147 11.8958 16.8943 12.1037 16.6444 12.315L12.799 11.4088C12.6072 11.3638 12.4071 11.3685 12.2176 11.4223C12.0281 11.4762 11.8554 11.5775 11.7159 11.7166C11.5764 11.8558 11.4748 12.0284 11.4208 12.218C11.3669 12.4076 11.3624 12.6079 11.4078 12.7997L12.3137 16.6459C12.1034 16.895 11.8956 17.1472 11.6915 17.4025L7.7428 17.265C7.54615 17.2588 7.35115 17.3026 7.17603 17.3923C7.00092 17.482 6.85143 17.6146 6.74155 17.7778C6.63197 17.9415 6.56609 18.1306 6.55017 18.3269C6.53426 18.5233 6.56883 18.7205 6.65061 18.8997L8.28624 22.4884C8.12717 22.7766 7.96999 23.0672 7.81749 23.3622L3.92717 23.995C3.73276 24.0267 3.54968 24.1075 3.39528 24.2299C3.24088 24.3522 3.12028 24.5119 3.04494 24.6939C2.96959 24.8759 2.94199 25.0741 2.96475 25.2698C2.98751 25.4654 3.05987 25.652 3.17499 25.8119L5.47655 29.0088C5.37655 29.3244 5.27936 29.6413 5.18749 29.9609L1.49749 31.3406C1.3132 31.4099 1.14964 31.525 1.02226 31.6751C0.894891 31.8251 0.807924 32.0053 0.769595 32.1983C0.731265 32.3914 0.742841 32.5911 0.803226 32.7785C0.863611 32.9658 0.970808 33.1347 1.11467 33.2691L4.00124 35.9609C3.9653 36.2859 3.93342 36.6131 3.90592 36.9394L0.54686 39.0184C0.379489 39.1221 0.241387 39.2667 0.145672 39.4388C0.0499573 39.6108 -0.000192908 39.8044 -1.4786e-05 40.0013C-1.4786e-05 40.4025 0.207173 40.7741 0.547173 40.9834L3.90592 43.0625C3.93342 43.3897 3.9653 43.7163 4.00124 44.0409L1.11436 46.7337C0.97024 46.868 0.862815 47.0368 0.802287 47.2242C0.741758 47.4116 0.730135 47.6113 0.768521 47.8045C0.806906 47.9976 0.894027 48.1777 1.02161 48.3277C1.14919 48.4778 1.313 48.5927 1.49749 48.6616L5.18749 50.0412C5.27936 50.3606 5.37655 50.6778 5.47655 50.9934L3.17499 54.1906C3.05966 54.3504 2.98714 54.5371 2.96432 54.7328C2.94151 54.9286 2.96916 55.1269 3.04465 55.3089C3.12013 55.491 3.24094 55.6507 3.39558 55.7728C3.55022 55.895 3.73354 55.9756 3.92811 56.0069L7.8178 56.6397C7.96999 56.9347 8.12592 57.2253 8.28655 57.5147L6.65061 61.1022C6.56868 61.2814 6.53403 61.4786 6.54995 61.675C6.56587 61.8714 6.63183 62.0604 6.74155 62.2241C6.85064 62.388 6.99997 62.5213 7.17527 62.6111C7.35057 62.7009 7.54598 62.7442 7.7428 62.7369L11.6897 62.5987C11.8956 62.8553 12.1028 63.1069 12.3137 63.3569L11.4078 67.2037C11.3624 67.3952 11.3669 67.5951 11.4209 67.7844C11.4748 67.9736 11.5764 68.1459 11.7159 68.2847C11.855 68.4244 12.0277 68.526 12.2174 68.5798C12.407 68.6335 12.6073 68.6377 12.799 68.5919L16.6444 67.6862C16.8944 67.8987 17.1475 68.105 17.4028 68.3081L17.2653 72.2578C17.2582 72.4546 17.3016 72.65 17.3913 72.8253C17.481 73.0006 17.6141 73.15 17.7778 73.2594C17.9416 73.3688 18.1306 73.4344 18.3269 73.4501C18.5232 73.4658 18.7203 73.431 18.8994 73.3491L22.4872 71.7144C22.7761 71.8749 23.0673 72.0311 23.3609 72.1828L23.9953 76.0719C24.0266 76.2664 24.1073 76.4497 24.2295 76.6042C24.3518 76.7588 24.5116 76.8794 24.6937 76.9547C24.8757 77.0301 25.074 77.0578 25.2697 77.0352C25.4654 77.0126 25.6521 76.9405 25.8122 76.8256L29.0087 74.5225C29.3244 74.6225 29.6415 74.7203 29.9609 74.8122L31.3406 78.5009C31.4093 78.6855 31.5242 78.8495 31.6743 78.977C31.8245 79.1045 32.0048 79.1914 32.1981 79.2294C32.3912 79.2683 32.591 79.257 32.7784 79.1965C32.9659 79.1359 33.1346 79.0283 33.2684 78.8837L35.9612 75.9969C36.2862 76.0344 36.6131 76.0656 36.9403 76.0947L39.0194 79.4534C39.1231 79.6206 39.2677 79.7585 39.4396 79.8542C39.6114 79.9499 39.8048 80.0002 40.0015 80.0003C40.1984 80.0002 40.3919 79.95 40.5639 79.8543C40.7358 79.7586 40.8806 79.6206 40.9844 79.4534L43.0634 76.0947C43.3906 76.0656 43.7172 76.0344 44.0419 75.9969L46.734 78.8837C46.8679 79.0281 47.0366 79.1357 47.2239 79.1962C47.4113 79.2568 47.611 79.2682 47.8041 79.2294C47.9973 79.1913 48.1776 79.1043 48.3277 78.9768C48.4778 78.8493 48.5927 78.6855 48.6615 78.5009L50.0412 74.8122C50.3606 74.7203 50.6781 74.6225 50.9937 74.5225L54.1909 76.8256C54.3509 76.9406 54.5375 77.0128 54.7332 77.0354C54.9289 77.058 55.1271 77.0302 55.309 76.9547C55.491 76.8792 55.6506 76.7585 55.7728 76.604C55.895 76.4495 55.9756 76.2663 56.0072 76.0719L56.6415 72.1828C56.935 72.0306 57.2253 71.8725 57.515 71.7141L61.1028 73.3491C61.2819 73.4313 61.479 73.4663 61.6754 73.4507C61.8718 73.4351 62.061 73.3695 62.2249 73.2601C62.3887 73.1507 62.5219 73.0011 62.6115 72.8257C62.7012 72.6502 62.7445 72.4547 62.7372 72.2578L62.5997 68.3084C62.8553 68.1051 63.1078 67.8976 63.3569 67.6862L67.2025 68.5919C67.5931 68.6837 68.0025 68.57 68.2847 68.2847C68.4242 68.1459 68.5258 67.9736 68.5797 67.7844C68.6337 67.5951 68.6382 67.3952 68.5928 67.2037L67.6872 63.3569C67.8981 63.1069 68.1059 62.8553 68.3091 62.5987L72.2578 62.7369C72.4546 62.7443 72.65 62.7011 72.8253 62.6113C73.0006 62.5216 73.15 62.3884 73.259 62.2244C73.3689 62.0607 73.435 61.8715 73.4508 61.6749C73.4666 61.4784 73.4317 61.2811 73.3494 61.1019L71.7144 57.515C71.874 57.2253 72.0309 56.9347 72.1822 56.64L76.0728 56.0069C76.2673 55.9756 76.4506 55.895 76.605 55.7726C76.7594 55.6503 76.8798 55.4903 76.9547 55.3081C77.0301 55.1262 77.0578 54.9281 77.0351 54.7325C77.0124 54.5369 76.9401 54.3504 76.825 54.1906L74.5234 50.9937C74.6228 50.6778 74.72 50.3606 74.8125 50.0412L78.5019 48.6616C78.6865 48.5929 78.8505 48.4779 78.978 48.3277C79.1056 48.1775 79.1924 47.9971 79.2303 47.8038C79.2692 47.6107 79.2578 47.411 79.1973 47.2236C79.1368 47.0362 79.0291 46.8675 78.8847 46.7337L75.9987 44.0409C76.0337 43.7159 76.0659 43.3891 76.094 43.0628L79.4528 40.9834C79.6202 40.88 79.7584 40.7355 79.8542 40.5636C79.95 40.3916 80.0002 40.1981 80 40.0013C80 39.6009 79.7937 39.2287 79.4534 39.0184ZM56.9747 66.8797C55.6922 66.6031 54.8765 65.3391 55.1519 64.0525C55.4262 62.7675 56.6894 61.9497 57.9715 62.2262C59.254 62.5009 60.0709 63.7672 59.7959 65.0512C59.5209 66.3356 58.2565 67.1544 56.9747 66.8797ZM55.8334 59.1612C55.5551 59.1016 55.2678 59.0973 54.9879 59.1488C54.7079 59.2003 54.4409 59.3064 54.202 59.4612C53.9632 59.6159 53.7571 59.8163 53.5958 60.0507C53.4344 60.2852 53.3208 60.5491 53.2615 60.8275L52.069 66.3922C48.3894 68.0622 44.3034 68.99 40 68.99C35.5981 68.99 31.4231 68.0162 27.6781 66.275L26.4862 60.7106C26.2356 59.5397 25.0844 58.7937 23.915 59.045L19.0025 60.1C18.0895 59.1603 17.2409 58.1601 16.4625 57.1062H40.3656C40.6359 57.1062 40.8162 57.0572 40.8162 56.8109V48.3556C40.8162 48.1097 40.6359 48.0606 40.3653 48.0606H33.375V42.7013H40.9359C41.6259 42.7013 44.6262 42.8981 45.5853 46.7331C45.8859 47.9125 46.5453 51.7488 46.9966 52.9769C47.4459 54.3544 49.2756 57.1059 51.2256 57.1059H63.1365C63.2719 57.1059 63.4162 57.0906 63.5684 57.0631C62.742 58.1855 61.8367 59.2475 60.8594 60.2412L55.8337 59.1612H55.8334ZM22.774 66.7634C21.4912 67.0403 20.2284 66.2225 19.9525 64.9375C19.6781 63.6503 20.4937 62.3869 21.7762 62.1103C23.059 61.8359 24.3225 62.6537 24.5975 63.9384C24.8719 65.2228 24.0556 66.4884 22.7737 66.7634H22.774ZM13.7062 29.9947C14.2384 31.1953 13.6969 32.6025 12.4978 33.1338C11.2987 33.6666 9.8953 33.1244 9.36342 31.9228C8.83123 30.7213 9.37249 29.3166 10.5719 28.7838C10.8571 28.6572 11.1645 28.5882 11.4765 28.5806C11.7885 28.5729 12.0989 28.6269 12.39 28.7393C12.6811 28.8518 12.9472 29.0205 13.173 29.2358C13.3989 29.4512 13.5801 29.7089 13.7062 29.9944V29.9947ZM10.9194 36.6009L16.0369 34.3269C16.5622 34.0932 16.9733 33.6605 17.1798 33.1239C17.3863 32.5872 17.3713 31.9906 17.1381 31.465L16.0844 29.0819H20.2294V47.7656H11.8665C11.1252 45.156 10.7502 42.456 10.7522 39.7431C10.7522 38.6813 10.8094 37.6319 10.9194 36.6006V36.6009ZM33.3762 34.7863V29.2791H43.2469C43.7569 29.2791 46.8469 29.8684 46.8469 32.1791C46.8469 34.0975 44.4769 34.7853 42.5278 34.7853H33.3762V34.7863ZM69.2487 39.7431C69.2487 40.4738 69.2219 41.1969 69.1684 41.9144H66.1675C65.8672 41.9144 65.7462 42.1119 65.7462 42.4059V43.7841C65.7462 47.0278 63.9172 47.7334 62.3144 47.9131C60.7881 48.085 59.0956 47.2741 58.8872 46.34C57.9865 41.2756 56.4862 40.1941 54.1169 38.325C57.0575 36.4578 60.1169 33.7031 60.1169 30.0156C60.1169 26.0344 57.3875 23.5266 55.5269 22.2969C52.9169 20.5763 50.0269 20.2313 49.2472 20.2313H18.2122C22.4206 15.5344 28.1244 12.2072 34.5753 10.9966L38.2334 14.8341C38.4297 15.0401 38.6646 15.2053 38.9249 15.3204C39.1851 15.4354 39.4654 15.498 39.7499 15.5046C40.0343 15.5112 40.3172 15.4615 40.5825 15.3586C40.8477 15.2557 41.0901 15.1014 41.2956 14.9047L45.3887 10.9897C53.9653 12.5866 61.2269 17.9253 65.4115 25.25L62.6094 31.5791C62.1256 32.6744 62.6194 33.9553 63.7115 34.4406L69.1066 36.8369C69.1997 37.7947 69.2487 38.7622 69.2487 39.7431ZM38.235 7.73188C39.1828 6.82407 40.6862 6.86001 41.5937 7.80907C42.4994 8.76095 42.465 10.2659 41.515 11.1731C40.5672 12.0813 39.0637 12.0459 38.1562 11.095C37.7214 10.6382 37.4855 10.0276 37.5002 9.39716C37.515 8.76668 37.7792 8.1678 38.235 7.73188ZM66.0422 30.11C66.1683 29.8246 66.3494 29.5669 66.5752 29.3515C66.801 29.1362 67.067 28.9675 67.3581 28.8551C67.6492 28.7427 67.9596 28.6889 68.2715 28.6966C68.5834 28.7043 68.8908 28.7734 69.1759 28.9C70.3753 29.4319 70.9165 30.8384 70.3844 32.0391C70.2583 32.3246 70.0772 32.5825 69.8514 32.7979C69.6256 33.0134 69.3595 33.1822 69.0684 33.2947C68.7772 33.4072 68.4667 33.4611 68.1547 33.4534C67.8427 33.4458 67.5352 33.3766 67.25 33.25C66.0522 32.7178 65.5109 31.3125 66.0422 30.11Z" fill="#D0D0D0"/>
</g>
<defs>
<clipPath id="clip0">
<rect width="80" height="80" fill="white"/>
</clipPath>
</defs>
</svg>
