<svg width="45" height="45" viewBox="0 0 45 45" fill="none" xmlns="http://www.w3.org/2000/svg">
<path d="M17.471 32.0162C9.35476 32.0162 2.75146 25.4129 2.75146 17.2967C2.75146 9.18052 9.35476 2.57812 17.471 2.57812C25.5872 2.57812 32.1896 9.18052 32.1896 17.2967C32.1896 25.4129 25.5872 32.0162 17.471 32.0162ZM17.471 4.37813C10.3502 4.37813 4.55146 10.1705 4.55146 17.2967C4.55146 24.4229 10.3502 30.2162 17.471 30.2162C24.5918 30.2162 30.3896 24.4202 30.3896 17.2967C30.3896 10.1732 24.5945 4.37813 17.471 4.37813Z" fill="white"/>
<path d="M38.1294 42.553C37.6224 42.5539 37.1203 42.4546 36.6518 42.2608C36.1834 42.0669 35.7578 41.7824 35.3997 41.4235L24.3045 30.3301C24.1358 30.1614 24.041 29.9325 24.041 29.6938C24.041 29.4552 24.1358 29.2263 24.3045 29.0575L28.8 24.5701C28.9688 24.4014 29.1977 24.3066 29.4363 24.3066C29.675 24.3066 29.9039 24.4014 30.0726 24.5701L41.2965 35.7931C41.9843 36.4824 42.3706 37.4164 42.3706 38.3901C42.3706 39.3638 41.9843 40.2978 41.2965 40.987L40.86 41.4235C40.5017 41.7824 40.0761 42.067 39.6075 42.2608C39.1388 42.4547 38.6365 42.554 38.1294 42.553ZM26.2143 29.6929L36.6723 40.1509C37.059 40.5369 37.5831 40.7536 38.1294 40.7536C38.6758 40.7536 39.1998 40.5369 39.5865 40.1509L40.0239 39.7144C40.3745 39.3629 40.5714 38.8866 40.5714 38.3901C40.5714 37.8936 40.3745 37.4173 40.0239 37.0657L29.43 26.4745L26.2143 29.6929Z" fill="white"/>
</svg>
