<svg width="20" height="21" viewBox="0 0 20 21" fill="none" xmlns="http://www.w3.org/2000/svg">
<path d="M7.50023 15C3.36467 15 0 11.6353 0 7.49977C0 3.36421 3.36467 0 7.50023 0C11.6358 0 15 3.36421 15 7.49977C15 11.6353 11.6358 15 7.50023 15ZM7.50023 0.917179C3.87187 0.917179 0.917179 3.86866 0.917179 7.49977C0.917179 11.1309 3.87187 14.0828 7.50023 14.0828C11.1286 14.0828 14.0828 11.1295 14.0828 7.49977C14.0828 3.87004 11.13 0.917179 7.50023 0.917179Z" fill="#426DA9"/>
<path d="M17.9175 21C17.6686 21.0005 17.422 20.9461 17.192 20.8398C16.962 20.7336 16.7531 20.5777 16.5772 20.381L11.1294 14.3012C11.0465 14.2087 11 14.0833 11 13.9525C11 13.8217 11.0465 13.6962 11.1294 13.6037L13.3367 11.1444C13.4196 11.0519 13.532 11 13.6491 11C13.7663 11 13.8787 11.0519 13.9616 11.1444L19.4726 17.2952C19.8103 17.673 20 18.1848 20 18.7185C20 19.2521 19.8103 19.764 19.4726 20.1417L19.2583 20.381C19.0824 20.5777 18.8734 20.7336 18.6433 20.8398C18.4132 20.9461 18.1665 21.0005 17.9175 21ZM12.0671 13.952L17.2021 19.6835C17.392 19.895 17.6493 20.0138 17.9175 20.0138C18.1858 20.0138 18.4431 19.895 18.633 19.6835L18.8478 19.4443C19.0199 19.2516 19.1166 18.9906 19.1166 18.7185C19.1166 18.4464 19.0199 18.1854 18.8478 17.9927L13.6461 12.1881L12.0671 13.952Z" fill="#426DA9"/>
</svg>
