<svg width="160" height="160" viewBox="0 0 160 160" fill="none" xmlns="http://www.w3.org/2000/svg">
<path d="M92.5 98.85V81.0125C99.2125 85.2025 107.03 87.5 115 87.5C138.435 87.5 157.5 68.435 157.5 45C157.5 21.565 138.435 2.5 115 2.5C93.525 2.5 75.765 18.525 72.9375 39.2375C68.3425 36.28 63.1225 34.21 57.5 33.2075V20C57.5 15.865 54.135 12.5 50 12.5H20C15.865 12.5 12.5 15.865 12.5 20V40C12.5 43.415 14.8075 46.27 17.935 47.175C11.2725 54.8575 7.5 64.7125 7.5 75V98.85C4.44 101.6 2.5 105.573 2.5 110C2.5 118.272 9.2275 125 17.5 125V145C17.5 151.893 23.1075 157.5 30 157.5H70C76.8925 157.5 82.5 151.893 82.5 145V125C90.7725 125 97.5 118.272 97.5 110C97.5 105.573 95.56 101.6 92.5 98.85ZM115 7.5C120.58 7.5 125.635 13.4675 128.865 22.5H101.135C104.365 13.4675 109.42 7.5 115 7.5ZM130.397 27.5C131.553 32.0525 132.262 37.145 132.438 42.5H97.56C97.735 37.145 98.445 32.0525 99.6 27.5H130.397ZM152.372 42.5H137.435C137.277 37.1525 136.63 32.1 135.555 27.5H148.14C150.542 32.03 152.015 37.1125 152.372 42.5ZM115 82.5C109.42 82.5 104.365 76.5325 101.135 67.5H128.865C125.635 76.5325 120.58 82.5 115 82.5ZM91.82 67.5H95.84C97.4975 72.5975 99.6925 76.9775 102.315 80.305C98.8225 79.05 95.5325 77.2475 92.5 74.96C92.495 72.42 92.255 69.9275 91.82 67.5ZM99.6025 62.5C98.4475 57.9475 97.7375 52.855 97.5625 47.5H132.44C132.265 52.855 131.555 57.9475 130.4 62.5H99.6025ZM137.435 47.5H152.372C152.015 52.8875 150.542 57.97 148.14 62.5H135.555C136.63 57.9 137.277 52.8475 137.435 47.5ZM92.565 42.5H77.6275C77.985 37.1125 79.4575 32.03 81.86 27.5H94.445C93.37 32.1 92.7225 37.1525 92.565 42.5ZM92.565 47.5C92.7225 52.8475 93.37 57.9 94.445 62.5H90.5875C88.8725 56.9425 86.05 51.8525 82.3525 47.5H92.565ZM127.745 80.2225C130.34 76.905 132.515 72.5575 134.16 67.5H144.93C140.587 73.26 134.643 77.7175 127.745 80.2225ZM144.93 22.5H134.16C132.515 17.4425 130.34 13.095 127.745 9.7775C134.643 12.2825 140.587 16.74 144.93 22.5ZM102.255 9.7775C99.66 13.095 97.485 17.4425 95.84 22.5H85.07C89.4125 16.74 95.3575 12.2825 102.255 9.7775ZM17.5 20C17.5 18.62 18.62 17.5 20 17.5H50C51.38 17.5 52.5 18.62 52.5 20V40C52.5 41.38 51.38 42.5 50 42.5H32.5V51.91C32.5 52.46 31.625 52.6625 31.3825 52.1725L26.545 42.5H20C18.62 42.5 17.5 41.38 17.5 40V20ZM12.5 75C12.5 64.8925 16.63 55.265 23.82 48.23L26.9125 54.4125C27.865 56.315 29.78 57.5 31.91 57.5C34.9925 57.5 37.5 54.9925 37.5 51.91V47.5H50C54.135 47.5 57.5 44.135 57.5 40V38.275C74.785 41.7825 87.5 57.0825 87.5 75V95.875C85.9325 95.32 84.255 95 82.5 95V75C82.5 68.1075 76.8925 62.5 70 62.5H30C23.1075 62.5 17.5 68.1075 17.5 75V95C15.745 95 14.0675 95.32 12.5 95.875V75ZM42.5 105C42.5 100.865 45.865 97.5 50 97.5C54.135 97.5 57.5 100.865 57.5 105C57.5 109.135 54.135 112.5 50 112.5C45.865 112.5 42.5 109.135 42.5 105ZM50 117.5C51.58 117.5 53.1025 117.73 54.5575 118.122L50 123.595L45.4425 118.125C46.8975 117.73 48.42 117.5 50 117.5ZM40.6775 120.218L50 131.408L59.325 120.22C64.2275 123.323 67.5 128.78 67.5 135V137.5H32.5V135C32.5 128.78 35.7725 123.32 40.6775 120.218ZM58.4425 114.157C60.92 111.872 62.5 108.628 62.5 105C62.5 98.1075 56.8925 92.5 50 92.5C43.1075 92.5 37.5 98.1075 37.5 105C37.5 108.628 39.08 111.872 41.5575 114.157C33.325 117.505 27.5 125.58 27.5 135V137.5H22.5V87.5H77.5V137.5H72.5V135C72.5 125.58 66.675 117.505 58.4425 114.157ZM77.5 82.5H22.5V75C22.5 70.865 25.865 67.5 30 67.5H70C74.135 67.5 77.5 70.865 77.5 75V82.5ZM7.5 110C7.5 104.485 11.985 100 17.5 100V120C11.985 120 7.5 115.515 7.5 110ZM70 152.5H30C25.865 152.5 22.5 149.135 22.5 145V142.5H77.5V145C77.5 149.135 74.135 152.5 70 152.5ZM82.5 120V100C88.015 100 92.5 104.485 92.5 110C92.5 115.515 88.015 120 82.5 120Z" fill="black"/>
<path d="M42.5 72.5H57.5V77.5H42.5V72.5Z" fill="#458ED3"/>
<path d="M22.5 27.5H27.5V32.5H22.5V27.5Z" fill="#458ED3"/>
<path d="M32.5 27.5H37.5V32.5H32.5V27.5Z" fill="#458ED3"/>
<path d="M42.5 27.5H47.5V32.5H42.5V27.5Z" fill="#458ED3"/>
<path d="M142.5 152.5H137.5V102.5H122.5V152.5H117.5V112.5H102.5V157.5H157.5V122.5H142.5V152.5ZM112.5 152.5H107.5V117.5H112.5V152.5ZM127.5 107.5H132.5V152.5H127.5V107.5ZM147.5 127.5H152.5V152.5H147.5V127.5Z" fill="#458ED3"/>
</svg>
