<svg width="46" height="45" viewBox="0 0 46 45" fill="none" xmlns="http://www.w3.org/2000/svg">
<path d="M22.841 44.134C18.4965 44.1353 14.2491 42.8672 10.6364 40.4902C7.02359 38.1131 4.20772 34.7339 2.54501 30.78C0.882295 26.8261 0.447456 22.4753 1.2955 18.2779C2.14355 14.0805 4.23638 10.2252 7.30921 7.19977C11.4285 3.14196 17.0155 0.862305 22.841 0.862305C28.6666 0.862305 34.2536 3.14196 38.3728 7.19977C42.4921 11.2576 44.8063 16.7612 44.8063 22.4998C44.8063 28.2384 42.4921 33.742 38.3728 37.7998C36.3378 39.8149 33.9172 41.4123 31.2511 42.4996C28.585 43.5869 25.7265 44.1424 22.841 44.134ZM22.841 2.66557C18.8588 2.66565 14.9661 3.82895 11.655 6.00836C8.34393 8.18778 5.76327 11.2854 4.23936 14.9096C2.71544 18.5338 2.31671 22.5217 3.09358 26.3691C3.87045 30.2165 5.78803 33.7506 8.60384 36.5245C10.4699 38.3823 12.6903 39.8585 15.1374 40.8682C17.5845 41.878 20.21 42.4014 22.8632 42.4083C25.5163 42.4152 28.1446 41.9056 30.5971 40.9086C33.0496 39.9117 35.2779 38.4471 37.1539 36.5991C39.03 34.751 40.5168 32.556 41.5288 30.1401C42.5409 27.7242 43.0582 25.1351 43.0512 22.5216C43.0442 19.9081 42.5129 17.3217 41.4878 14.9111C40.4628 12.5005 38.9642 10.3133 37.0782 8.47507C35.2127 6.62776 32.9939 5.16315 30.5502 4.16597C28.1064 3.16878 25.4862 2.65882 22.841 2.66557Z" fill="white"/>
<path d="M10.1736 39.9149C9.96231 39.9146 9.75765 39.8422 9.59447 39.7099C9.43129 39.5777 9.31968 39.3939 9.27864 39.1897C9.23759 38.9855 9.26965 38.7736 9.36936 38.5901C9.46908 38.4066 9.63027 38.2629 9.8255 38.1833C9.84195 38.1761 11.5276 37.4894 13.2599 36.6101C16.464 34.9838 16.7536 34.2701 16.7637 34.2413C16.9765 33.3369 17.1029 32.4149 17.141 31.4873C16.7545 31.0742 16.0675 30.2957 15.7011 29.6189C15.3199 28.933 15.0063 28.2127 14.7646 27.4679C14.6504 27.4063 14.5429 27.3333 14.4439 27.2501C13.6482 26.5841 13.2434 25.2179 13.206 23.0741C13.1758 21.3812 13.4673 20.2481 14.0977 19.6082C14.1388 19.5659 14.1799 19.5281 14.221 19.493C14.1854 18.1736 14.221 14.9174 15.2744 12.833C16.6284 10.1699 22.2098 10.0889 22.8412 10.0889C23.0835 10.0889 23.3159 10.1837 23.4872 10.3525C23.6585 10.5213 23.7548 10.7502 23.7548 10.9889C23.7548 11.2276 23.6585 11.4565 23.4872 11.6253C23.3159 11.794 23.0835 11.8889 22.8412 11.8889C21.9004 11.9043 20.9623 11.9946 20.0363 12.1589C18.3717 12.4649 17.2314 13.0049 16.9089 13.6412C15.8126 15.8066 16.0666 19.9115 16.0693 19.9529C16.0773 20.0748 16.0601 20.197 16.0186 20.3121C15.9771 20.4272 15.9123 20.5328 15.8281 20.6225C15.7103 20.7473 15.5593 20.8371 15.3923 20.8817C15.3009 20.9951 15.0058 21.4973 15.0323 23.0417C15.0698 25.1684 15.4964 25.7417 15.607 25.8578C15.8073 25.8764 15.9957 25.9596 16.1431 26.0945C16.2904 26.2294 16.3885 26.4085 16.422 26.6039C16.422 26.6039 16.5791 27.4139 17.3137 28.7702C17.6307 29.3561 18.4347 30.2228 18.717 30.5072C18.8845 30.6754 18.9783 30.9016 18.9783 31.1372C18.9594 32.3277 18.8114 33.5128 18.537 34.6724C18.3707 35.3483 17.7248 36.3572 14.1762 38.168C12.349 39.1031 10.5948 39.8159 10.5217 39.8456C10.4113 39.8907 10.2931 39.9143 10.1736 39.9149Z" fill="white"/>
<path d="M35.651 39.9151C35.5319 39.9151 35.414 39.8922 35.3038 39.8476C35.2298 39.8179 33.4766 39.1051 31.6493 38.17C28.1007 36.3592 27.4539 35.3503 27.2876 34.6744C27.0138 33.515 26.8659 32.3303 26.8463 31.1401C26.8466 30.9044 26.9407 30.6782 27.1085 30.5101C27.3908 30.2257 28.1939 29.359 28.5119 28.7731C29.2428 27.4177 29.4027 26.6077 29.4045 26.5996C29.4379 26.4053 29.5357 26.2274 29.6827 26.0937C29.8296 25.96 30.0174 25.878 30.2167 25.8607C30.3309 25.7383 30.7558 25.1407 30.7923 23.0446C30.8197 21.5002 30.5182 20.9971 30.4333 20.8846C30.2286 20.831 30.0493 20.7091 29.9258 20.5397C29.8023 20.3703 29.7424 20.1639 29.7562 19.9558C29.7562 19.9144 30.0157 15.8095 28.9157 13.6441C28.5932 13.0087 27.4539 12.4678 25.7883 12.1618C24.8623 11.9974 23.9243 11.9071 22.9835 11.8918C22.7411 11.8918 22.5088 11.797 22.3374 11.6282C22.1661 11.4594 22.0698 11.2305 22.0698 10.9918C22.0698 10.7531 22.1661 10.5242 22.3374 10.3554C22.5088 10.1866 22.7411 10.0918 22.9835 10.0918C23.6148 10.0918 29.1962 10.1692 30.5493 12.8395C31.6054 14.9203 31.6393 18.1765 31.6036 19.4995C31.6447 19.5346 31.6858 19.5724 31.727 19.6147C32.3565 20.2546 32.6479 21.3877 32.6187 23.0806C32.5812 25.2244 32.1756 26.5906 31.3798 27.2566C31.2812 27.34 31.1741 27.413 31.06 27.4744C30.8183 28.2194 30.5044 28.9397 30.1226 29.6254C29.7572 30.3022 29.0701 31.0798 28.6827 31.4938C28.7229 32.4243 28.8502 33.3493 29.0628 34.2568C29.071 34.2775 29.3606 34.9921 32.5748 36.622C34.3062 37.5004 35.9818 38.1826 35.9991 38.1889C36.195 38.2682 36.3569 38.412 36.457 38.5958C36.5571 38.7796 36.5894 38.992 36.5481 39.1966C36.5069 39.4012 36.3948 39.5854 36.231 39.7176C36.0672 39.8498 35.8619 39.9218 35.6501 39.9214L35.651 39.9151Z" fill="white"/>
</svg>
