<svg width="336" height="53" viewBox="0 0 336 53" fill="none" xmlns="http://www.w3.org/2000/svg">
<path d="M9.64593 0V12.8485L28.9378 32.1212V41.7576H9.64593V12.8485L0 22.4848V51.3939H38.5837V28.9091L9.64593 0Z" fill="#007EB6"/>
<path d="M62.5378 38.5454H57.8756V51.3939H62.5378C64.2433 51.3939 65.8789 50.7171 67.0849 49.5123C68.2909 48.3075 68.9684 46.6735 68.9684 44.9697C68.9684 43.2658 68.2909 41.6318 67.0849 40.427C65.8789 39.2222 64.2433 38.5454 62.5378 38.5454ZM62.5378 49.7878H59.4832V40.1515H62.5378C63.8169 40.1515 65.0437 40.6591 65.9481 41.5627C66.8526 42.4663 67.3607 43.6918 67.3607 44.9697C67.3607 46.2475 66.8526 47.473 65.9481 48.3766C65.0437 49.2802 63.8169 49.7878 62.5378 49.7878Z" fill="#26272A"/>
<path d="M75.5598 38.5454H73.9522V51.3939H75.5598V38.5454Z" fill="#26272A"/>
<path d="M90.0287 49.7883C88.7496 49.7883 87.5228 49.2807 86.6184 48.3771C85.7139 47.4735 85.2058 46.248 85.2058 44.9701C85.2058 43.6923 85.7139 42.4667 86.6184 41.5632C87.5228 40.6596 88.7496 40.1519 90.0287 40.1519C90.6627 40.1339 91.2931 40.2538 91.876 40.5034C92.459 40.753 92.9807 41.1263 93.4048 41.5974L94.5301 40.4732C93.9644 39.8453 93.2688 39.3477 92.4916 39.015C91.7143 38.6822 90.874 38.5221 90.0287 38.5459C88.3232 38.5459 86.6876 39.2227 85.4816 40.4275C84.2756 41.6323 83.5981 43.2663 83.5981 44.9701C83.5981 46.6739 84.2756 48.308 85.4816 49.5127C86.6876 50.7175 88.3232 51.3944 90.0287 51.3944C90.874 51.4181 91.7143 51.2581 92.4916 50.9253C93.2688 50.5925 93.9644 50.095 94.5301 49.4671L93.4048 48.3428C92.9807 48.814 92.459 49.1873 91.876 49.4369C91.2931 49.6865 90.6627 49.8064 90.0287 49.7883Z" fill="#26272A"/>
<path d="M106.105 40.1515C107.059 40.1515 107.992 40.4341 108.785 40.9635C109.578 41.4929 110.196 42.2454 110.561 43.1258C110.926 44.0062 111.022 44.975 110.836 45.9096C110.649 46.8443 110.19 47.7028 109.516 48.3766C108.841 49.0505 107.982 49.5093 107.046 49.6953C106.111 49.8812 105.141 49.7857 104.26 49.4211C103.378 49.0564 102.625 48.4388 102.095 47.6465C101.565 46.8541 101.282 45.9226 101.282 44.9697C101.271 44.3339 101.389 43.7025 101.627 43.113C101.866 42.5236 102.221 41.9881 102.671 41.5385C103.121 41.0889 103.657 40.7344 104.247 40.4961C104.837 40.2578 105.469 40.1406 106.105 40.1515ZM106.105 38.5454C104.833 38.5454 103.59 38.9222 102.533 39.6281C101.475 40.334 100.651 41.3373 100.164 42.5112C99.6774 43.6851 99.5501 44.9768 99.7982 46.223C100.046 47.4691 100.659 48.6138 101.558 49.5123C102.457 50.4107 103.603 51.0226 104.851 51.2705C106.098 51.5183 107.391 51.3911 108.566 50.9049C109.741 50.4186 110.746 49.5952 111.452 48.5388C112.159 47.4823 112.536 46.2402 112.536 44.9697C112.536 43.2658 111.858 41.6318 110.652 40.427C109.446 39.2222 107.811 38.5454 106.105 38.5454Z" fill="#26272A"/>
<path d="M129.416 38.5454L125.397 48.1818L121.378 38.5454H118.967V51.3939H120.574V40.7939L124.915 51.3939H125.879L130.22 40.7939V51.3939H131.828V38.5454H129.416Z" fill="#26272A"/>
<path d="M143.081 44.9697H138.258V46.5758H143.081V44.9697Z" fill="#26272A"/>
<path d="M151.12 51.3939V40.1515H159.158V51.3939H160.766V38.5454H149.512V51.3939H151.12Z" fill="#26272A"/>
<path d="M172.823 38.5454H167.196V51.3939H168.804V46.5757H172.823C173.889 46.5757 174.911 46.1527 175.665 45.3997C176.419 44.6467 176.842 43.6254 176.842 42.5606C176.842 41.4957 176.419 40.4744 175.665 39.7214C174.911 38.9684 173.889 38.5454 172.823 38.5454ZM172.823 44.9697H168.804V40.1515H172.823C173.463 40.1515 174.076 40.4053 174.528 40.8571C174.98 41.3089 175.234 41.9216 175.234 42.5606C175.234 43.1995 174.98 43.8123 174.528 44.264C174.076 44.7158 173.463 44.9697 172.823 44.9697Z" fill="#26272A"/>
<path d="M188.096 40.1515C189.05 40.1515 189.982 40.4341 190.775 40.9635C191.568 41.4929 192.187 42.2454 192.552 43.1258C192.917 44.0062 193.012 44.975 192.826 45.9096C192.64 46.8443 192.181 47.7028 191.506 48.3766C190.832 49.0505 189.972 49.5093 189.037 49.6953C188.101 49.8812 187.131 49.7857 186.25 49.4211C185.369 49.0564 184.616 48.4388 184.086 47.6465C183.556 46.8541 183.273 45.9226 183.273 44.9697C183.262 44.3339 183.379 43.7025 183.618 43.113C183.856 42.5236 184.211 41.9881 184.661 41.5385C185.111 41.0889 185.647 40.7344 186.237 40.4961C186.827 40.2578 187.459 40.1406 188.096 40.1515ZM188.096 38.5454C186.824 38.5454 185.581 38.9222 184.523 39.6281C183.466 40.334 182.641 41.3373 182.155 42.5112C181.668 43.6851 181.541 44.9768 181.789 46.223C182.037 47.4691 182.649 48.6138 183.549 49.5123C184.448 50.4107 185.594 51.0226 186.841 51.2705C188.089 51.5183 189.382 51.3911 190.557 50.9049C191.732 50.4186 192.736 49.5952 193.443 48.5388C194.149 47.4823 194.526 46.2402 194.526 44.9697C194.526 43.2658 193.849 41.6318 192.643 40.427C191.437 39.2222 189.801 38.5454 188.096 38.5454Z" fill="#26272A"/>
<path d="M206.101 49.7875C204.822 49.7875 203.595 49.2799 202.691 48.3763C201.786 47.4727 201.278 46.2472 201.278 44.9693C201.278 43.6915 201.786 42.4659 202.691 41.5624C203.595 40.6588 204.822 40.1511 206.101 40.1511C206.735 40.1331 207.366 40.253 207.948 40.5026C208.531 40.7522 209.053 41.1255 209.477 41.5966L210.603 40.4724C209.858 39.7133 208.936 39.1509 207.92 38.8353C206.904 38.5198 205.825 38.461 204.781 38.6643C203.736 38.8677 202.759 39.3267 201.936 40.0003C201.113 40.6739 200.47 41.541 200.065 42.5239C199.659 43.5068 199.505 44.5748 199.614 45.6321C199.724 46.6894 200.095 47.703 200.693 48.5821C201.291 49.4611 202.098 50.1781 203.042 50.6688C203.986 51.1595 205.037 51.4085 206.101 51.3936C206.946 51.4173 207.787 51.2573 208.564 50.9245C209.341 50.5917 210.037 50.0942 210.603 49.4663L209.477 48.3421C209.043 48.8003 208.519 49.165 207.939 49.4135C207.358 49.6621 206.733 49.7894 206.101 49.7875Z" fill="#26272A"/>
<path d="M227.483 38.5454L223.464 48.1818L219.445 38.5454H217.033V51.3939H218.641V40.7939L222.982 51.3939H223.946L228.287 40.7939V51.3939H229.895V38.5454H227.483Z" fill="#26272A"/>
<path d="M242.756 40.1515C243.71 40.1515 244.642 40.4341 245.436 40.9635C246.229 41.4929 246.847 42.2454 247.212 43.1258C247.577 44.0062 247.672 44.975 247.486 45.9096C247.3 46.8443 246.841 47.7028 246.166 48.3766C245.492 49.0505 244.632 49.5093 243.697 49.6953C242.761 49.8812 241.792 49.7857 240.91 49.4211C240.029 49.0564 239.276 48.4388 238.746 47.6465C238.216 46.8541 237.933 45.9226 237.933 44.9697C237.922 44.3339 238.039 43.7025 238.278 43.113C238.517 42.5236 238.871 41.9881 239.321 41.5385C239.771 41.0889 240.307 40.7344 240.898 40.4961C241.488 40.2578 242.12 40.1406 242.756 40.1515ZM242.756 38.5454C241.484 38.5454 240.241 38.9222 239.183 39.6281C238.126 40.334 237.302 41.3373 236.815 42.5112C236.328 43.6851 236.201 44.9768 236.449 46.223C236.697 47.4691 237.31 48.6138 238.209 49.5123C239.108 50.4107 240.254 51.0226 241.501 51.2705C242.749 51.5183 244.042 51.3911 245.217 50.9049C246.392 50.4186 247.396 49.5952 248.103 48.5388C248.809 47.4823 249.187 46.2402 249.187 44.9697C249.187 43.2658 248.509 41.6318 247.303 40.427C246.097 39.2222 244.462 38.5454 242.756 38.5454Z" fill="#26272A"/>
<path d="M254.01 38.5454V40.1515H258.833V51.3939H260.44V40.1515H265.263V38.5454H254.01Z" fill="#26272A"/>
<path d="M275.713 38.5454H270.086V51.3939H271.694V46.5757H275.713C276.779 46.5757 277.801 46.1527 278.555 45.3997C279.309 44.6467 279.732 43.6254 279.732 42.5606C279.732 41.4957 279.309 40.4744 278.555 39.7214C277.801 38.9684 276.779 38.5454 275.713 38.5454ZM275.713 44.9697H271.694V40.1515H275.713C276.352 40.1515 276.966 40.4053 277.418 40.8571C277.87 41.3089 278.124 41.9216 278.124 42.5606C278.124 43.1995 277.87 43.8123 277.418 44.264C276.966 44.7158 276.352 44.9697 275.713 44.9697Z" fill="#26272A"/>
<path d="M300.632 49.7878V38.5454H299.024V49.7878H294.201V38.5454H292.593V49.7878H287.77V38.5454H286.163V51.3939H300.632V53H302.239V49.7878H300.632Z" fill="#26272A"/>
<path d="M316.708 38.5454L310.277 48.1818V38.5454H308.67V51.3939H310.277L316.708 41.7575V51.3939H318.316V38.5454H316.708Z" fill="#26272A"/>
<path d="M336 38.5454H333.91L327.962 45.6121V38.5454H326.354V51.3939H327.962V48.1818L329.569 46.2545L333.91 51.3939H336L330.534 44.9697L336 38.5454Z" fill="#26272A"/>
<path d="M64.7081 19.2728L59.0813 26.8855V19.2728H57.8756V28.9091H59.0813L64.7081 21.2964V28.9091H65.9139V19.2728H64.7081Z" fill="#747477"/>
<path d="M77.5694 19.2728V23.2879H71.9426V19.2728H70.7369V28.9091H71.9426V24.4925H77.5694V28.9091H78.7751V19.2728H77.5694Z" fill="#747477"/>
<path d="M88.4211 20.4773C89.1365 20.4773 89.8358 20.6892 90.4307 21.0863C91.0255 21.4834 91.4892 22.0478 91.7629 22.7081C92.0367 23.3684 92.1084 24.095 91.9688 24.7959C91.8292 25.4969 91.4847 26.1408 90.9788 26.6462C90.473 27.1516 89.8284 27.4957 89.1267 27.6351C88.4251 27.7746 87.6978 27.703 87.0368 27.4295C86.3759 27.156 85.8109 26.6928 85.4135 26.0986C85.016 25.5043 84.8038 24.8057 84.8038 24.0909C84.8038 23.1326 85.1849 22.2134 85.8633 21.5357C86.5417 20.858 87.4617 20.4773 88.4211 20.4773ZM88.4211 19.2728C87.4672 19.2728 86.5347 19.5553 85.7416 20.0848C84.9484 20.6142 84.3303 21.3667 83.9652 22.2471C83.6002 23.1275 83.5047 24.0963 83.6908 25.0309C83.8769 25.9656 84.3362 26.8241 85.0107 27.4979C85.6852 28.1718 86.5446 28.6306 87.4802 28.8166C88.4157 29.0025 89.3854 28.907 90.2667 28.5424C91.148 28.1777 91.9013 27.5601 92.4312 26.7678C92.9612 25.9754 93.244 25.0439 93.244 24.0909C93.244 22.8131 92.7359 21.5876 91.8314 20.684C90.9269 19.7804 89.7002 19.2728 88.4211 19.2728Z" fill="#747477"/>
<path d="M102.086 23.2879H99.2728V20.4773H104.498V19.2728H98.067V28.9091H102.086C102.832 28.9091 103.548 28.613 104.076 28.0859C104.603 27.5588 104.9 26.8439 104.9 26.0985C104.9 25.3531 104.603 24.6382 104.076 24.1111C103.548 23.584 102.832 23.2879 102.086 23.2879ZM102.086 27.7046H99.2728V24.4925H102.086C102.513 24.4925 102.921 24.6617 103.223 24.9629C103.524 25.2641 103.694 25.6726 103.694 26.0985C103.694 26.5245 103.524 26.933 103.223 27.2342C102.921 27.5354 102.513 27.7046 102.086 27.7046Z" fill="#747477"/>
<path d="M116.153 19.2728L110.526 26.8855V19.2728H109.321V28.9091H110.526L116.153 21.2964V28.9091H117.359V19.2728H116.153Z" fill="#747477"/>
<path d="M122.182 19.2728V20.4773H125.397V28.9091H126.603V20.4773H129.818V19.2728H122.182Z" fill="#747477"/>
<path d="M141.474 20.4773V19.2728H135.043V28.9091H141.474V27.7046H136.249V24.4925H141.474V23.2879H136.249V20.4773H141.474Z" fill="#747477"/>
<path d="M153.129 19.2728H151.554L147.502 24.107V19.2728H146.297V28.9091H147.502V25.97L148.306 25.0225L151.554 28.9091H153.129L149.078 24.091L153.129 19.2728Z" fill="#747477"/>
<path d="M171.617 28.9091L169.479 21.1358L167.357 28.9091H166.055L163.306 19.2728H164.64L166.778 27.3031L168.997 19.2728H169.994L172.212 27.3031L174.334 19.2728H175.669L172.919 28.9091H171.617Z" fill="#007EB6"/>
<path d="M180.057 28.9091V19.2728H186.392V20.3328H181.263V23.4485H186.279V24.5246H181.263V27.8331H186.392V28.9091H180.057Z" fill="#007EB6"/>
<path d="M191.311 28.909V19.2726H195.62C195.963 19.2336 196.311 19.2685 196.64 19.3749C196.97 19.4812 197.272 19.6566 197.528 19.8893C197.784 20.122 197.987 20.4065 198.123 20.724C198.26 21.0414 198.327 21.3844 198.32 21.7299C198.342 22.2243 198.194 22.7113 197.902 23.1111C197.61 23.5108 197.191 23.7996 196.713 23.9302C197.25 24.0542 197.729 24.3571 198.071 24.7891C198.412 25.2211 198.597 25.7565 198.594 26.3072C198.609 26.6769 198.543 27.0455 198.4 27.3869C198.257 27.7282 198.04 28.0339 197.766 28.2822C197.491 28.5305 197.165 28.7154 196.811 28.8237C196.456 28.9321 196.083 28.9612 195.716 28.909H191.311ZM197.066 21.9066C197.066 21.4806 196.897 21.0721 196.596 20.7709C196.294 20.4697 195.885 20.3005 195.459 20.3005H192.565V23.4484H195.459C195.674 23.4653 195.891 23.4353 196.093 23.3606C196.296 23.2859 196.48 23.1681 196.633 23.0155C196.786 22.8628 196.904 22.6789 196.979 22.4764C197.053 22.2738 197.083 22.0575 197.066 21.8423V21.9066ZM197.259 26.1144C197.261 25.8878 197.214 25.6634 197.122 25.4561C197.031 25.2488 196.896 25.0631 196.728 24.9114C196.559 24.7597 196.36 24.6454 196.144 24.5759C195.929 24.5065 195.7 24.4834 195.475 24.5084H192.517V27.8329H195.475C195.7 27.8579 195.929 27.8348 196.144 27.7654C196.36 27.6959 196.559 27.5815 196.728 27.4298C196.896 27.2781 197.031 27.0925 197.122 26.8852C197.214 26.6779 197.261 26.4535 197.259 26.2269" fill="#007EB6"/>
</svg>
