<svg width="299" height="51" viewBox="0 0 299 51" fill="none" xmlns="http://www.w3.org/2000/svg">
<g clip-path="url(#clip0)">
<path d="M8.83594 38.5638V11.8572L0 20.7701V38.5638V47.4606L8.83594 38.5638Z" fill="url(#paint0_linear)"/>
<path d="M26.5078 38.5635H8.83594V41.5237L0 47.4603H8.83594H35.3438L26.5078 41.5237V38.5635Z" fill="url(#paint1_linear)"/>
<path d="M8.83594 38.5635L0 47.4603L8.83594 41.5237V38.5635Z" fill="url(#paint2_linear)"/>
<path d="M8.83594 38.5635L0 47.4603L8.83594 41.5237V38.5635Z" fill="url(#paint3_linear)"/>
<path d="M8.83621 11.8571L26.5081 29.6669V38.5637L35.344 47.4606V38.5637V26.6905L8.83621 0V11.8571Z" fill="url(#paint4_linear)"/>
<path d="M26.5077 38.5635V41.5237L35.3436 47.4603L26.5077 38.5635Z" fill="url(#paint5_linear)"/>
<path d="M26.5077 38.5635V41.5237L35.3436 47.4603L26.5077 38.5635Z" fill="url(#paint6_linear)"/>
<path d="M57.2183 35.5875H53.032V47.4606H57.2183C58.782 47.4606 60.2817 46.8352 61.3874 45.7219C62.4931 44.6085 63.1143 43.0985 63.1143 41.5241C63.1143 39.9496 62.4931 38.4396 61.3874 37.3262C60.2817 36.2129 58.782 35.5875 57.2183 35.5875ZM57.2183 45.9805H54.502V37.0837H57.2183C57.8208 37.0472 58.4244 37.1352 58.9919 37.3422C59.5594 37.5493 60.0789 37.871 60.5183 38.2877C60.9578 38.7043 61.3079 39.2071 61.5473 39.765C61.7866 40.323 61.9101 40.9243 61.9101 41.5321C61.9101 42.1399 61.7866 42.7412 61.5473 43.2992C61.3079 43.8571 60.9578 44.3599 60.5183 44.7765C60.0789 45.1932 59.5594 45.5149 58.9919 45.722C58.4244 45.929 57.8208 46.017 57.2183 45.9805Z" fill="#26272A"/>
<path d="M69.2179 35.5875H67.7479V47.4606H69.2179V35.5875Z" fill="#26272A"/>
<path d="M82.4796 45.9805C81.7532 45.9718 81.0401 45.7833 80.4032 45.4314C79.7663 45.0796 79.2252 44.5754 78.8277 43.9632C78.4301 43.3509 78.1883 42.6496 78.1237 41.9211C78.059 41.1925 78.1734 40.4592 78.4569 39.7857C78.7403 39.1122 79.184 38.5193 79.7488 38.0593C80.3136 37.5994 80.9822 37.2865 81.6956 37.1482C82.4089 37.01 83.1451 37.0507 83.8391 37.2667C84.5332 37.4827 85.1638 37.8674 85.6752 38.3868L86.7138 37.325C86.0281 36.635 85.184 36.1259 84.2563 35.8427C83.3286 35.5596 82.3458 35.5111 81.395 35.7017C80.4443 35.8922 79.5548 36.3159 78.8055 36.9351C78.0561 37.5544 77.47 38.3501 77.0989 39.2519C76.7279 40.1537 76.5834 41.1336 76.6783 42.1051C76.7732 43.0765 77.1045 44.0093 77.6429 44.8211C78.1812 45.6328 78.9101 46.2983 79.7649 46.7587C80.6197 47.2192 81.5741 47.4602 82.5435 47.4607C83.3181 47.4627 84.0855 47.3103 84.8013 47.012C85.5171 46.7138 86.1671 46.2757 86.7138 45.7231L85.6752 44.6774C85.2568 45.0996 84.7581 45.4325 84.2091 45.6564C83.6601 45.8803 83.0718 45.9905 82.4796 45.9805Z" fill="#26272A"/>
<path d="M97.2117 37.0837C98.0884 37.0805 98.9463 37.3396 99.6766 37.828C100.407 38.3165 100.977 39.0123 101.314 39.8273C101.651 40.6422 101.74 41.5396 101.569 42.4056C101.399 43.2716 100.977 44.0671 100.357 44.6913C99.7373 45.3155 98.9472 45.7403 98.0872 45.9117C97.2272 46.0832 96.3359 45.9936 95.5265 45.6543C94.7171 45.315 94.0261 44.7413 93.541 44.006C93.0558 43.2706 92.7986 42.4068 92.8017 41.5241C92.8059 40.3477 93.2719 39.2207 94.098 38.3889C94.9241 37.5571 96.0434 37.0879 97.2117 37.0837ZM97.2117 35.5875C96.0456 35.5875 94.9057 35.9356 93.9361 36.588C92.9665 37.2403 92.2108 38.1674 91.7645 39.2522C91.3183 40.337 91.2015 41.5306 91.429 42.6822C91.6565 43.8338 92.2181 44.8916 93.0426 45.7219C93.8672 46.5521 94.9177 47.1175 96.0615 47.3466C97.2052 47.5756 98.3906 47.4581 99.468 47.0088C100.545 46.5594 101.466 45.7985 102.114 44.8223C102.762 43.846 103.108 42.6982 103.108 41.5241C103.108 39.9496 102.486 38.4396 101.381 37.3262C100.275 36.2129 98.7754 35.5875 97.2117 35.5875Z" fill="#26272A"/>
<path d="M118.574 35.5875L114.883 44.5487L111.208 35.5875H109.003V47.4606H110.473V37.6789L114.484 47.4606H115.282L119.309 37.6789V47.4606H120.779V35.5875H118.574Z" fill="#26272A"/>
<path d="M131.085 41.5236H126.675V43.0037H131.085V41.5236Z" fill="#26272A"/>
<path d="M142.877 45.9805C142.15 45.9718 141.437 45.7833 140.8 45.4314C140.163 45.0796 139.622 44.5753 139.225 43.9631C138.827 43.3509 138.585 42.6496 138.521 41.9211C138.456 41.1925 138.571 40.4592 138.854 39.7857C139.137 39.1122 139.581 38.5193 140.146 38.0593C140.711 37.5994 141.379 37.2864 142.093 37.1482C142.806 37.01 143.542 37.0506 144.236 37.2667C144.93 37.4827 145.561 37.8674 146.072 38.3868L146.999 37.325C146.313 36.6345 145.468 36.1252 144.54 35.8421C143.611 35.5591 142.628 35.5111 141.676 35.7025C140.725 35.8938 139.835 36.3185 139.086 36.939C138.337 37.5594 137.751 38.3564 137.381 39.2593C137.011 40.1622 136.868 41.1431 136.965 42.1151C137.061 43.087 137.394 44.0199 137.935 44.8311C138.475 45.6423 139.206 46.3067 140.063 46.7654C140.919 47.2241 141.875 47.4629 142.845 47.4606C143.617 47.4642 144.383 47.3123 145.096 47.0139C145.809 46.7155 146.456 46.2767 146.999 45.7231L145.96 44.6774C145.543 45.1003 145.044 45.4338 144.495 45.6577C143.946 45.8817 143.357 45.9915 142.765 45.9805" fill="#26272A"/>
<path d="M160.549 37.0837V35.5875H153.183V47.4606H160.549V45.9805H154.653V41.5241H160.549V40.0439H154.653V37.0837H160.549Z" fill="#26272A"/>
<path d="M171.59 35.5876H166.445V47.4608H167.915V43.0043H171.59C172.094 43.0377 172.599 42.9666 173.075 42.7954C173.551 42.6242 173.986 42.3565 174.355 42.0089C174.724 41.6612 175.018 41.2411 175.219 40.7744C175.42 40.3078 175.523 39.8046 175.523 39.2959C175.523 38.7873 175.42 38.2841 175.219 37.8174C175.018 37.3508 174.724 36.9306 174.355 36.583C173.986 36.2354 173.551 35.9677 173.075 35.7964C172.599 35.6252 172.094 35.5541 171.59 35.5876ZM171.59 41.5242H167.915V37.0838H171.59C172.175 37.0838 172.735 37.3177 173.149 37.7341C173.562 38.1504 173.795 38.7151 173.795 39.304C173.795 39.8928 173.562 40.4575 173.149 40.8739C172.735 41.2903 172.175 41.5242 171.59 41.5242Z" fill="#26272A"/>
<path d="M188.75 40.9771C189.265 40.6163 189.652 40.0993 189.854 39.5015C190.056 38.9038 190.063 38.2567 189.873 37.6547C189.684 37.0527 189.309 36.5274 188.802 36.1555C188.295 35.7836 187.684 35.5845 187.057 35.5875H181.161V47.4607H186.322C187.059 47.4513 187.777 47.2188 188.381 46.7933C188.985 46.3679 189.449 45.7692 189.711 45.0751C189.973 44.381 190.021 43.6236 189.85 42.9013C189.679 42.1791 189.295 41.5254 188.75 41.0253V40.9771ZM182.647 37.132H187.057C187.446 37.132 187.82 37.2879 188.096 37.5655C188.372 37.8431 188.527 38.2195 188.527 38.6121C188.527 39.0047 188.372 39.3811 188.096 39.6587C187.82 39.9363 187.446 40.0922 187.057 40.0922H182.647V37.132ZM186.322 46.0288H182.647V41.5241H186.322C186.876 41.5716 187.393 41.8269 187.769 42.2395C188.145 42.6521 188.354 43.192 188.354 43.7523C188.354 44.3126 188.145 44.8525 187.769 45.2651C187.393 45.6778 186.876 45.9331 186.322 45.9806" fill="#26272A"/>
<path d="M203.258 37.0837V35.5875H195.892V47.4606H203.258V45.9805H197.378V41.5241H203.258V40.0439H197.378V37.0837H203.258Z" fill="#26272A"/>
<path d="M214.316 35.5875H209.155V47.4606H210.625V43.0042H214.316C215.251 42.9421 216.127 42.5245 216.768 41.8358C217.408 41.1472 217.764 40.2392 217.764 39.2958C217.764 38.3525 217.408 37.4444 216.768 36.7558C216.127 36.0672 215.251 35.6495 214.316 35.5875ZM214.316 41.5241H210.625V37.0837H214.316C214.901 37.0837 215.462 37.3176 215.875 37.734C216.289 38.1503 216.521 38.715 216.521 39.3039C216.521 39.8927 216.289 40.4574 215.875 40.8738C215.462 41.2901 214.901 41.5241 214.316 41.5241Z" fill="#26272A"/>
<path d="M59.2795 17.7933L54.1345 24.8239V17.7933H53.032V26.6901H54.1345L59.2795 19.6756V26.6901H60.382V17.7933H59.2795Z" fill="#9A999C"/>
<path d="M71.0706 17.7933V21.5097H65.9097V17.7933H64.8072V26.6901H65.9097V22.6198H71.0706V26.6901H72.1731V17.7933H71.0706Z" fill="#9A999C"/>
<path d="M81.0092 18.9034C81.6671 18.9002 82.3113 19.0937 82.8599 19.4595C83.4085 19.8253 83.837 20.3468 84.091 20.958C84.345 21.5691 84.4131 22.2425 84.2867 22.8927C84.1602 23.5429 83.845 24.1406 83.3808 24.6102C82.9167 25.0798 82.3245 25.4002 81.6794 25.5306C81.0343 25.661 80.3652 25.5957 79.757 25.3429C79.1488 25.0901 78.6288 24.6612 78.2629 24.1105C77.897 23.5599 77.7017 22.9123 77.7017 22.2497C77.7017 21.365 78.0496 20.5163 78.6694 19.8892C79.2893 19.2621 80.1305 18.9076 81.0092 18.9034ZM81.0092 17.7933C80.1338 17.7933 79.2781 18.0546 78.5502 18.5443C77.8224 19.034 77.2551 19.73 76.9201 20.5443C76.5851 21.3586 76.4975 22.2547 76.6682 23.1192C76.839 23.9836 77.2605 24.7777 77.8795 25.4009C78.4985 26.0242 79.2871 26.4486 80.1457 26.6206C81.0042 26.7925 81.8941 26.7043 82.7029 26.367C83.5116 26.0297 84.2029 25.4585 84.6892 24.7256C85.1755 23.9928 85.4351 23.1311 85.4351 22.2497C85.4351 21.6645 85.3206 21.085 85.0982 20.5443C84.8758 20.0036 84.5498 19.5124 84.1388 19.0985C83.7278 18.6847 83.2399 18.3565 82.7029 18.1325C82.1659 17.9085 81.5904 17.7933 81.0092 17.7933Z" fill="#9A999C"/>
<path d="M93.5368 21.5097H90.9483V18.9034H95.7418V17.7933H89.8459V26.6901H93.5368C94.2191 26.6901 94.8734 26.4172 95.3558 25.9315C95.8383 25.4457 96.1093 24.7869 96.1093 24.0999C96.1093 23.4129 95.8383 22.7541 95.3558 22.2683C94.8734 21.7826 94.2191 21.5097 93.5368 21.5097ZM93.5368 25.58H90.9483V22.6198H93.5368C93.7299 22.6198 93.921 22.6581 94.0994 22.7324C94.2777 22.8068 94.4398 22.9158 94.5763 23.0533C94.7128 23.1907 94.821 23.3539 94.8949 23.5335C94.9688 23.7131 95.0068 23.9055 95.0068 24.0999C95.0068 24.2943 94.9688 24.4867 94.8949 24.6663C94.821 24.8459 94.7128 25.0091 94.5763 25.1465C94.4398 25.2839 94.2777 25.393 94.0994 25.4674C93.921 25.5417 93.7299 25.58 93.5368 25.58Z" fill="#9A999C"/>
<path d="M106.414 17.7933L101.27 24.8239V17.7933H100.151V26.6901H101.27L106.414 19.6756V26.6901H107.517V17.7933H106.414Z" fill="#9A999C"/>
<path d="M111.943 17.7933V18.9034H114.883V26.6901H115.985V18.9034H118.941V17.7933H111.943Z" fill="#9A999C"/>
<path d="M129.615 18.9034V17.7933H123.719V26.6901H129.615V25.58H124.837V22.6198H129.615V21.5097H124.837V18.9034H129.615Z" fill="#9A999C"/>
<path d="M140.288 17.7933H138.85L135.143 22.2497V17.7933H134.041V26.6901H135.143V23.9873L135.862 23.1185L138.85 26.6901H140.288L136.581 22.2497L140.288 17.7933Z" fill="#9A999C"/>
<path d="M243.763 35.5876H238.618V47.4608H240.088V43.0043H243.763C244.267 43.0377 244.773 42.9666 245.248 42.7954C245.724 42.6242 246.16 42.3565 246.529 42.0089C246.897 41.6612 247.191 41.2411 247.392 40.7744C247.593 40.3078 247.697 39.8046 247.697 39.2959C247.697 38.7873 247.593 38.2841 247.392 37.8174C247.191 37.3508 246.897 36.9306 246.529 36.583C246.16 36.2354 245.724 35.9677 245.248 35.7964C244.773 35.6252 244.267 35.5541 243.763 35.5876ZM243.763 41.5242H240.088V37.0838H243.763C244.348 37.0838 244.909 37.3177 245.322 37.7341C245.736 38.1504 245.968 38.7151 245.968 39.304C245.968 39.8928 245.736 40.4575 245.322 40.8739C244.909 41.2903 244.348 41.5242 243.763 41.5242Z" fill="#D92B28"/>
<path d="M260.572 47.4606H262.17L256.913 35.5875H255.651L250.41 47.4606H252.008L253.318 44.5004H259.262L260.572 47.4606ZM254.053 43.0042L256.37 37.7755L258.687 43.0042H254.053Z" fill="#D92B28"/>
<path d="M272.492 45.9805C271.766 45.9718 271.053 45.7833 270.416 45.4314C269.779 45.0796 269.238 44.5754 268.84 43.9632C268.443 43.3509 268.201 42.6496 268.136 41.9211C268.071 41.1925 268.186 40.4592 268.469 39.7857C268.753 39.1122 269.196 38.5193 269.761 38.0593C270.326 37.5994 270.995 37.2865 271.708 37.1482C272.421 37.01 273.158 37.0507 273.852 37.2667C274.546 37.4827 275.176 37.8674 275.688 38.3868L276.742 37.325C276.057 36.635 275.212 36.1259 274.285 35.8427C273.357 35.5596 272.374 35.5111 271.423 35.7017C270.473 35.8922 269.583 36.3159 268.834 36.9351C268.085 37.5544 267.498 38.3501 267.127 39.2519C266.756 40.1537 266.612 41.1336 266.707 42.1051C266.802 43.0765 267.133 44.0093 267.671 44.8211C268.21 45.6328 268.939 46.2983 269.793 46.7587C270.648 47.2192 271.602 47.4602 272.572 47.4607C273.347 47.4627 274.114 47.3103 274.83 47.012C275.546 46.7138 276.196 46.2757 276.742 45.7231L275.688 44.6774C275.27 45.1003 274.771 45.4338 274.222 45.6577C273.673 45.8817 273.084 45.9915 272.492 45.9805Z" fill="#D92B28"/>
<path d="M281.328 45.6261L282.191 44.5482C282.664 45.0567 283.236 45.4618 283.871 45.7386C284.506 46.0154 285.19 46.1578 285.882 46.157C287.975 46.157 288.646 45.0469 288.646 44.1781C288.646 41.2018 281.696 42.8428 281.696 38.7403C281.696 36.8579 283.422 35.5226 285.722 35.5226C286.492 35.4886 287.261 35.6138 287.981 35.8905C288.701 36.1672 289.357 36.5895 289.909 37.1314L289.014 38.1772C288.575 37.7248 288.047 37.3695 287.463 37.1341C286.88 36.8986 286.255 36.7881 285.627 36.8097C284.22 36.8097 283.214 37.5497 283.214 38.6277C283.214 41.2179 290.164 39.7378 290.164 44.0173C290.164 45.6261 288.998 47.3958 285.834 47.3958C284.997 47.4322 284.161 47.2873 283.384 46.9709C282.606 46.6545 281.906 46.174 281.328 45.5617" fill="#D92B28"/>
<path d="M232.259 50.9997C230.647 48.7004 229.782 45.955 229.782 43.1405C229.782 40.326 230.647 37.5806 232.259 35.2814L233.058 35.8766C231.855 38.0976 231.225 40.5868 231.225 43.1164C231.225 45.646 231.855 48.1352 233.058 50.3561L232.259 50.9997Z" fill="#D92B28"/>
<path d="M295.724 50.3722C296.939 48.1559 297.572 45.6639 297.562 43.1325C297.567 40.5965 296.935 38.1004 295.724 35.8766L296.507 35.2814C298.129 37.577 299 40.3238 299 43.1405C299 45.9572 298.129 48.7041 296.507 50.9997L295.724 50.3722Z" fill="#D92B28"/>
</g>
<defs>
<linearGradient id="paint0_linear" x1="-310.23" y1="59889.1" x2="-301.394" y2="59889.1" gradientUnits="userSpaceOnUse">
<stop stop-color="#A23B8D"/>
<stop offset="0.25" stop-color="#A23B8D"/>
<stop offset="1" stop-color="#7B4694"/>
</linearGradient>
<linearGradient id="paint1_linear" x1="0.690258" y1="54.2676" x2="36.034" y2="54.2676" gradientUnits="userSpaceOnUse">
<stop stop-color="#A23B8D"/>
<stop offset="0.25" stop-color="#A23B8D"/>
<stop offset="0.75" stop-color="#B7336E"/>
<stop offset="1" stop-color="#B7336E"/>
</linearGradient>
<linearGradient id="paint2_linear" x1="-310.23" y1="15001.1" x2="-301.394" y2="15001.1" gradientUnits="userSpaceOnUse">
<stop stop-color="#A23B8D"/>
<stop offset="0.25" stop-color="#A23B8D"/>
<stop offset="1" stop-color="#7B4694"/>
</linearGradient>
<linearGradient id="paint3_linear" x1="-739.127" y1="15405.6" x2="-730.291" y2="15405.6" gradientUnits="userSpaceOnUse">
<stop stop-color="#A23B8D"/>
<stop offset="0.25" stop-color="#A23B8D"/>
<stop offset="0.75" stop-color="#B7336E"/>
<stop offset="1" stop-color="#B7336E"/>
</linearGradient>
<linearGradient id="paint4_linear" x1="-1233.32" y1="79800.2" x2="-1206.81" y2="79800.2" gradientUnits="userSpaceOnUse">
<stop stop-color="#B7336E"/>
<stop offset="0.19" stop-color="#B7336E"/>
<stop offset="1" stop-color="#D9281C"/>
</linearGradient>
<linearGradient id="paint5_linear" x1="0.690097" y1="54.2676" x2="36.0339" y2="54.2676" gradientUnits="userSpaceOnUse">
<stop stop-color="#A23B8D"/>
<stop offset="0.25" stop-color="#A23B8D"/>
<stop offset="0.75" stop-color="#B7336E"/>
<stop offset="1" stop-color="#B7336E"/>
</linearGradient>
<linearGradient id="paint6_linear" x1="-387.545" y1="14996" x2="-378.709" y2="14996" gradientUnits="userSpaceOnUse">
<stop stop-color="#B7336E"/>
<stop offset="0.19" stop-color="#B7336E"/>
<stop offset="1" stop-color="#D9281C"/>
</linearGradient>
<clipPath id="clip0">
<rect width="299" height="51" fill="white"/>
</clipPath>
</defs>
</svg>
