<svg width="359" height="49" viewBox="0 0 359 49" fill="none" xmlns="http://www.w3.org/2000/svg">
<g clip-path="url(#clip0)">
<path d="M8.86242 11.8875L0 20.7951V38.6103V47.518L8.86242 38.6103V11.8875Z" fill="url(#paint0_linear)"/>
<path d="M26.5872 38.6102H8.86242V41.574L0 47.5178H8.86242H35.4657L26.5872 41.574V38.6102Z" fill="url(#paint1_linear)"/>
<path d="M8.86242 38.6102L0 47.5178L8.86242 41.574V38.6102Z" fill="url(#paint2_linear)"/>
<path d="M8.86242 38.6102L0 47.5178L8.86242 41.574V38.6102Z" fill="url(#paint3_linear)"/>
<path d="M8.86264 0V11.8876L26.5875 29.7028V38.6105L35.4659 47.5181V38.6105V26.7229L8.86264 0Z" fill="url(#paint4_linear)"/>
<path d="M26.5871 41.574L35.4655 47.5178L26.5871 38.6102V41.574Z" fill="url(#paint5_linear)"/>
<path d="M57.4699 35.6306H53.1909V47.5182H57.4699C59.0383 47.5182 60.5424 46.892 61.6514 45.7773C62.7605 44.6626 63.3835 43.1508 63.3835 41.5744C63.3835 39.998 62.7605 38.4862 61.6514 37.3715C60.5424 36.2568 59.0383 35.6306 57.4699 35.6306ZM57.4699 46.0363H54.6653V37.1286H57.4699C58.0551 37.1155 58.6369 37.2214 59.1803 37.44C59.7237 37.6585 60.2176 37.9853 60.6323 38.4005C61.0469 38.8158 61.3737 39.311 61.5932 39.8564C61.8126 40.4018 61.9201 40.9862 61.9091 41.5744C61.9049 42.7565 61.4358 43.8889 60.6042 44.7247C59.7726 45.5606 58.6459 46.032 57.4699 46.0363Z" fill="#26272A"/>
<path d="M69.4253 35.6306H67.9509V47.5182H69.4253V35.6306Z" fill="#26272A"/>
<path d="M82.7263 46.0359C81.5971 45.9677 80.5365 45.4687 79.761 44.6409C78.9855 43.8132 78.5537 42.7191 78.5537 41.5821C78.5537 40.4452 78.9855 39.3511 79.761 38.5233C80.5365 37.6956 81.5971 37.1966 82.7263 37.1283C83.3103 37.1088 83.8914 37.2184 84.4287 37.4494C84.9659 37.6804 85.4461 38.0272 85.8353 38.4653L86.861 37.4183C86.3437 36.8346 85.7054 36.3721 84.991 36.0632C84.2766 35.7542 83.5036 35.6065 82.7263 35.6303C81.1579 35.6303 79.6537 36.2565 78.5447 37.3712C77.4357 38.4859 76.8127 39.9977 76.8127 41.5741C76.8127 43.1505 77.4357 44.6623 78.5447 45.777C79.6537 46.8916 81.1579 47.5179 82.7263 47.5179C83.5036 47.5417 84.2766 47.3939 84.991 47.085C85.7054 46.7761 86.3437 46.3135 86.861 45.7299L85.8353 44.699C85.4434 45.1336 84.9627 45.4781 84.4261 45.7088C83.8895 45.9395 83.3097 46.0511 82.7263 46.0359Z" fill="#26272A"/>
<path d="M97.503 37.1286C98.3823 37.1255 99.2428 37.3848 99.9753 37.8739C100.708 38.3629 101.279 39.0596 101.617 39.8756C101.955 40.6915 102.044 41.59 101.874 42.457C101.703 43.324 101.28 44.1205 100.658 44.7455C100.036 45.3705 99.2437 45.7958 98.3811 45.9674C97.5185 46.1391 96.6246 46.0493 95.8128 45.7096C95.001 45.3699 94.3078 44.7955 93.8213 44.0593C93.3347 43.3231 93.0766 42.4582 93.0798 41.5744C93.0712 40.9882 93.1797 40.4062 93.3989 39.8629C93.6181 39.3196 93.9436 38.826 94.3561 38.4114C94.7685 37.9969 95.2596 37.6697 95.8001 37.4494C96.3407 37.229 96.9197 37.12 97.503 37.1286ZM97.503 35.6306C96.3334 35.6306 95.1901 35.9792 94.2176 36.6323C93.2451 37.2854 92.4871 38.2137 92.0395 39.2998C91.5919 40.3859 91.4748 41.581 91.703 42.734C91.9312 43.887 92.4944 44.946 93.3214 45.7773C94.1485 46.6086 95.2022 47.1746 96.3493 47.404C97.4964 47.6333 98.6855 47.5156 99.766 47.0658C100.847 46.6159 101.77 45.854 102.42 44.8766C103.07 43.8991 103.417 42.75 103.417 41.5744C103.412 39.9993 102.788 38.49 101.68 37.3762C100.572 36.2624 99.0701 35.6349 97.503 35.6306Z" fill="#26272A"/>
<path d="M118.929 35.6306L115.227 44.5544L111.541 35.6306H109.33V47.5182H110.804V37.7085L114.794 47.5182H115.676L119.666 37.7085V47.5182H121.141V35.6306H118.929Z" fill="#26272A"/>
<path d="M131.494 41.5739H127.055V43.0558H131.494V41.5739Z" fill="#26272A"/>
<path d="M138.866 47.5182V37.1286H146.254V47.5182H147.729V35.6306H137.392V47.5182H138.866Z" fill="#26272A"/>
<path d="M158.818 35.6306H153.642V47.5182H155.116V43.0563H158.818C159.756 42.9942 160.635 42.576 161.277 41.8866C161.92 41.1971 162.277 40.288 162.277 39.3435C162.277 38.399 161.92 37.4898 161.277 36.8004C160.635 36.1109 159.756 35.6927 158.818 35.6306ZM158.818 41.5744H155.116V37.1286H158.818C159.405 37.1286 159.968 37.3628 160.382 37.7797C160.797 38.1966 161.03 38.762 161.03 39.3515C161.03 39.9411 160.797 40.5065 160.382 40.9233C159.968 41.3402 159.405 41.5744 158.818 41.5744Z" fill="#26272A"/>
<path d="M172.857 37.1287C173.736 37.1287 174.595 37.3908 175.325 37.8818C176.056 38.3727 176.625 39.0706 176.96 39.8868C177.296 40.703 177.383 41.601 177.21 42.4669C177.038 43.3329 176.613 44.1279 175.991 44.7513C175.368 45.3746 174.576 45.7983 173.714 45.9686C172.851 46.139 171.958 46.0483 171.147 45.7081C170.337 45.3679 169.644 44.7935 169.159 44.0577C168.673 43.3218 168.415 42.4576 168.418 41.5744C168.409 40.9868 168.518 40.4035 168.739 39.8591C168.959 39.3147 169.286 38.8204 169.7 38.4056C170.114 37.9908 170.607 37.664 171.15 37.4446C171.692 37.2252 172.273 37.1178 172.857 37.1287ZM172.857 35.6306C171.687 35.6274 170.542 35.9733 169.568 36.6245C168.593 37.2757 167.833 38.2029 167.382 39.2887C166.932 40.3745 166.813 41.5701 167.039 42.7241C167.266 43.8781 167.828 44.9387 168.654 45.7716C169.481 46.6045 170.534 47.1721 171.682 47.4028C172.829 47.6335 174.019 47.5167 175.101 47.0673C176.182 46.6179 177.107 45.8561 177.757 44.8783C178.408 43.9005 178.755 42.7507 178.755 41.5744C178.751 40.0021 178.129 38.4952 177.024 37.3819C175.919 36.2686 174.422 35.6391 172.857 35.6306Z" fill="#26272A"/>
<path d="M189.396 46.0363C188.792 46.0728 188.186 45.9847 187.617 45.7774C187.048 45.5701 186.527 45.248 186.086 44.8308C185.646 44.4137 185.294 43.9103 185.054 43.3517C184.814 42.793 184.69 42.191 184.69 41.5825C184.69 40.9739 184.814 40.3719 185.054 39.8132C185.294 39.2546 185.646 38.7512 186.086 38.3341C186.527 37.9169 187.048 37.5948 187.617 37.3875C188.186 37.1802 188.792 37.0921 189.396 37.1286C189.98 37.1091 190.561 37.2187 191.099 37.4497C191.636 37.6808 192.116 38.0275 192.505 38.4656L193.531 37.4186C192.846 36.7323 192.002 36.2266 191.076 35.9462C190.15 35.6658 189.169 35.6194 188.22 35.8111C187.272 36.0028 186.385 36.4267 185.639 37.0453C184.892 37.6638 184.309 38.4579 183.941 39.3571C183.573 40.2564 183.431 41.233 183.528 42.2004C183.625 43.1679 183.958 44.0963 184.498 44.9034C185.037 45.7106 185.767 46.3715 186.621 46.8276C187.476 47.2837 188.429 47.5209 189.396 47.5182C190.173 47.5398 190.946 47.391 191.66 47.0823C192.374 46.7735 193.012 46.3121 193.531 45.7302L192.505 44.6993C192.104 45.122 191.622 45.4585 191.087 45.6883C190.553 45.9181 189.977 46.0365 189.396 46.0363Z" fill="#26272A"/>
<path d="M209.044 35.6306L205.358 44.5544L201.656 35.6306H199.445V47.5182H200.919V37.7085L204.91 47.5182H205.791L209.781 37.7085V47.5182H211.256V35.6306H209.044Z" fill="#26272A"/>
<path d="M223.083 37.1286C223.961 37.1286 224.82 37.3907 225.551 37.8817C226.281 38.3727 226.85 39.0705 227.185 39.8868C227.521 40.703 227.608 41.601 227.435 42.4669C227.263 43.3329 226.838 44.1279 226.216 44.7512C225.593 45.3746 224.801 45.7983 223.939 45.9686C223.077 46.1389 222.184 46.0483 221.373 45.7081C220.562 45.3679 219.87 44.7935 219.384 44.0577C218.898 43.3218 218.64 42.4576 218.643 41.5744C218.635 40.9868 218.744 40.4034 218.964 39.859C219.184 39.3147 219.511 38.8204 219.925 38.4056C220.339 37.9908 220.832 37.664 221.375 37.4446C221.917 37.2252 222.498 37.1178 223.083 37.1286ZM223.083 35.6306C221.913 35.6306 220.77 35.9792 219.797 36.6323C218.825 37.2854 218.067 38.2137 217.619 39.2998C217.172 40.3859 217.054 41.581 217.283 42.734C217.511 43.887 218.074 44.946 218.901 45.7773C219.728 46.6086 220.782 47.1746 221.929 47.404C223.076 47.6333 224.265 47.5156 225.346 47.0658C226.426 46.6159 227.35 45.854 228 44.8766C228.649 43.8991 228.996 42.75 228.996 41.5744C228.992 39.9993 228.368 38.49 227.26 37.3762C226.151 36.2624 224.65 35.6349 223.083 35.6306Z" fill="#26272A"/>
<path d="M233.42 35.6306V37.1286H237.859V47.5182H239.334V37.1286H243.757V35.6306H233.42Z" fill="#26272A"/>
<path d="M253.372 35.6306H248.196V47.5182H249.67V43.0563H253.372C254.31 42.9942 255.189 42.576 255.831 41.8866C256.474 41.1971 256.831 40.288 256.831 39.3435C256.831 38.399 256.474 37.4898 255.831 36.8004C255.189 36.1109 254.31 35.6927 253.372 35.6306ZM253.372 41.5744H249.67V37.1286H253.372C253.959 37.1286 254.521 37.3628 254.936 37.7797C255.351 38.1966 255.584 38.762 255.584 39.3515C255.584 39.9411 255.351 40.5065 254.936 40.9233C254.521 41.3402 253.959 41.5744 253.372 41.5744Z" fill="#26272A"/>
<path d="M276.257 46.036V35.6465H274.783V46.036H270.36V35.6465H268.885V46.036H264.446V35.6465H262.972V47.5179H276.257V48.9999H277.748V46.036H276.257Z" fill="#26272A"/>
<path d="M291.034 35.6306L285.12 44.5544V35.6306H283.646V47.5182H285.12L291.034 38.6106V47.5182H292.508V35.6306H291.034Z" fill="#26272A"/>
<path d="M308.758 35.6306H306.851L301.386 42.1704V35.6306H299.896V47.5182H301.386V44.5544L302.861 42.7664L306.851 47.5182H308.758L303.742 41.5744L308.758 35.6306Z" fill="#26272A"/>
<path d="M59.4571 17.8149L54.2967 24.854V17.8149H53.1909V26.7225H54.2967L59.4571 19.6995V26.7225H60.5789V17.8149H59.4571Z" fill="#9A999C"/>
<path d="M71.2836 17.8149V21.5358H66.1072V17.8149H65.0014V26.7225H66.1072V22.6472H71.2836V26.7225H72.3894V17.8149H71.2836Z" fill="#9A999C"/>
<path d="M81.2519 18.9263C81.9118 18.9232 82.5579 19.1169 83.1082 19.4832C83.6585 19.8494 84.0882 20.3715 84.343 20.9834C84.5977 21.5953 84.666 22.2695 84.5392 22.9205C84.4124 23.5715 84.0962 24.17 83.6307 24.6401C83.1651 25.1103 82.5712 25.431 81.9241 25.5616C81.2771 25.6922 80.606 25.6268 79.996 25.3737C79.3859 25.1206 78.8644 24.6912 78.4974 24.1398C78.1304 23.5885 77.9345 22.9401 77.9345 22.2768C77.9345 21.391 78.2835 20.5412 78.9051 19.9133C79.5268 19.2855 80.3706 18.9306 81.2519 18.9263ZM81.2519 17.8149C80.3739 17.8149 79.5156 18.0766 78.7856 18.5669C78.0556 19.0571 77.4866 19.754 77.1506 20.5693C76.8146 21.3846 76.7267 22.2817 76.898 23.1472C77.0692 24.0128 77.492 24.8078 78.1129 25.4318C78.7337 26.0558 79.5247 26.4808 80.3858 26.6529C81.247 26.8251 82.1395 26.7367 82.9507 26.399C83.7619 26.0613 84.4552 25.4894 84.943 24.7557C85.4308 24.0219 85.6911 23.1593 85.6911 22.2768C85.6932 21.6902 85.5798 21.1091 85.3575 20.5668C85.1352 20.0245 84.8083 19.5318 84.3956 19.117C83.983 18.7023 83.4928 18.3737 82.9532 18.1502C82.4137 17.9267 81.8354 17.8128 81.2519 17.8149Z" fill="#9A999C"/>
<path d="M93.817 21.5358H91.2208V18.9263H96.0286V17.8149H90.115V26.7225H93.817C94.5013 26.7225 95.1576 26.4493 95.6415 25.9629C96.1254 25.4766 96.3972 24.8169 96.3972 24.1291C96.3972 23.4413 96.1254 22.7817 95.6415 22.2954C95.1576 21.809 94.5013 21.5358 93.817 21.5358ZM93.817 25.6111H91.2208V22.6472H93.817C94.0107 22.6472 94.2024 22.6856 94.3813 22.76C94.5601 22.8345 94.7227 22.9437 94.8596 23.0813C94.9965 23.2189 95.1051 23.3822 95.1792 23.562C95.2533 23.7418 95.2914 23.9345 95.2914 24.1291C95.2914 24.3238 95.2533 24.5165 95.1792 24.6963C95.1051 24.876 94.9965 25.0394 94.8596 25.177C94.7227 25.3146 94.5601 25.4238 94.3813 25.4983C94.2024 25.5727 94.0107 25.6111 93.817 25.6111Z" fill="#9A999C"/>
<path d="M106.734 17.8149L101.574 24.854V17.8149H100.468V26.7225H101.574L106.734 19.6995V26.7225H107.84V17.8149H106.734Z" fill="#9A999C"/>
<path d="M112.278 17.8149V18.9263H115.227V26.7225H116.333V18.9263H119.298V17.8149H112.278Z" fill="#9A999C"/>
<path d="M130.004 18.9263V17.8149H124.106V26.7225H130.004V25.6111H125.212V22.6472H130.004V21.5358H125.212V18.9263H130.004Z" fill="#9A999C"/>
<path d="M140.725 17.8149H139.282L135.548 22.2767V17.8149H134.442V26.7225H135.548V24.0164L136.269 23.1466L139.282 26.7225H140.725L137.007 22.2767L140.725 17.8149Z" fill="#9A999C"/>
<path d="M353.086 37.1287C353.965 37.1287 354.824 37.3908 355.554 37.8818C356.285 38.3727 356.854 39.0706 357.189 39.8868C357.525 40.703 357.612 41.601 357.439 42.4669C357.267 43.3329 356.842 44.1279 356.22 44.7513C355.597 45.3746 354.805 45.7983 353.943 45.9686C353.08 46.139 352.187 46.0483 351.377 45.7081C350.566 45.3679 349.873 44.7935 349.388 44.0577C348.902 43.3218 348.644 42.4576 348.647 41.5744C348.639 40.9868 348.748 40.4035 348.968 39.8591C349.188 39.3147 349.515 38.8204 349.929 38.4056C350.343 37.9908 350.836 37.664 351.379 37.4446C351.921 37.2252 352.502 37.1178 353.086 37.1287ZM353.086 35.6306C351.916 35.6274 350.771 35.9733 349.797 36.6245C348.822 37.2757 348.062 38.2029 347.612 39.2887C347.162 40.3745 347.042 41.5701 347.269 42.7241C347.495 43.8781 348.057 44.9387 348.883 45.7716C349.71 46.6045 350.763 47.1721 351.911 47.4028C353.058 47.6335 354.248 47.5167 355.33 47.0673C356.411 46.6179 357.336 45.8561 357.986 44.8783C358.637 43.9005 358.984 42.7507 358.984 41.5744C358.98 39.9993 358.355 38.49 357.247 37.3762C356.139 36.2625 354.638 35.6349 353.07 35.6306" fill="#7B4694"/>
<path d="M325.762 35.6306H320.521V47.5182H322.124V43.0563H325.826C326.764 42.9942 327.643 42.576 328.285 41.8866C328.927 41.1971 329.285 40.288 329.285 39.3435C329.285 38.399 328.927 37.4898 328.285 36.8004C327.643 36.1109 326.764 35.6927 325.826 35.6306H325.762ZM325.826 41.5744H322.124V37.1286H325.826C326.413 37.1286 326.975 37.3628 327.39 37.7797C327.805 38.1966 328.038 38.762 328.038 39.3515C328.038 39.9411 327.805 40.5065 327.39 40.9233C326.975 41.3402 326.413 41.5744 325.826 41.5744Z" fill="#7B4694"/>
<path d="M342.749 39.3516C342.754 38.8618 342.661 38.376 342.476 37.9226C342.292 37.4692 342.019 37.0573 341.675 36.7109C341.33 36.3646 340.92 36.0907 340.469 35.9052C340.018 35.7197 339.535 35.6264 339.047 35.6307H333.887V47.5183H335.361V43.0564H338.15L340.954 47.5183H342.733L339.753 42.9114C340.58 42.7548 341.328 42.3143 341.869 41.6651C342.41 41.0159 342.71 40.1982 342.717 39.3516H342.749ZM335.329 37.1287H339.015C339.602 37.1287 340.164 37.3629 340.579 37.7798C340.994 38.1967 341.227 38.7621 341.227 39.3516C341.227 39.9411 340.994 40.5065 340.579 40.9234C340.164 41.3403 339.602 41.5745 339.015 41.5745H335.329V37.1287Z" fill="#7B4694"/>
</g>
<defs>
<linearGradient id="paint0_linear" x1="-6.85916" y1="47.2293" x2="-6.85916" y2="11.5988" gradientUnits="userSpaceOnUse">
<stop stop-color="#56A4DA"/>
<stop offset="0.25" stop-color="#56A4DA"/>
<stop offset="1" stop-color="#4DBFDD"/>
</linearGradient>
<linearGradient id="paint1_linear" x1="0.68207" y1="31.7566" x2="36.1317" y2="31.7566" gradientUnits="userSpaceOnUse">
<stop stop-color="#56A4DA"/>
<stop offset="0.25" stop-color="#56A4DA"/>
<stop offset="0.75" stop-color="#6C82C0"/>
<stop offset="1" stop-color="#6C82C0"/>
</linearGradient>
<linearGradient id="paint2_linear" x1="-353.079" y1="15633.6" x2="-344.216" y2="15633.6" gradientUnits="userSpaceOnUse">
<stop stop-color="#56A4DA"/>
<stop offset="0.25" stop-color="#56A4DA"/>
<stop offset="1" stop-color="#4DBFDD"/>
</linearGradient>
<linearGradient id="paint3_linear" x1="0.68207" y1="31.7566" x2="36.1317" y2="31.7566" gradientUnits="userSpaceOnUse">
<stop stop-color="#56A4DA"/>
<stop offset="0.25" stop-color="#56A4DA"/>
<stop offset="0.75" stop-color="#6C82C0"/>
<stop offset="1" stop-color="#6C82C0"/>
</linearGradient>
<linearGradient id="paint4_linear" x1="25.8102" y1="47.6711" x2="25.8102" y2="0.153023" gradientUnits="userSpaceOnUse">
<stop stop-color="#6C82C0"/>
<stop offset="0.19" stop-color="#6C82C0"/>
<stop offset="1" stop-color="#7B4694"/>
</linearGradient>
<linearGradient id="paint5_linear" x1="-753.562" y1="15205.7" x2="-744.683" y2="15205.7" gradientUnits="userSpaceOnUse">
<stop stop-color="#56A4DA"/>
<stop offset="0.25" stop-color="#56A4DA"/>
<stop offset="0.75" stop-color="#6C82C0"/>
<stop offset="1" stop-color="#6C82C0"/>
</linearGradient>
<clipPath id="clip0">
<rect width="359" height="49" fill="white"/>
</clipPath>
</defs>
</svg>
