<svg width="363" height="49" viewBox="0 0 363 49" fill="none" xmlns="http://www.w3.org/2000/svg">
<g clip-path="url(#clip0)">
<path d="M8.8521 38.6106V11.8716L0 20.7792V38.6106V47.5182L8.8521 38.6106Z" fill="url(#paint0_linear)"/>
<path d="M26.5563 38.6102H8.8521V41.574L0 47.5178H35.4084L26.5563 41.574V38.6102Z" fill="url(#paint1_linear)"/>
<path d="M8.8521 38.6102L0 47.5178L8.8521 41.574V38.6102Z" fill="url(#paint2_linear)"/>
<path d="M8.8521 38.6102L0 47.5178L8.8521 41.574V38.6102Z" fill="url(#paint3_linear)"/>
<path d="M8.85234 0V11.8715L26.5565 29.7028V38.6105L35.4086 47.5181V38.6105V26.7229L8.85234 0Z" fill="url(#paint4_linear)"/>
<path d="M26.5561 38.6102V41.574L35.4082 47.5178L26.5561 38.6102Z" fill="url(#paint5_linear)"/>
<path d="M26.5561 38.6102V41.574L35.4082 47.5178L26.5561 38.6102Z" fill="url(#paint6_linear)"/>
<path d="M57.403 35.6306H53.129V47.5182H57.403C58.9695 47.5182 60.4719 46.892 61.5797 45.7773C62.6874 44.6626 63.3097 43.1508 63.3097 41.5744C63.3097 39.998 62.6874 38.4862 61.5797 37.3715C60.4719 36.2568 58.9695 35.6306 57.403 35.6306ZM57.403 46.0363H54.6017V37.1286H57.403C57.9875 37.1155 58.5686 37.2214 59.1114 37.44C59.6542 37.6585 60.1475 37.9853 60.5617 38.4005C60.9758 38.8158 61.3023 39.311 61.5215 39.8564C61.7406 40.4018 61.848 40.9862 61.837 41.5744C61.8328 42.7565 61.3643 43.8889 60.5337 44.7247C59.703 45.5606 58.5777 46.032 57.403 46.0363Z" fill="#26272A"/>
<path d="M69.3445 35.6306H67.8718V47.5182H69.3445V35.6306Z" fill="#26272A"/>
<path d="M82.6299 46.0359C81.5021 45.9677 80.4427 45.4687 79.6681 44.6409C78.8935 43.8132 78.4622 42.7191 78.4622 41.5821C78.4622 40.4452 78.8935 39.3511 79.6681 38.5233C80.4427 37.6956 81.5021 37.1966 82.6299 37.1283C83.2133 37.1088 83.7937 37.2184 84.3304 37.4494C84.867 37.6804 85.3466 38.0272 85.7354 38.4653L86.7598 37.4183C86.2431 36.8346 85.6056 36.3721 84.892 36.0632C84.1785 35.7542 83.4063 35.6065 82.6299 35.6303C81.0634 35.6303 79.561 36.2565 78.4532 37.3712C77.3455 38.4859 76.7232 39.9977 76.7232 41.5741C76.7232 43.1505 77.3455 44.6623 78.4532 45.777C79.561 46.8916 81.0634 47.5179 82.6299 47.5179C83.4063 47.5417 84.1785 47.3939 84.892 47.085C85.6056 46.7761 86.2431 46.3135 86.7598 45.7299L85.7354 44.699C85.3439 45.1336 84.8637 45.4781 84.3278 45.7088C83.7918 45.9395 83.2127 46.0511 82.6299 46.0359Z" fill="#26272A"/>
<path d="M97.3894 37.1286C98.2671 37.1286 99.125 37.3907 99.8545 37.8817C100.584 38.3727 101.152 39.0705 101.487 39.8868C101.823 40.703 101.909 41.601 101.737 42.4669C101.565 43.3329 101.141 44.1279 100.519 44.7512C99.8974 45.3746 99.1058 45.7983 98.2446 45.9686C97.3834 46.1389 96.4914 46.0483 95.6815 45.7081C94.8715 45.3679 94.1801 44.7935 93.6948 44.0577C93.2096 43.3218 92.9522 42.4576 92.9554 41.5744C92.9444 40.9862 93.0518 40.4018 93.2709 39.8564C93.4901 39.311 93.8166 38.8158 94.2307 38.4005C94.6449 37.9853 95.1382 37.6585 95.681 37.44C96.2238 37.2214 96.8049 37.1155 97.3894 37.1286ZM97.3894 35.6306C96.2212 35.6306 95.0792 35.9792 94.1078 36.6323C93.1365 37.2854 92.3794 38.2137 91.9323 39.2998C91.4852 40.3859 91.3683 41.581 91.5962 42.734C91.8241 43.887 92.3867 44.946 93.2127 45.7773C94.0388 46.6086 95.0913 47.1746 96.2371 47.404C97.3829 47.6333 98.5705 47.5156 99.6498 47.0658C100.729 46.6159 101.652 45.854 102.301 44.8766C102.95 43.8991 103.296 42.75 103.296 41.5744C103.292 39.9993 102.668 38.49 101.561 37.3762C100.455 36.2624 98.9547 35.6349 97.3894 35.6306Z" fill="#26272A"/>
<path d="M118.791 35.6306L115.093 44.5544L111.411 35.6306H109.202V47.5182H110.675V37.7085L114.661 47.5182H115.541L119.527 37.7085V47.5182H121V35.6306H118.791Z" fill="#26272A"/>
<path d="M131.341 41.5739H126.907V43.0558H131.341V41.5739Z" fill="#26272A"/>
<path d="M138.705 47.5182V37.1286H146.084V47.5182H147.557V35.6306H137.232V47.5182H138.705Z" fill="#26272A"/>
<path d="M158.634 35.6306H153.463V47.5182H154.936V43.0563H158.634C159.57 42.9942 160.448 42.576 161.09 41.8866C161.731 41.1971 162.088 40.288 162.088 39.3435C162.088 38.399 161.731 37.4898 161.09 36.8004C160.448 36.1109 159.57 35.6927 158.634 35.6306ZM158.634 41.5744H154.936V37.1286H158.634C159.219 37.1286 159.781 37.3628 160.196 37.7797C160.61 38.1966 160.843 38.762 160.843 39.3515C160.843 39.9411 160.61 40.5065 160.196 40.9233C159.781 41.3402 159.219 41.5744 158.634 41.5744Z" fill="#26272A"/>
<path d="M172.64 37.1286C173.518 37.1255 174.378 37.3848 175.109 37.8739C175.841 38.3629 176.412 39.0596 176.749 39.8756C177.087 40.6915 177.176 41.59 177.006 42.457C176.835 43.324 176.412 44.1205 175.791 44.7455C175.17 45.3705 174.379 45.7958 173.517 45.9674C172.656 46.1391 171.763 46.0493 170.952 45.7096C170.141 45.3699 169.449 44.7955 168.963 44.0593C168.477 43.3231 168.219 42.4582 168.222 41.5744C168.211 40.9876 168.318 40.4046 168.536 39.8602C168.754 39.3159 169.079 38.8215 169.492 38.4064C169.904 37.9914 170.396 37.6643 170.937 37.4448C171.477 37.2252 172.057 37.1177 172.64 37.1286ZM172.64 35.6306C171.472 35.6306 170.33 35.9792 169.358 36.6323C168.387 37.2854 167.63 38.2137 167.183 39.2998C166.736 40.3859 166.619 41.581 166.847 42.734C167.075 43.887 167.637 44.946 168.463 45.7773C169.289 46.6086 170.342 47.1746 171.488 47.404C172.633 47.6333 173.821 47.5156 174.9 47.0658C175.98 46.6159 176.902 45.854 177.551 44.8766C178.2 43.8991 178.547 42.75 178.547 41.5744C178.543 39.9993 177.919 38.49 176.812 37.3762C175.705 36.2624 174.205 35.6349 172.64 35.6306Z" fill="#26272A"/>
<path d="M189.176 46.0363C188.572 46.0728 187.967 45.9847 187.399 45.7774C186.83 45.5701 186.31 45.248 185.87 44.8308C185.429 44.4137 185.079 43.9103 184.839 43.3517C184.599 42.793 184.475 42.191 184.475 41.5825C184.475 40.9739 184.599 40.3719 184.839 39.8132C185.079 39.2546 185.429 38.7512 185.87 38.3341C186.31 37.9169 186.83 37.5948 187.399 37.3875C187.967 37.1802 188.572 37.0921 189.176 37.1286C189.759 37.1113 190.338 37.2219 190.875 37.4528C191.411 37.6837 191.891 38.0293 192.281 38.4656L193.306 37.4186C192.621 36.7323 191.779 36.2266 190.853 35.9462C189.928 35.6658 188.948 35.6194 188.001 35.8111C187.054 36.0028 186.168 36.4267 185.422 37.0453C184.677 37.6638 184.094 38.4579 183.727 39.3571C183.359 40.2564 183.217 41.233 183.314 42.2004C183.411 43.1679 183.744 44.0963 184.283 44.9034C184.822 45.7106 185.55 46.3715 186.404 46.8276C187.257 47.2837 188.209 47.5209 189.176 47.5182C189.952 47.5398 190.723 47.391 191.436 47.0823C192.15 46.7735 192.787 46.3121 193.306 45.7302L192.281 44.6993C191.88 45.122 191.398 45.4585 190.865 45.6883C190.331 45.9181 189.756 46.0365 189.176 46.0363Z" fill="#26272A"/>
<path d="M208.801 35.6306L205.103 44.5544L201.421 35.6306H199.212V47.5182H200.685V37.7085L204.671 47.5182H205.551L209.537 37.7085V47.5182H211.01V35.6306H208.801Z" fill="#26272A"/>
<path d="M222.823 37.1287C223.701 37.1287 224.559 37.3908 225.288 37.8818C226.018 38.3727 226.586 39.0706 226.921 39.8868C227.256 40.703 227.343 41.601 227.171 42.4669C226.998 43.3329 226.575 44.1279 225.953 44.7513C225.331 45.3746 224.54 45.7983 223.678 45.9686C222.817 46.139 221.925 46.0483 221.115 45.7081C220.305 45.3679 219.614 44.7935 219.129 44.0577C218.643 43.3218 218.386 42.4576 218.389 41.5744C218.378 40.9862 218.486 40.4018 218.705 39.8564C218.924 39.311 219.25 38.8158 219.664 38.4005C220.079 37.9853 220.572 37.6586 221.115 37.44C221.658 37.2214 222.239 37.1155 222.823 37.1287ZM222.823 35.6306C221.654 35.6274 220.511 35.9733 219.537 36.6245C218.564 37.2757 217.804 38.2029 217.355 39.2887C216.905 40.3745 216.786 41.5701 217.012 42.7241C217.238 43.8781 217.799 44.9387 218.625 45.7716C219.45 46.6045 220.503 47.1721 221.649 47.4028C222.795 47.6335 223.984 47.5167 225.064 47.0673C226.144 46.6179 227.068 45.8561 227.717 44.8783C228.367 43.9005 228.714 42.7507 228.714 41.5744C228.71 40.0021 228.088 38.4952 226.985 37.3819C225.881 36.2686 224.386 35.6391 222.823 35.6306Z" fill="#26272A"/>
<path d="M233.148 35.6306V37.1286H237.566V47.5182H239.055V37.1286H243.473V35.6306H233.148Z" fill="#26272A"/>
<path d="M253.061 35.6307H247.907V47.5183H249.38V43.0564H253.061C253.566 43.0899 254.073 43.0188 254.549 42.8473C255.026 42.6759 255.462 42.4078 255.832 42.0598C256.201 41.7117 256.496 41.2911 256.697 40.8239C256.898 40.3567 257.002 39.8528 257.002 39.3436C257.002 38.8343 256.898 38.3305 256.697 37.8633C256.496 37.3961 256.201 36.9754 255.832 36.6274C255.462 36.2793 255.026 36.0113 254.549 35.8399C254.073 35.6684 253.566 35.5972 253.061 35.6307ZM253.061 41.5745H249.38V37.1288H253.061C253.647 37.1288 254.209 37.363 254.623 37.7798C255.038 38.1967 255.27 38.7621 255.27 39.3516C255.27 39.9412 255.038 40.5066 254.623 40.9235C254.209 41.3403 253.647 41.5745 253.061 41.5745Z" fill="#26272A"/>
<path d="M275.936 46.0363V35.6306H274.463V46.0363H270.029V35.6306H268.556V46.0363H264.138V35.6306H262.665V47.5182H275.936V49.0001H277.424V46.0363H275.936Z" fill="#26272A"/>
<path d="M290.695 35.6306L284.788 44.5544V35.6306H283.315V47.5182H284.788L290.695 38.6106V47.5182H292.167V35.6306H290.695Z" fill="#26272A"/>
<path d="M308.399 35.6306H306.494L301.019 42.1704V35.6306H299.547V47.5182H301.019V44.5544L302.492 42.7664L306.494 47.5182H308.399L303.388 41.5744L308.399 35.6306Z" fill="#26272A"/>
<path d="M321.685 46.0363V35.6306H320.212V47.5182H321.685H327.592V46.0363H321.685Z" fill="#67BA88"/>
<path d="M334.955 35.6306H333.482V47.5182H334.955V35.6306Z" fill="#67BA88"/>
<path d="M339.389 35.6306V37.1286H343.823V47.5182H345.295V37.1286H349.713V35.6306H339.389Z" fill="#67BA88"/>
<path d="M363 37.1284V35.6465H355.621V47.5179H363V46.036H357.093V41.5742H363V40.0922H357.093V37.1284H363Z" fill="#67BA88"/>
<path d="M59.3879 17.8149L54.2335 24.854V17.8149H53.129V26.7225H54.2335L59.3879 19.6995V26.7225H60.5084V17.8149H59.3879Z" fill="#9A999C"/>
<path d="M71.2005 17.8149V21.5358H66.0302V17.8149H64.9256V26.7225H66.0302V22.6472H71.2005V26.7225H72.3051V17.8149H71.2005Z" fill="#9A999C"/>
<path d="M81.1573 18.9263C81.8164 18.9232 82.4617 19.1169 83.0114 19.4832C83.561 19.8494 83.9903 20.3715 84.2447 20.9834C84.4992 21.5953 84.5674 22.2695 84.4408 22.9205C84.3141 23.5715 83.9983 24.17 83.5333 24.6401C83.0683 25.1103 82.475 25.431 81.8287 25.5616C81.1824 25.6922 80.5122 25.6268 79.9028 25.3737C79.2935 25.1206 78.7726 24.6912 78.406 24.1398C78.0394 23.5885 77.8437 22.9401 77.8437 22.2768C77.8416 21.8376 77.9258 21.4022 78.0913 20.9958C78.2569 20.5894 78.5007 20.22 78.8086 19.9086C79.1165 19.5973 79.4825 19.3503 79.8855 19.1817C80.2886 19.0131 80.7208 18.9263 81.1573 18.9263ZM81.1573 17.8149C80.2803 17.8149 79.423 18.0766 78.6938 18.5669C77.9647 19.0571 77.3963 19.754 77.0607 20.5693C76.7251 21.3846 76.6373 22.2817 76.8084 23.1472C76.9795 24.0128 77.4018 24.8078 78.0219 25.4318C78.642 26.0558 79.4321 26.4808 80.2922 26.6529C81.1523 26.8251 82.0439 26.7367 82.8541 26.399C83.6643 26.0613 84.3568 25.4894 84.844 24.7557C85.3312 24.0219 85.5913 23.1593 85.5913 22.2768C85.5934 21.6902 85.4802 21.1091 85.2581 20.5668C85.036 20.0245 84.7095 19.5318 84.2973 19.117C83.8852 18.7023 83.3955 18.3737 82.8566 18.1502C82.3177 17.9267 81.7401 17.8128 81.1573 17.8149Z" fill="#9A999C"/>
<path d="M93.7078 21.5358H91.1146V18.9263H95.9168V17.8149H90.0101V26.7225H93.7078C94.3913 26.7225 95.0468 26.4493 95.5302 25.9629C96.0135 25.4766 96.285 24.8169 96.285 24.1291C96.285 23.4413 96.0135 22.7817 95.5302 22.2954C95.0468 21.809 94.3913 21.5358 93.7078 21.5358ZM93.7078 25.6111H91.1146V22.6472H93.7078C93.9012 22.6472 94.0927 22.6856 94.2714 22.76C94.4501 22.8345 94.6124 22.9437 94.7492 23.0813C94.8859 23.2189 94.9944 23.3822 95.0684 23.562C95.1424 23.7418 95.1805 23.9345 95.1805 24.1291C95.1805 24.3238 95.1424 24.5165 95.0684 24.6963C94.9944 24.876 94.8859 25.0394 94.7492 25.177C94.6124 25.3146 94.4501 25.4238 94.2714 25.4983C94.0927 25.5727 93.9012 25.6111 93.7078 25.6111Z" fill="#9A999C"/>
<path d="M106.61 17.8149L101.455 24.854V17.8149H100.351V26.7225H101.455L106.61 19.6995V26.7225H107.714V17.8149H106.61Z" fill="#9A999C"/>
<path d="M112.147 17.8149V18.9263H115.093V26.7225H116.197V18.9263H119.159V17.8149H112.147Z" fill="#9A999C"/>
<path d="M129.852 18.9263V17.8149H123.945V26.7225H129.852V25.6111H125.066V22.6472H129.852V21.5358H125.066V18.9263H129.852Z" fill="#9A999C"/>
<path d="M140.561 17.8149H139.104L135.39 22.2767V17.8149H134.286V26.7225H135.39V24.0164L136.111 23.1466L139.104 26.7225H140.561L136.847 22.2767L140.561 17.8149Z" fill="#9A999C"/>
</g>
<defs>
<linearGradient id="paint0_linear" x1="-308.496" y1="64073.5" x2="-299.643" y2="64073.5" gradientUnits="userSpaceOnUse">
<stop stop-color="#64BB9D"/>
<stop offset="0.25" stop-color="#64BB9D"/>
<stop offset="1" stop-color="#67BA88"/>
</linearGradient>
<linearGradient id="paint1_linear" x1="0.681916" y1="31.6683" x2="36.0903" y2="31.6683" gradientUnits="userSpaceOnUse">
<stop stop-color="#64BB9D"/>
<stop offset="0.25" stop-color="#64BB9D"/>
<stop offset="0.75" stop-color="#5EBDB1"/>
<stop offset="1" stop-color="#5EBDB1"/>
</linearGradient>
<linearGradient id="paint2_linear" x1="-308.496" y1="16046.8" x2="-299.643" y2="16046.8" gradientUnits="userSpaceOnUse">
<stop stop-color="#64BB9D"/>
<stop offset="0.25" stop-color="#64BB9D"/>
<stop offset="1" stop-color="#67BA88"/>
</linearGradient>
<linearGradient id="paint3_linear" x1="0.681916" y1="31.6683" x2="36.0903" y2="31.6683" gradientUnits="userSpaceOnUse">
<stop stop-color="#64BB9D"/>
<stop offset="0.25" stop-color="#64BB9D"/>
<stop offset="0.75" stop-color="#5EBDB1"/>
<stop offset="1" stop-color="#5EBDB1"/>
</linearGradient>
<linearGradient id="paint4_linear" x1="-1234.51" y1="85383.3" x2="-1207.96" y2="85383.3" gradientUnits="userSpaceOnUse">
<stop stop-color="#5EBDB1"/>
<stop offset="0.19" stop-color="#5EBDB1"/>
<stop offset="1" stop-color="#4DBFDD"/>
</linearGradient>
<linearGradient id="paint5_linear" x1="-696.661" y1="15610.7" x2="-687.809" y2="15610.7" gradientUnits="userSpaceOnUse">
<stop stop-color="#64BB9D"/>
<stop offset="0.25" stop-color="#64BB9D"/>
<stop offset="0.75" stop-color="#5EBDB1"/>
<stop offset="1" stop-color="#5EBDB1"/>
</linearGradient>
<linearGradient id="paint6_linear" x1="-387.899" y1="16046.1" x2="-379.047" y2="16046.1" gradientUnits="userSpaceOnUse">
<stop stop-color="#5EBDB1"/>
<stop offset="0.19" stop-color="#5EBDB1"/>
<stop offset="1" stop-color="#4DBFDD"/>
</linearGradient>
<clipPath id="clip0">
<rect width="363" height="49" fill="white"/>
</clipPath>
</defs>
</svg>
