<svg width="151" height="19" viewBox="0 0 151 19" fill="none" xmlns="http://www.w3.org/2000/svg">
<path d="M73.9297 9.46553L71.0644 6.67188H59.4482V18.3121H73.9297V9.46553ZM70.987 15.208H62.3136V9.42673H70.8708L70.987 15.208Z" fill="#F0F0F1"/>
<path d="M59.4873 0.657715V3.52896H71.026L73.8913 0.657715H59.4873Z" fill="#F0F0F1"/>
<path d="M2.9161 18.0403H0.0507812V3.80045L2.9161 0.929199V18.0403Z" fill="#F0F0F1"/>
<path d="M86.2042 18.0403H83.3389V3.80045L86.2042 0.929199V18.0403Z" fill="#F0F0F1"/>
<path d="M99.6787 9.46549V18.0792H102.544V6.59424L99.6787 9.46549Z" fill="#F0F0F1"/>
<path d="M93.9482 0.735352V3.60661H105.448L108.314 0.735352H93.9482Z" fill="#F0F0F1"/>
<path d="M42.9534 0.77417C41.2533 0.77417 39.5913 1.27936 38.1777 2.22585C36.7641 3.17234 35.6624 4.51763 35.0118 6.09158C34.3611 7.66554 34.1909 9.39748 34.5226 11.0684C34.8543 12.7393 35.673 14.2741 36.8751 15.4788C38.0773 16.6834 39.6089 17.5038 41.2764 17.8362C42.9439 18.1685 44.6722 17.998 46.2429 17.346C47.8136 16.694 49.1561 15.59 50.1007 14.1735C51.0452 12.7569 51.5493 11.0916 51.5493 9.38792C51.5493 7.10341 50.6437 4.91247 49.0316 3.29708C47.4196 1.68169 45.2332 0.77417 42.9534 0.77417ZM42.9534 15.1304C41.82 15.1304 40.712 14.7936 39.7696 14.1626C38.8272 13.5316 38.0927 12.6348 37.659 11.5855C37.2252 10.5362 37.1117 9.38155 37.3329 8.26762C37.554 7.15368 38.0998 6.13047 38.9012 5.32736C39.7027 4.52426 40.7238 3.97734 41.8354 3.75576C42.947 3.53419 44.0993 3.64791 45.1464 4.08254C46.1935 4.51718 47.0886 5.25321 47.7182 6.19756C48.3479 7.14191 48.684 8.25216 48.684 9.38792C48.6739 10.9078 48.0669 12.3625 46.9944 13.4373C45.9218 14.512 44.4701 15.1203 42.9534 15.1304Z" fill="#F0F0F1"/>
<path d="M118.109 15.1692V9.50431H121.168L123.995 6.63306H115.244V9.2715V15.1692V16.4108V18.0405H126.667L129.532 15.1692H118.109Z" fill="#F0F0F1"/>
<path d="M129.688 0.735352H115.206V3.60661H126.938L129.688 0.735352Z" fill="#F0F0F1"/>
<path d="M148.66 13.3067C147.99 14.0003 147.16 14.5173 146.243 14.8118C145.326 15.1063 144.35 15.1692 143.403 14.995C142.455 14.8207 141.566 14.4146 140.813 13.8128C140.06 13.211 139.467 12.4321 139.087 11.5454C138.706 10.6587 138.551 9.69154 138.633 8.72997C138.716 7.76841 139.034 6.84217 139.56 6.03359C140.086 5.22501 140.803 4.55911 141.647 4.09509C142.492 3.63107 143.438 3.38329 144.401 3.37377C145.196 3.32563 145.992 3.45759 146.729 3.75986C147.467 4.06213 148.127 4.52695 148.66 5.1198L148.892 5.3914L150.828 3.45137C149.658 2.1719 148.129 1.27653 146.443 0.882565C144.756 0.488604 142.99 0.614432 141.376 1.24356C139.761 1.8727 138.374 2.97579 137.397 4.40829C136.419 5.84079 135.896 7.53589 135.896 9.27147C135.896 11.007 136.419 12.7021 137.397 14.1346C138.374 15.5671 139.761 16.6702 141.376 17.2994C142.99 17.9285 144.756 18.0543 146.443 17.6604C148.129 17.2664 149.658 16.371 150.828 15.0916L148.931 13.1903L148.66 13.3067Z" fill="#F0F0F1"/>
<path d="M23.5927 0.735352V9.34911L23.0119 8.7283L21.3082 7.02107L17.8621 3.80061L16.4681 2.40378L15.0742 1.00696H11.9766V18.3509H14.8419V5.04223C17.2813 7.40907 21.889 11.8712 23.3217 13.3844V18.0017H26.2257V0.735352H23.5927Z" fill="#F0F0F1"/>
</svg>
