<svg width="257" height="31" viewBox="0 0 257 31" fill="none" xmlns="http://www.w3.org/2000/svg">
<path d="M125.926 15.0131L121.042 10.2513H101.243V30.092H125.926V15.0131ZM120.91 24.8012H106.127V14.947H120.712L120.91 24.8012Z" fill="#002855"/>
<path d="M101.309 0V4.89402H120.976L125.86 0H101.309Z" fill="#002855"/>
<path d="M4.88391 29.6285H0V5.3568L4.88391 0.462769V29.6285Z" fill="#002855"/>
<path d="M146.848 29.6285H141.964V5.3568L146.848 0.462769V29.6285Z" fill="#002855"/>
<path d="M169.815 15.0128V29.6949H174.699V10.1188L169.815 15.0128Z" fill="#002855"/>
<path d="M160.047 0.132324V5.02636H179.649L184.533 0.132324H160.047Z" fill="#002855"/>
<path d="M73.1273 0.198486C70.2294 0.198486 67.3967 1.05957 64.9872 2.67286C62.5777 4.28615 60.6998 6.57918 59.5908 9.26198C58.4819 11.9448 58.1917 14.8969 58.7571 17.7449C59.3224 20.5929 60.7178 23.209 62.7669 25.2624C64.816 27.3157 67.4267 28.714 70.2689 29.2805C73.111 29.8471 76.057 29.5563 78.7343 28.445C81.4115 27.3338 83.6998 25.452 85.3098 23.0375C86.9197 20.623 87.779 17.7844 87.779 14.8806C87.779 10.9866 86.2354 7.25219 83.4876 4.49877C80.7399 1.74534 77.0132 0.198486 73.1273 0.198486ZM73.1273 24.6686C71.1954 24.6686 69.3069 24.0946 67.7006 23.019C66.0942 21.9435 64.8423 20.4148 64.103 18.6263C63.3637 16.8378 63.1702 14.8697 63.5471 12.971C63.924 11.0723 64.8543 9.32825 66.2204 7.95937C67.5864 6.59049 69.3269 5.65826 71.2217 5.28059C73.1164 4.90291 75.0804 5.09675 76.8653 5.83759C78.6501 6.57842 80.1756 7.83298 81.2489 9.44262C82.3223 11.0523 82.8951 12.9447 82.8951 14.8806C82.8778 17.4712 81.8432 19.9507 80.0151 21.7826C78.187 23.6145 75.7125 24.6513 73.1273 24.6686Z" fill="#002855"/>
<path d="M201.231 24.7347V15.079H206.444L211.262 10.1849H196.347V14.6822V24.7347V26.8511V29.6288H215.816L220.7 24.7347H201.231Z" fill="#002855"/>
<path d="M220.964 0.132324H196.281V5.02636H216.278L220.964 0.132324Z" fill="#002855"/>
<path d="M253.304 21.5602C252.162 22.7423 250.747 23.6236 249.184 24.1256C247.62 24.6276 245.957 24.7348 244.343 24.4377C242.728 24.1407 241.212 23.4485 239.928 22.4227C238.645 21.397 237.634 20.0694 236.986 18.558C236.338 17.0465 236.073 15.3981 236.213 13.7591C236.354 12.1201 236.897 10.5414 237.793 9.16314C238.689 7.78492 239.911 6.64991 241.351 5.85898C242.79 5.06806 244.403 4.64572 246.044 4.62949C247.4 4.54744 248.756 4.77237 250.013 5.28759C251.27 5.8028 252.395 6.59508 253.304 7.60558L253.7 8.06853L257 4.76176C255.005 2.58092 252.4 1.05476 249.524 0.383255C246.649 -0.288249 243.639 -0.0737756 240.888 0.998577C238.136 2.07093 235.772 3.95114 234.105 6.39283C232.439 8.83452 231.547 11.7238 231.547 14.6821C231.547 17.6404 232.439 20.5296 234.105 22.9713C235.772 25.413 238.136 27.2932 240.888 28.3656C243.639 29.4379 246.649 29.6524 249.524 28.9809C252.4 28.3094 255.005 26.7832 257 24.6024L253.766 21.3618L253.304 21.5602Z" fill="#002855"/>
<path d="M40.1276 0.132324V14.8144L39.1376 13.7562L36.2337 10.8463L30.3598 5.35703L27.9838 2.97615L25.6079 0.595271H20.3279V30.1579H25.2119V7.47337C29.3698 11.5076 37.2237 19.1132 39.6656 21.6925V29.5626H44.6155V0.132324H40.1276Z" fill="#002855"/>
</svg>
